<svg width="242" height="200" viewBox="0 0 242 200" fill="none" xmlns="http://www.w3.org/2000/svg">
<rect x="1.99609" y="1.00098" width="239.004" height="198" rx="11.2222" fill="white" stroke="#E6E6E6" stroke-width="2"/>
<path d="M13.9436 24V17.1556H19.2725V18.2018H15.1951V19.8836H17.2191C18.0405 19.8836 18.663 20.0563 19.0867 20.4018C19.5169 20.7407 19.732 21.2361 19.732 21.888C19.732 22.5594 19.4941 23.0809 19.0183 23.4524C18.5489 23.8175 17.884 24 17.0236 24H13.9436ZM15.1951 23.0222H16.9551C17.444 23.0222 17.8156 22.9277 18.0698 22.7387C18.324 22.5496 18.4511 22.2759 18.4511 21.9173C18.4511 21.2133 17.9525 20.8613 16.9551 20.8613H15.1951V23.0222ZM20.987 24V18.7787H22.2092V22.2204L25.0937 18.7787H26.2084V24H24.9861V20.5582L22.1115 24H20.987ZM27.0898 23.9902L27.1485 22.9636C27.1941 22.9701 27.2365 22.9766 27.2756 22.9831C27.3147 22.9896 27.3505 22.9929 27.3831 22.9929C27.5852 22.9929 27.7417 22.931 27.8525 22.8071C27.9633 22.6833 28.0448 22.517 28.0969 22.3084C28.1556 22.0933 28.1947 21.8554 28.2143 21.5947C28.2403 21.3274 28.2599 21.0601 28.2729 20.7929L28.3609 18.7787H32.5849V24H31.3627V19.4827L31.6463 19.8151H29.1627L29.4267 19.4729L29.3583 20.8516C29.3387 21.3144 29.2996 21.7446 29.2409 22.1422C29.1888 22.5333 29.104 22.8756 28.9867 23.1689C28.8759 23.4622 28.7194 23.6904 28.5174 23.8533C28.3218 24.0163 28.0708 24.0978 27.7645 24.0978C27.6667 24.0978 27.5591 24.088 27.4418 24.0684C27.331 24.0489 27.2137 24.0228 27.0898 23.9902ZM36.6656 24.0684C36.0855 24.0684 35.577 23.9544 35.1403 23.7262C34.7101 23.4916 34.3744 23.1721 34.1332 22.768C33.8985 22.3639 33.7812 21.9043 33.7812 21.3893C33.7812 20.8679 33.8952 20.4083 34.1234 20.0107C34.3581 19.6065 34.6775 19.2904 35.0816 19.0622C35.4923 18.8341 35.9584 18.72 36.4798 18.72C36.9883 18.72 37.4413 18.8308 37.8389 19.0524C38.2366 19.2741 38.5495 19.587 38.7776 19.9911C39.0058 20.3953 39.1198 20.8711 39.1198 21.4187C39.1198 21.4708 39.1166 21.5295 39.1101 21.5947C39.1101 21.6599 39.1068 21.7218 39.1003 21.7804H34.7492V20.9689H38.4549L37.9758 21.2231C37.9824 20.9233 37.9204 20.6593 37.7901 20.4311C37.6597 20.203 37.4804 20.0237 37.2523 19.8933C37.0307 19.763 36.7732 19.6978 36.4798 19.6978C36.18 19.6978 35.916 19.763 35.6878 19.8933C35.4662 20.0237 35.2902 20.2062 35.1598 20.4409C35.036 20.669 34.9741 20.9396 34.9741 21.2524V21.448C34.9741 21.7609 35.0458 22.0379 35.1892 22.2791C35.3326 22.5203 35.5347 22.7061 35.7954 22.8364C36.0561 22.9668 36.356 23.032 36.6949 23.032C36.9883 23.032 37.2523 22.9864 37.4869 22.8951C37.7216 22.8039 37.9302 22.6604 38.1127 22.4649L38.7678 23.2178C38.5332 23.4916 38.2366 23.7034 37.8781 23.8533C37.5261 23.9967 37.1219 24.0684 36.6656 24.0684ZM41.3415 24V19.5218L41.625 19.8151H39.5032V18.7787H44.3921V19.8151H42.2801L42.5637 19.5218V24H41.3415ZM48.0787 24V17.1556H49.1249L53.4174 22.4258H52.8992V17.1556H54.1605V24H53.1143L48.8218 18.7298H49.3401V24H48.0787ZM55.1578 21.7707V20.9884H58.3552V21.7707H55.1578ZM56.7516 20.2747C56.4061 20.2747 56.0998 20.2062 55.8325 20.0693C55.5652 19.9324 55.3534 19.7434 55.1969 19.5022C55.0405 19.261 54.9623 18.984 54.9623 18.6711C54.9623 18.3647 55.0405 18.0942 55.1969 17.8596C55.3534 17.6184 55.5652 17.4293 55.8325 17.2924C56.0998 17.1556 56.4061 17.0871 56.7516 17.0871C57.1036 17.0871 57.4132 17.1556 57.6805 17.2924C57.9478 17.4293 58.1564 17.6184 58.3063 17.8596C58.4627 18.0942 58.5409 18.368 58.5409 18.6809C58.5409 18.9873 58.4627 19.261 58.3063 19.5022C58.1564 19.7434 57.9478 19.9324 57.6805 20.0693C57.4132 20.2062 57.1036 20.2747 56.7516 20.2747ZM56.7516 19.5804C57.0384 19.5804 57.2666 19.499 57.4361 19.336C57.6121 19.1665 57.7001 18.9481 57.7001 18.6809C57.7001 18.4006 57.6121 18.179 57.4361 18.016C57.2666 17.853 57.0384 17.7716 56.7516 17.7716C56.4713 17.7716 56.2432 17.8563 56.0672 18.0258C55.8912 18.1887 55.8032 18.4071 55.8032 18.6809C55.8032 18.9481 55.8912 19.1665 56.0672 19.336C56.2432 19.499 56.4713 19.5804 56.7516 19.5804ZM62.0146 17.0578C62.6404 17.0578 63.1716 17.1914 63.6084 17.4587C64.0516 17.7194 64.3906 18.1007 64.6252 18.6027C64.8599 19.1046 64.9772 19.7239 64.9772 20.4604C64.9772 21.2427 64.8338 21.9043 64.547 22.4453C64.2667 22.9864 63.8756 23.397 63.3737 23.6773C62.8718 23.9576 62.2884 24.0978 61.6235 24.0978C61.278 24.0978 60.9488 24.0619 60.6359 23.9902C60.323 23.9185 60.0525 23.8077 59.8244 23.6578L60.2937 22.6996C60.4827 22.8234 60.6881 22.9114 60.9097 22.9636C61.1313 23.0092 61.3595 23.032 61.5941 23.032C62.2395 23.032 62.7512 22.8332 63.1292 22.4356C63.5073 22.0379 63.6964 21.4513 63.6964 20.6756C63.6964 20.5517 63.6931 20.4083 63.6866 20.2453C63.6801 20.0759 63.6572 19.9064 63.6181 19.7369L64.0092 20.1671C63.8984 20.4344 63.7387 20.6593 63.5301 20.8418C63.3215 21.0178 63.0771 21.1514 62.7968 21.2427C62.5165 21.3339 62.2069 21.3796 61.8679 21.3796C61.4247 21.3796 61.0238 21.2948 60.6652 21.1253C60.3132 20.9493 60.033 20.7049 59.8244 20.392C59.6158 20.0726 59.5115 19.701 59.5115 19.2773C59.5115 18.821 59.6223 18.4299 59.8439 18.104C60.0655 17.7716 60.3654 17.5141 60.7435 17.3316C61.1281 17.149 61.5518 17.0578 62.0146 17.0578ZM62.083 18.0551C61.8223 18.0551 61.5909 18.104 61.3888 18.2018C61.1867 18.293 61.027 18.4267 60.9097 18.6027C60.7989 18.7721 60.7435 18.9775 60.7435 19.2187C60.7435 19.5772 60.8673 19.8607 61.115 20.0693C61.3627 20.2779 61.6952 20.3822 62.1124 20.3822C62.3861 20.3822 62.6273 20.3333 62.8359 20.2356C63.0445 20.1313 63.2075 19.9911 63.3248 19.8151C63.4421 19.6326 63.5008 19.4305 63.5008 19.2089C63.5008 18.9938 63.4454 18.8015 63.3346 18.632C63.2238 18.456 63.0641 18.3159 62.8555 18.2116C62.6469 18.1073 62.3894 18.0551 62.083 18.0551ZM68.1448 17.0578C68.7706 17.0578 69.3018 17.1914 69.7386 17.4587C70.1818 17.7194 70.5208 18.1007 70.7555 18.6027C70.9901 19.1046 71.1075 19.7239 71.1075 20.4604C71.1075 21.2427 70.964 21.9043 70.6772 22.4453C70.3969 22.9864 70.0058 23.397 69.5039 23.6773C69.002 23.9576 68.4186 24.0978 67.7537 24.0978C67.4082 24.0978 67.079 24.0619 66.7661 23.9902C66.4532 23.9185 66.1827 23.8077 65.9546 23.6578L66.4239 22.6996C66.6129 22.8234 66.8183 22.9114 67.0399 22.9636C67.2615 23.0092 67.4897 23.032 67.7243 23.032C68.3697 23.032 68.8814 22.8332 69.2595 22.4356C69.6375 22.0379 69.8266 21.4513 69.8266 20.6756C69.8266 20.5517 69.8233 20.4083 69.8168 20.2453C69.8103 20.0759 69.7875 19.9064 69.7483 19.7369L70.1395 20.1671C70.0286 20.4344 69.8689 20.6593 69.6603 20.8418C69.4518 21.0178 69.2073 21.1514 68.927 21.2427C68.6467 21.3339 68.3371 21.3796 67.9981 21.3796C67.5549 21.3796 67.154 21.2948 66.7955 21.1253C66.4435 20.9493 66.1632 20.7049 65.9546 20.392C65.746 20.0726 65.6417 19.701 65.6417 19.2773C65.6417 18.821 65.7525 18.4299 65.9741 18.104C66.1957 17.7716 66.4956 17.5141 66.8737 17.3316C67.2583 17.149 67.682 17.0578 68.1448 17.0578ZM68.2132 18.0551C67.9525 18.0551 67.7211 18.104 67.519 18.2018C67.3169 18.293 67.1572 18.4267 67.0399 18.6027C66.9291 18.7721 66.8737 18.9775 66.8737 19.2187C66.8737 19.5772 66.9975 19.8607 67.2452 20.0693C67.4929 20.2779 67.8254 20.3822 68.2426 20.3822C68.5163 20.3822 68.7575 20.3333 68.9661 20.2356C69.1747 20.1313 69.3377 19.9911 69.455 19.8151C69.5723 19.6326 69.631 19.4305 69.631 19.2089C69.631 18.9938 69.5756 18.8015 69.4648 18.632C69.354 18.456 69.1943 18.3159 68.9857 18.2116C68.7771 18.1073 68.5196 18.0551 68.2132 18.0551ZM74.275 17.0578C74.9008 17.0578 75.432 17.1914 75.8688 17.4587C76.312 17.7194 76.651 18.1007 76.8857 18.6027C77.1203 19.1046 77.2377 19.7239 77.2377 20.4604C77.2377 21.2427 77.0943 21.9043 76.8074 22.4453C76.5271 22.9864 76.136 23.397 75.6341 23.6773C75.1322 23.9576 74.5488 24.0978 73.8839 24.0978C73.5384 24.0978 73.2092 24.0619 72.8963 23.9902C72.5834 23.9185 72.3129 23.8077 72.0848 23.6578L72.5541 22.6996C72.7431 22.8234 72.9485 22.9114 73.1701 22.9636C73.3917 23.0092 73.6199 23.032 73.8545 23.032C74.4999 23.032 75.0116 22.8332 75.3897 22.4356C75.7677 22.0379 75.9568 21.4513 75.9568 20.6756C75.9568 20.5517 75.9535 20.4083 75.947 20.2453C75.9405 20.0759 75.9177 19.9064 75.8785 19.7369L76.2697 20.1671C76.1588 20.4344 75.9991 20.6593 75.7905 20.8418C75.582 21.0178 75.3375 21.1514 75.0572 21.2427C74.7769 21.3339 74.4673 21.3796 74.1283 21.3796C73.6851 21.3796 73.2842 21.2948 72.9257 21.1253C72.5737 20.9493 72.2934 20.7049 72.0848 20.392C71.8762 20.0726 71.7719 19.701 71.7719 19.2773C71.7719 18.821 71.8827 18.4299 72.1043 18.104C72.326 17.7716 72.6258 17.5141 73.0039 17.3316C73.3885 17.149 73.8122 17.0578 74.275 17.0578ZM74.3434 18.0551C74.0827 18.0551 73.8513 18.104 73.6492 18.2018C73.4471 18.293 73.2874 18.4267 73.1701 18.6027C73.0593 18.7721 73.0039 18.9775 73.0039 19.2187C73.0039 19.5772 73.1277 19.8607 73.3754 20.0693C73.6231 20.2779 73.9556 20.3822 74.3728 20.3822C74.6465 20.3822 74.8877 20.3333 75.0963 20.2356C75.3049 20.1313 75.4679 19.9911 75.5852 19.8151C75.7025 19.6326 75.7612 19.4305 75.7612 19.2089C75.7612 18.9938 75.7058 18.8015 75.595 18.632C75.4842 18.456 75.3245 18.3159 75.1159 18.2116C74.9073 18.1073 74.6498 18.0551 74.3434 18.0551ZM80.1533 24.0978C79.6709 24.0978 79.1983 24.0293 78.7355 23.8924C78.2792 23.749 77.8946 23.5535 77.5817 23.3058L78.1293 22.3182C78.377 22.5203 78.6768 22.6833 79.0288 22.8071C79.3808 22.931 79.7491 22.9929 80.1337 22.9929C80.59 22.9929 80.9453 22.9016 81.1995 22.7191C81.4537 22.5301 81.5808 22.2759 81.5808 21.9564C81.5808 21.6436 81.4635 21.3959 81.2288 21.2133C80.9942 21.0308 80.6161 20.9396 80.0946 20.9396H79.4688V20.0693L81.4244 17.7422L81.5906 18.2213H77.9142V17.1556H82.5782V18.0062L80.6226 20.3333L79.9577 19.9422H80.339C81.1799 19.9422 81.809 20.1313 82.2262 20.5093C82.6499 20.8809 82.8617 21.36 82.8617 21.9467C82.8617 22.3313 82.7639 22.6865 82.5684 23.0124C82.3728 23.3384 82.073 23.6024 81.6688 23.8044C81.2712 24 80.766 24.0978 80.1533 24.0978ZM85.7965 24.0978C85.3141 24.0978 84.8415 24.0293 84.3787 23.8924C83.9224 23.749 83.5378 23.5535 83.2249 23.3058L83.7725 22.3182C84.0202 22.5203 84.3201 22.6833 84.6721 22.8071C85.0241 22.931 85.3924 22.9929 85.7769 22.9929C86.2332 22.9929 86.5885 22.9016 86.8427 22.7191C87.0969 22.5301 87.2241 22.2759 87.2241 21.9564C87.2241 21.6436 87.1067 21.3959 86.8721 21.2133C86.6374 21.0308 86.2593 20.9396 85.7378 20.9396H85.1121V20.0693L87.0676 17.7422L87.2338 18.2213H83.5574V17.1556H88.2214V18.0062L86.2658 20.3333L85.6009 19.9422H85.9823C86.8232 19.9422 87.4522 20.1313 87.8694 20.5093C88.2931 20.8809 88.5049 21.36 88.5049 21.9467C88.5049 22.3313 88.4072 22.6865 88.2116 23.0124C88.0161 23.3384 87.7162 23.6024 87.3121 23.8044C86.9144 24 86.4092 24.0978 85.7965 24.0978ZM90.3849 24L93.2107 17.664L93.5431 18.2311H89.6613L90.2675 17.6151V19.3947H89.0844V17.1556H94.4035V18.0062L91.744 24H90.3849ZM97.9614 24.0978C97.3421 24.0978 96.8108 23.9674 96.3676 23.7067C95.9243 23.4394 95.5854 23.0548 95.3507 22.5529C95.116 22.051 94.9987 21.4317 94.9987 20.6951C94.9987 19.9129 95.1388 19.2513 95.4191 18.7102C95.7059 18.1692 96.1003 17.7585 96.6022 17.4782C97.1107 17.1979 97.6941 17.0578 98.3525 17.0578C98.6979 17.0578 99.0271 17.0936 99.34 17.1653C99.6594 17.237 99.9299 17.3479 100.152 17.4978L99.6822 18.456C99.4932 18.3321 99.2879 18.2474 99.0662 18.2018C98.8511 18.1496 98.623 18.1236 98.3818 18.1236C97.7365 18.1236 97.2248 18.3224 96.8467 18.72C96.4686 19.1176 96.2796 19.7043 96.2796 20.48C96.2796 20.6039 96.2828 20.7505 96.2894 20.92C96.2959 21.083 96.3187 21.2492 96.3578 21.4187L95.9667 20.9884C96.084 20.7212 96.2437 20.4996 96.4458 20.3236C96.6544 20.141 96.8988 20.0041 97.1791 19.9129C97.4659 19.8216 97.7756 19.776 98.108 19.776C98.5578 19.776 98.9587 19.864 99.3107 20.04C99.6627 20.2095 99.943 20.4539 100.152 20.7733C100.36 21.0862 100.464 21.4545 100.464 21.8782C100.464 22.328 100.354 22.7191 100.132 23.0516C99.9104 23.384 99.6105 23.6415 99.2325 23.824C98.8544 24.0065 98.4307 24.0978 97.9614 24.0978ZM97.8929 23.1004C98.1537 23.1004 98.3851 23.0548 98.5871 22.9636C98.7892 22.8658 98.9457 22.7289 99.0565 22.5529C99.1738 22.3769 99.2325 22.1716 99.2325 21.9369C99.2325 21.5784 99.1086 21.2948 98.8609 21.0862C98.6132 20.8776 98.2808 20.7733 97.8636 20.7733C97.5898 20.7733 97.3486 20.8255 97.14 20.9298C96.9379 21.0276 96.775 21.1644 96.6511 21.3404C96.5338 21.5164 96.4751 21.7185 96.4751 21.9467C96.4751 22.1553 96.5305 22.3476 96.6414 22.5236C96.7522 22.6996 96.9119 22.8397 97.1205 22.944C97.3356 23.0483 97.5931 23.1004 97.8929 23.1004ZM102.224 24V17.6444L102.781 18.2213H100.777V17.1556H103.495V24H102.224ZM107.708 24.0978C107.167 24.0978 106.678 23.9609 106.241 23.6871C105.811 23.4133 105.472 23.0157 105.224 22.4942C104.977 21.9662 104.853 21.3274 104.853 20.5778C104.853 19.8281 104.977 19.1926 105.224 18.6711C105.472 18.1431 105.811 17.7422 106.241 17.4684C106.678 17.1947 107.167 17.0578 107.708 17.0578C108.256 17.0578 108.744 17.1947 109.175 17.4684C109.605 17.7422 109.944 18.1431 110.192 18.6711C110.446 19.1926 110.573 19.8281 110.573 20.5778C110.573 21.3274 110.446 21.9662 110.192 22.4942C109.944 23.0157 109.605 23.4133 109.175 23.6871C108.744 23.9609 108.256 24.0978 107.708 24.0978ZM107.708 22.9929C108.027 22.9929 108.304 22.9081 108.539 22.7387C108.774 22.5627 108.956 22.2954 109.087 21.9369C109.224 21.5784 109.292 21.1253 109.292 20.5778C109.292 20.0237 109.224 19.5707 109.087 19.2187C108.956 18.8601 108.774 18.5961 108.539 18.4267C108.304 18.2507 108.027 18.1627 107.708 18.1627C107.402 18.1627 107.128 18.2507 106.887 18.4267C106.652 18.5961 106.466 18.8601 106.329 19.2187C106.199 19.5707 106.134 20.0237 106.134 20.5778C106.134 21.1253 106.199 21.5784 106.329 21.9369C106.466 22.2954 106.652 22.5627 106.887 22.7387C107.128 22.9081 107.402 22.9929 107.708 22.9929ZM114.287 24.0978C113.746 24.0978 113.257 23.9609 112.82 23.6871C112.39 23.4133 112.051 23.0157 111.803 22.4942C111.556 21.9662 111.432 21.3274 111.432 20.5778C111.432 19.8281 111.556 19.1926 111.803 18.6711C112.051 18.1431 112.39 17.7422 112.82 17.4684C113.257 17.1947 113.746 17.0578 114.287 17.0578C114.835 17.0578 115.323 17.1947 115.754 17.4684C116.184 17.7422 116.523 18.1431 116.771 18.6711C117.025 19.1926 117.152 19.8281 117.152 20.5778C117.152 21.3274 117.025 21.9662 116.771 22.4942C116.523 23.0157 116.184 23.4133 115.754 23.6871C115.323 23.9609 114.835 24.0978 114.287 24.0978ZM114.287 22.9929C114.606 22.9929 114.883 22.9081 115.118 22.7387C115.353 22.5627 115.535 22.2954 115.666 21.9369C115.803 21.5784 115.871 21.1253 115.871 20.5778C115.871 20.0237 115.803 19.5707 115.666 19.2187C115.535 18.8601 115.353 18.5961 115.118 18.4267C114.883 18.2507 114.606 18.1627 114.287 18.1627C113.981 18.1627 113.707 18.2507 113.466 18.4267C113.231 18.5961 113.045 18.8601 112.908 19.2187C112.778 19.5707 112.713 20.0237 112.713 20.5778C112.713 21.1253 112.778 21.5784 112.908 21.9369C113.045 22.2954 113.231 22.5627 113.466 22.7387C113.707 22.9081 113.981 22.9929 114.287 22.9929ZM117.913 24V23.1493L120.632 20.568C120.86 20.3529 121.029 20.1639 121.14 20.0009C121.251 19.8379 121.322 19.688 121.355 19.5511C121.394 19.4077 121.414 19.2741 121.414 19.1502C121.414 18.8373 121.306 18.5961 121.091 18.4267C120.876 18.2507 120.56 18.1627 120.143 18.1627C119.81 18.1627 119.507 18.2213 119.233 18.3387C118.966 18.456 118.735 18.6353 118.539 18.8764L117.649 18.192C117.917 17.8335 118.275 17.5564 118.725 17.3609C119.181 17.1588 119.69 17.0578 120.25 17.0578C120.746 17.0578 121.176 17.1393 121.541 17.3022C121.912 17.4587 122.196 17.6836 122.392 17.9769C122.594 18.2702 122.695 18.619 122.695 19.0231C122.695 19.2447 122.665 19.4664 122.607 19.688C122.548 19.9031 122.437 20.1313 122.274 20.3724C122.111 20.6136 121.873 20.8841 121.56 21.184L119.224 23.4036L118.96 22.9244H122.959V24H117.913ZM126 17.0578C126.626 17.0578 127.157 17.1914 127.594 17.4587C128.037 17.7194 128.376 18.1007 128.61 18.6027C128.845 19.1046 128.962 19.7239 128.962 20.4604C128.962 21.2427 128.819 21.9043 128.532 22.4453C128.252 22.9864 127.861 23.397 127.359 23.6773C126.857 23.9576 126.274 24.0978 125.609 24.0978C125.263 24.0978 124.934 24.0619 124.621 23.9902C124.308 23.9185 124.038 23.8077 123.81 23.6578L124.279 22.6996C124.468 22.8234 124.673 22.9114 124.895 22.9636C125.117 23.0092 125.345 23.032 125.579 23.032C126.225 23.032 126.736 22.8332 127.114 22.4356C127.493 22.0379 127.682 21.4513 127.682 20.6756C127.682 20.5517 127.678 20.4083 127.672 20.2453C127.665 20.0759 127.642 19.9064 127.603 19.7369L127.994 20.1671C127.884 20.4344 127.724 20.6593 127.515 20.8418C127.307 21.0178 127.062 21.1514 126.782 21.2427C126.502 21.3339 126.192 21.3796 125.853 21.3796C125.41 21.3796 125.009 21.2948 124.65 21.1253C124.298 20.9493 124.018 20.7049 123.81 20.392C123.601 20.0726 123.497 19.701 123.497 19.2773C123.497 18.821 123.608 18.4299 123.829 18.104C124.051 17.7716 124.351 17.5141 124.729 17.3316C125.113 17.149 125.537 17.0578 126 17.0578ZM126.068 18.0551C125.808 18.0551 125.576 18.104 125.374 18.2018C125.172 18.293 125.012 18.4267 124.895 18.6027C124.784 18.7721 124.729 18.9775 124.729 19.2187C124.729 19.5772 124.853 19.8607 125.1 20.0693C125.348 20.2779 125.68 20.3822 126.098 20.3822C126.371 20.3822 126.613 20.3333 126.821 20.2356C127.03 20.1313 127.193 19.9911 127.31 19.8151C127.427 19.6326 127.486 19.4305 127.486 19.2089C127.486 18.9938 127.431 18.8015 127.32 18.632C127.209 18.456 127.049 18.3159 126.841 18.2116C126.632 18.1073 126.375 18.0551 126.068 18.0551Z" fill="black"/>
<path d="M11.479 44.5565C11.479 40.5064 14.7622 37.2231 18.8123 37.2231H35.9234V61.6676H11.479V44.5565Z" fill="white" stroke="#E3E3E3" stroke-width="0.611111"/>
<path d="M20.3091 42.5803C20.9067 43.8502 22.0172 44.923 22.509 46.2691C22.9787 47.5545 23.897 48.7261 24.709 49.8246C25.1136 50.372 25.7777 51.3802 25.9534 52.0245C26.0845 52.5053 26.1535 52.9149 26.5089 53.2912C27.0431 53.8567 26.8098 54.6207 27.5089 55.18" stroke="#FF6534" stroke-width="6" stroke-linecap="round"/>
<path d="M16.3093 53.1802C17.5177 52.2135 19.0976 51.4584 20.3981 50.5914C22.3004 49.3231 24.3942 48.4739 26.4202 47.4248C27.9348 46.6404 29.721 45.9097 31.3089 45.3804" stroke="#FF6534" stroke-width="6" stroke-linecap="round"/>
<path d="M22.8025 53.1121V46.5609L23.1154 46.8934H21.1892V46.2676H23.5065V53.1121H22.8025Z" fill="black"/>
<rect x="35.9233" y="37.2231" width="24.4444" height="24.4444" fill="white" stroke="#E3E3E3" stroke-width="0.611111"/>
<rect x="60.3677" y="37.2231" width="24.4444" height="24.4444" fill="white" stroke="#E3E3E3" stroke-width="0.611111"/>
<rect x="84.8125" y="37.2231" width="24.4444" height="24.4444" fill="white" stroke="#E3E3E3" stroke-width="0.611111"/>
<path d="M93.3091 42.5803C93.9067 43.8502 95.0172 44.923 95.509 46.2691C95.9787 47.5545 96.897 48.7261 97.709 49.8246C98.1136 50.372 98.7777 51.3802 98.9534 52.0245C99.0845 52.5053 99.1535 52.9149 99.5089 53.2912C100.043 53.8567 99.8098 54.6207 100.509 55.18" stroke="#FF6534" stroke-width="6" stroke-linecap="round"/>
<path d="M89.3093 53.1802C90.5177 52.2135 92.0976 51.4584 93.3981 50.5914C95.3004 49.3231 97.3942 48.4739 99.4202 47.4248C100.935 46.6404 102.721 45.9097 104.309 45.3804" stroke="#FF6534" stroke-width="6" stroke-linecap="round"/>
<path d="M94.1058 53.1707C93.6104 53.1707 93.141 53.0925 92.6978 52.9361C92.261 52.7731 91.909 52.558 91.6418 52.2907L91.984 51.7334C92.2056 51.9615 92.5022 52.1506 92.8738 52.3005C93.2518 52.4504 93.6625 52.5254 94.1058 52.5254C94.6729 52.5254 95.1064 52.4015 95.4062 52.1538C95.7126 51.9061 95.8658 51.5737 95.8658 51.1565C95.8658 50.7393 95.7158 50.4069 95.416 50.1592C95.1227 49.9115 94.6566 49.7876 94.0178 49.7876H93.5289V49.2694L95.6409 46.6196L95.7387 46.8934H91.9253V46.2676H96.3253V46.7663L94.2133 49.4161L93.8711 49.1912H94.1351C94.9564 49.1912 95.5692 49.3737 95.9733 49.7387C96.384 50.1038 96.5893 50.5731 96.5893 51.1467C96.5893 51.5313 96.4981 51.8768 96.3155 52.1832C96.133 52.4895 95.856 52.7307 95.4844 52.9067C95.1194 53.0827 94.6598 53.1707 94.1058 53.1707ZM99.6467 53.1707C99.1578 53.1707 98.6917 53.0925 98.2485 52.9361C97.8052 52.7731 97.4532 52.558 97.1925 52.2907L97.5347 51.7334C97.7498 51.9615 98.0432 52.1506 98.4147 52.3005C98.7928 52.4504 99.2002 52.5254 99.6369 52.5254C100.217 52.5254 100.657 52.3983 100.957 52.1441C101.263 51.8833 101.416 51.5444 101.416 51.1272C101.416 50.8338 101.345 50.5829 101.201 50.3743C101.064 50.1592 100.83 49.9929 100.497 49.8756C100.165 49.7583 99.7086 49.6996 99.1285 49.6996H97.6716L98.0236 46.2676H101.768V46.8934H98.3072L98.6689 46.5512L98.3658 49.4258L98.004 49.0738H99.2849C99.9759 49.0738 100.53 49.1586 100.947 49.3281C101.364 49.4975 101.664 49.7355 101.847 50.0418C102.036 50.3417 102.13 50.6937 102.13 51.0978C102.13 51.4824 102.039 51.8344 101.856 52.1538C101.674 52.4667 101.4 52.7144 101.035 52.8969C100.67 53.0795 100.207 53.1707 99.6467 53.1707Z" fill="black"/>
<rect x="109.257" y="37.2231" width="24.4444" height="24.4444" fill="white" stroke="#E3E3E3" stroke-width="0.611111"/>
<path d="M118.309 42.5803C118.907 43.8502 120.017 44.923 120.509 46.2691C120.979 47.5545 121.897 48.7261 122.709 49.8246C123.114 50.372 123.778 51.3802 123.953 52.0245C124.085 52.5053 124.154 52.9149 124.509 53.2912C125.043 53.8567 124.81 54.6207 125.509 55.18" stroke="#FF6534" stroke-width="6" stroke-linecap="round"/>
<path d="M114.309 53.1802C115.518 52.2135 117.098 51.4584 118.398 50.5914C120.3 49.3231 122.394 48.4739 124.42 47.4248C125.935 46.6404 127.721 45.9097 129.309 45.3804" stroke="#FF6534" stroke-width="6" stroke-linecap="round"/>
<path d="M116.086 51.3129V50.8045L119.713 46.2676H120.495L116.897 50.8045L116.516 50.6872H122.021V51.3129H116.086ZM119.948 53.1121V51.3129L119.967 50.6872V49.1032H120.652V53.1121H119.948ZM124.723 46.2089C125.329 46.2089 125.84 46.3458 126.258 46.6196C126.675 46.8869 126.991 47.2747 127.206 47.7832C127.421 48.2916 127.529 48.9076 127.529 49.6312C127.529 50.4004 127.395 51.0489 127.128 51.5769C126.867 52.1049 126.502 52.5026 126.033 52.7698C125.563 53.0371 125.019 53.1707 124.4 53.1707C124.093 53.1707 123.8 53.1414 123.52 53.0827C123.246 53.0241 122.998 52.9295 122.777 52.7992L123.06 52.2321C123.236 52.3494 123.438 52.4341 123.667 52.4863C123.901 52.5319 124.142 52.5547 124.39 52.5547C125.127 52.5547 125.713 52.3201 126.15 51.8507C126.593 51.3814 126.815 50.6807 126.815 49.7485C126.815 49.5986 126.805 49.4193 126.786 49.2107C126.773 49.0021 126.737 48.7935 126.678 48.5849L126.923 48.7707C126.857 49.1097 126.717 49.3998 126.502 49.6409C126.293 49.8756 126.033 50.0549 125.72 50.1787C125.413 50.3026 125.071 50.3645 124.693 50.3645C124.243 50.3645 123.843 50.2798 123.491 50.1103C123.145 49.9408 122.875 49.7029 122.679 49.3965C122.483 49.0901 122.386 48.7284 122.386 48.3112C122.386 47.8809 122.487 47.5094 122.689 47.1965C122.891 46.8836 123.168 46.6424 123.52 46.4729C123.878 46.2969 124.279 46.2089 124.723 46.2089ZM124.752 46.8054C124.426 46.8054 124.136 46.8673 123.882 46.9912C123.634 47.1085 123.438 47.278 123.295 47.4996C123.152 47.7212 123.08 47.9852 123.08 48.2916C123.08 48.7414 123.233 49.0999 123.539 49.3672C123.852 49.6344 124.273 49.7681 124.801 49.7681C125.153 49.7681 125.459 49.7029 125.72 49.5725C125.987 49.4421 126.192 49.2629 126.336 49.0347C126.486 48.8066 126.561 48.5524 126.561 48.2721C126.561 48.0178 126.492 47.7799 126.355 47.5583C126.219 47.3367 126.016 47.1574 125.749 47.0205C125.482 46.8771 125.149 46.8054 124.752 46.8054Z" fill="black"/>
<rect x="133.701" y="37.2231" width="24.4444" height="24.4444" fill="white" stroke="#E3E3E3" stroke-width="0.611111"/>
<rect x="158.146" y="37.2231" width="24.4444" height="24.4444" fill="white" stroke="#E3E3E3" stroke-width="0.611111"/>
<path d="M166.309 42.5803C166.907 43.8502 168.017 44.923 168.509 46.2691C168.979 47.5545 169.897 48.7261 170.709 49.8246C171.114 50.372 171.778 51.3802 171.953 52.0245C172.085 52.5053 172.154 52.9149 172.509 53.2912C173.043 53.8567 172.81 54.6207 173.509 55.18" stroke="#FF6534" stroke-width="6" stroke-linecap="round"/>
<path d="M162.309 53.1802C163.518 52.2135 165.098 51.4584 166.398 50.5914C168.3 49.3231 170.394 48.4739 172.42 47.4248C173.935 46.6404 175.721 45.9097 177.309 45.3804" stroke="#FF6534" stroke-width="6" stroke-linecap="round"/>
<path d="M167.434 53.1707C166.828 53.1707 166.316 53.0371 165.899 52.7698C165.482 52.4961 165.166 52.1049 164.951 51.5965C164.735 51.0815 164.628 50.4655 164.628 49.7485C164.628 48.9728 164.758 48.3242 165.019 47.8027C165.286 47.2747 165.655 46.8771 166.124 46.6098C166.593 46.3426 167.137 46.2089 167.757 46.2089C168.063 46.2089 168.356 46.2383 168.637 46.2969C168.917 46.3556 169.165 46.4501 169.38 46.5805L169.096 47.1476C168.92 47.0303 168.718 46.9488 168.49 46.9032C168.262 46.851 168.021 46.8249 167.767 46.8249C167.03 46.8249 166.44 47.0596 165.997 47.5289C165.56 47.9983 165.342 48.699 165.342 49.6312C165.342 49.7746 165.348 49.9538 165.361 50.1689C165.381 50.3775 165.42 50.5861 165.479 50.7947L165.234 50.6089C165.306 50.27 165.446 49.9832 165.655 49.7485C165.863 49.5073 166.124 49.3248 166.437 49.2009C166.75 49.0771 167.092 49.0152 167.463 49.0152C167.92 49.0152 168.321 49.0999 168.666 49.2694C169.012 49.4389 169.282 49.6768 169.478 49.9832C169.673 50.2895 169.771 50.6513 169.771 51.0685C169.771 51.4922 169.67 51.8638 169.468 52.1832C169.266 52.4961 168.985 52.7405 168.627 52.9165C168.275 53.086 167.877 53.1707 167.434 53.1707ZM167.405 52.5743C167.731 52.5743 168.017 52.5156 168.265 52.3983C168.519 52.2744 168.718 52.1017 168.862 51.8801C169.005 51.6519 169.077 51.3879 169.077 51.0881C169.077 50.6383 168.92 50.2798 168.607 50.0125C168.301 49.7452 167.884 49.6116 167.356 49.6116C167.004 49.6116 166.697 49.6768 166.437 49.8072C166.176 49.9375 165.971 50.1168 165.821 50.3449C165.671 50.5666 165.596 50.8208 165.596 51.1076C165.596 51.3553 165.664 51.5932 165.801 51.8214C165.938 52.043 166.14 52.2255 166.407 52.3689C166.681 52.5058 167.014 52.5743 167.405 52.5743ZM172.747 53.1707C172.258 53.1707 171.792 53.0925 171.349 52.9361C170.906 52.7731 170.554 52.558 170.293 52.2907L170.635 51.7334C170.85 51.9615 171.144 52.1506 171.515 52.3005C171.893 52.4504 172.301 52.5254 172.737 52.5254C173.317 52.5254 173.757 52.3983 174.057 52.1441C174.364 51.8833 174.517 51.5444 174.517 51.1272C174.517 50.8338 174.445 50.5829 174.302 50.3743C174.165 50.1592 173.93 49.9929 173.598 49.8756C173.265 49.7583 172.809 49.6996 172.229 49.6996H170.772L171.124 46.2676H174.869V46.8934H171.408L171.769 46.5512L171.466 49.4258L171.104 49.0738H172.385C173.076 49.0738 173.63 49.1586 174.048 49.3281C174.465 49.4975 174.765 49.7355 174.947 50.0418C175.136 50.3417 175.231 50.6937 175.231 51.0978C175.231 51.4824 175.139 51.8344 174.957 52.1538C174.774 52.4667 174.501 52.7144 174.136 52.8969C173.77 53.0795 173.308 53.1707 172.747 53.1707Z" fill="black"/>
<rect x="182.59" y="37.2231" width="24.4444" height="24.4444" fill="white" stroke="#E3E3E3" stroke-width="0.611111"/>
<path d="M207.035 37.2231H224.146C228.196 37.2231 231.479 40.5064 231.479 44.5565V61.6676H207.035V37.2231Z" fill="white" stroke="#E3E3E3" stroke-width="0.611111"/>
<path d="M215.309 42.5803C215.907 43.8502 217.017 44.923 217.509 46.2691C217.979 47.5545 218.897 48.7261 219.709 49.8246C220.114 50.372 220.778 51.3802 220.953 52.0245C221.085 52.5053 221.154 52.9149 221.509 53.2912C222.043 53.8567 221.81 54.6207 222.509 55.18" stroke="#FF6534" stroke-width="6" stroke-linecap="round"/>
<path d="M211.309 53.1802C212.518 52.2135 214.098 51.4584 215.398 50.5914C217.3 49.3231 219.394 48.4739 221.42 47.4248C222.935 46.6404 224.721 45.9097 226.309 45.3804" stroke="#FF6534" stroke-width="6" stroke-linecap="round"/>
<path d="M216.378 53.1707C215.83 53.1707 215.358 53.0925 214.96 52.9361C214.569 52.7796 214.266 52.5547 214.051 52.2614C213.842 51.9615 213.738 51.6095 213.738 51.2054C213.738 50.8143 213.839 50.4818 214.041 50.2081C214.249 49.9278 214.549 49.7127 214.94 49.5627C215.338 49.4128 215.817 49.3378 216.378 49.3378C216.932 49.3378 217.408 49.4128 217.805 49.5627C218.203 49.7127 218.506 49.9278 218.715 50.2081C218.93 50.4818 219.037 50.8143 219.037 51.2054C219.037 51.6095 218.93 51.9615 218.715 52.2614C218.499 52.5547 218.193 52.7796 217.795 52.9361C217.398 53.0925 216.925 53.1707 216.378 53.1707ZM216.378 52.5743C216.984 52.5743 217.456 52.4504 217.795 52.2027C218.141 51.955 218.314 51.6193 218.314 51.1956C218.314 50.7719 218.141 50.4395 217.795 50.1983C217.456 49.9506 216.984 49.8267 216.378 49.8267C215.771 49.8267 215.299 49.9506 214.96 50.1983C214.621 50.4395 214.451 50.7719 214.451 51.1956C214.451 51.6193 214.621 51.955 214.96 52.2027C215.299 52.4504 215.771 52.5743 216.378 52.5743ZM216.378 49.7387C215.869 49.7387 215.436 49.6703 215.077 49.5334C214.725 49.3965 214.455 49.2009 214.266 48.9467C214.077 48.686 213.982 48.3764 213.982 48.0178C213.982 47.6398 214.08 47.3171 214.275 47.0498C214.478 46.7761 214.758 46.5675 215.116 46.4241C215.475 46.2807 215.895 46.2089 216.378 46.2089C216.86 46.2089 217.28 46.2807 217.639 46.4241C218.004 46.5675 218.288 46.7761 218.49 47.0498C218.692 47.3171 218.793 47.6398 218.793 48.0178C218.793 48.3764 218.698 48.686 218.509 48.9467C218.32 49.2009 218.043 49.3965 217.678 49.5334C217.32 49.6703 216.886 49.7387 216.378 49.7387ZM216.378 49.2694C216.912 49.2694 217.329 49.1586 217.629 48.9369C217.929 48.7153 218.079 48.4187 218.079 48.0472C218.079 47.6561 217.923 47.3529 217.61 47.1378C217.303 46.9162 216.893 46.8054 216.378 46.8054C215.863 46.8054 215.452 46.9162 215.146 47.1378C214.839 47.3529 214.686 47.6528 214.686 48.0374C214.686 48.4155 214.833 48.7153 215.126 48.9369C215.426 49.1586 215.843 49.2694 216.378 49.2694ZM222.056 53.1707C221.56 53.1707 221.091 53.0925 220.648 52.9361C220.211 52.7731 219.859 52.558 219.592 52.2907L219.934 51.7334C220.155 51.9615 220.452 52.1506 220.824 52.3005C221.202 52.4504 221.612 52.5254 222.056 52.5254C222.623 52.5254 223.056 52.4015 223.356 52.1538C223.662 51.9061 223.816 51.5737 223.816 51.1565C223.816 50.7393 223.666 50.4069 223.366 50.1592C223.072 49.9115 222.606 49.7876 221.968 49.7876H221.479V49.2694L223.591 46.6196L223.688 46.8934H219.875V46.2676H224.275V46.7663L222.163 49.4161L221.821 49.1912H222.085C222.906 49.1912 223.519 49.3737 223.923 49.7387C224.334 50.1038 224.539 50.5731 224.539 51.1467C224.539 51.5313 224.448 51.8768 224.265 52.1832C224.083 52.4895 223.806 52.7307 223.434 52.9067C223.069 53.0827 222.61 53.1707 222.056 53.1707Z" fill="black"/>
<rect x="11.479" y="61.6675" width="24.4444" height="24.4444" fill="white" stroke="#E3E3E3" stroke-width="0.611111"/>
<path d="M22.4777 77.5564L25.4306 71.0248L25.6457 71.3377H21.4119L21.7737 70.9955V72.6186H21.0795V70.712H26.1053V71.2106L23.2404 77.5564H22.4777Z" fill="black"/>
<rect x="35.9233" y="61.6675" width="24.4444" height="24.4444" fill="white" stroke="#E3E3E3" stroke-width="0.611111"/>
<path d="M45.0334 77.5564V71.0053L45.3463 71.3377H43.4201V70.712H45.7374V77.5564H45.0334ZM49.5344 77.6151C49.0455 77.6151 48.5794 77.5368 48.1362 77.3804C47.6929 77.2174 47.3409 77.0023 47.0802 76.7351L47.4224 76.1777C47.6375 76.4059 47.9308 76.5949 48.3024 76.7448C48.6805 76.8948 49.0879 76.9697 49.5246 76.9697C50.1048 76.9697 50.5448 76.8426 50.8446 76.5884C51.151 76.3277 51.3042 75.9887 51.3042 75.5715C51.3042 75.2782 51.2325 75.0272 51.0891 74.8186C50.9522 74.6035 50.7175 74.4373 50.3851 74.32C50.0526 74.2026 49.5963 74.144 49.0162 74.144H47.5593L47.9113 70.712H51.6562V71.3377H48.1948L48.5566 70.9955L48.2535 73.8702L47.8917 73.5182H49.1726C49.8636 73.5182 50.4177 73.6029 50.8348 73.7724C51.252 73.9419 51.5519 74.1798 51.7344 74.4862C51.9234 74.786 52.018 75.138 52.018 75.5422C52.018 75.9268 51.9267 76.2788 51.7442 76.5982C51.5617 76.9111 51.2879 77.1588 50.9228 77.3413C50.5578 77.5238 50.095 77.6151 49.5344 77.6151Z" fill="black"/>
<rect x="60.3677" y="61.6675" width="24.4444" height="24.4444" fill="white" stroke="#E3E3E3" stroke-width="0.611111"/>
<rect x="84.8125" y="61.6675" width="24.4444" height="24.4444" fill="white" stroke="#E3E3E3" stroke-width="0.611111"/>
<path d="M94.7828 77.6151C94.2874 77.6151 93.8181 77.5368 93.3748 77.3804C92.9381 77.2174 92.5861 77.0023 92.3188 76.7351L92.661 76.1777C92.8826 76.4059 93.1792 76.5949 93.5508 76.7448C93.9289 76.8948 94.3395 76.9697 94.7828 76.9697C95.3499 76.9697 95.7834 76.8459 96.0832 76.5982C96.3896 76.3505 96.5428 76.018 96.5428 75.6008C96.5428 75.1837 96.3929 74.8512 96.093 74.6035C95.7997 74.3558 95.3336 74.232 94.6948 74.232H94.2059V73.7137L96.3179 71.064L96.4157 71.3377H92.6023V70.712H97.0023V71.2106L94.8903 73.8604L94.5481 73.6355H94.8121C95.6335 73.6355 96.2462 73.818 96.6503 74.1831C97.061 74.5481 97.2663 75.0174 97.2663 75.5911C97.2663 75.9757 97.1751 76.3211 96.9926 76.6275C96.8101 76.9339 96.533 77.1751 96.1615 77.3511C95.7964 77.5271 95.3369 77.6151 94.7828 77.6151ZM99.4512 77.5564V71.0053L99.7641 71.3377H97.8379V70.712H100.155V77.5564H99.4512Z" fill="black"/>
<rect x="109.257" y="61.6675" width="24.4444" height="24.4444" fill="white" stroke="#E3E3E3" stroke-width="0.611111"/>
<rect x="133.701" y="61.6675" width="24.4444" height="24.4444" fill="white" stroke="#E3E3E3" stroke-width="0.611111"/>
<rect x="158.146" y="61.6675" width="24.4444" height="24.4444" fill="white" stroke="#E3E3E3" stroke-width="0.611111"/>
<rect x="182.59" y="61.6675" width="24.4444" height="24.4444" fill="white" stroke="#E3E3E3" stroke-width="0.611111"/>
<path d="M190.261 77.5564L193.214 71.0248L193.429 71.3377H189.195L189.557 70.9955V72.6186H188.863V70.712H193.889V71.2106L191.024 77.5564H190.261ZM197.431 77.6151C196.825 77.6151 196.313 77.4814 195.896 77.2142C195.479 76.9404 195.163 76.5493 194.948 76.0408C194.733 75.5259 194.625 74.9099 194.625 74.1928C194.625 73.4171 194.756 72.7685 195.016 72.2471C195.284 71.7191 195.652 71.3214 196.121 71.0542C196.591 70.7869 197.135 70.6533 197.754 70.6533C198.06 70.6533 198.354 70.6826 198.634 70.7413C198.914 70.8 199.162 70.8945 199.377 71.0248L199.094 71.592C198.918 71.4746 198.716 71.3931 198.487 71.3475C198.259 71.2954 198.018 71.2693 197.764 71.2693C197.027 71.2693 196.437 71.504 195.994 71.9733C195.557 72.4426 195.339 73.1434 195.339 74.0755C195.339 74.2189 195.345 74.3982 195.359 74.6133C195.378 74.8219 195.417 75.0305 195.476 75.2391L195.231 75.0533C195.303 74.7143 195.443 74.4275 195.652 74.1928C195.86 73.9517 196.121 73.7691 196.434 73.6453C196.747 73.5214 197.089 73.4595 197.461 73.4595C197.917 73.4595 198.318 73.5442 198.663 73.7137C199.009 73.8832 199.279 74.1211 199.475 74.4275C199.671 74.7339 199.768 75.0957 199.768 75.5128C199.768 75.9365 199.667 76.3081 199.465 76.6275C199.263 76.9404 198.983 77.1848 198.624 77.3608C198.272 77.5303 197.875 77.6151 197.431 77.6151ZM197.402 77.0186C197.728 77.0186 198.015 76.96 198.263 76.8426C198.517 76.7188 198.716 76.546 198.859 76.3244C199.002 76.0962 199.074 75.8322 199.074 75.5324C199.074 75.0826 198.918 74.7241 198.605 74.4568C198.298 74.1896 197.881 74.056 197.353 74.056C197.001 74.056 196.695 74.1211 196.434 74.2515C196.173 74.3819 195.968 74.5611 195.818 74.7893C195.668 75.0109 195.593 75.2651 195.593 75.552C195.593 75.7997 195.662 76.0376 195.799 76.2657C195.935 76.4874 196.137 76.6699 196.405 76.8133C196.679 76.9502 197.011 77.0186 197.402 77.0186Z" fill="black"/>
<rect x="207.035" y="61.6675" width="24.4444" height="24.4444" fill="white" stroke="#E3E3E3" stroke-width="0.611111"/>
<path d="M216.658 77.6151C216.11 77.6151 215.638 77.5368 215.24 77.3804C214.849 77.224 214.546 76.9991 214.331 76.7057C214.122 76.4059 214.018 76.0539 214.018 75.6497C214.018 75.2586 214.119 74.9262 214.321 74.6524C214.53 74.3721 214.83 74.157 215.221 74.0071C215.618 73.8571 216.097 73.7822 216.658 73.7822C217.212 73.7822 217.688 73.8571 218.086 74.0071C218.483 74.157 218.786 74.3721 218.995 74.6524C219.21 74.9262 219.318 75.2586 219.318 75.6497C219.318 76.0539 219.21 76.4059 218.995 76.7057C218.78 76.9991 218.473 77.224 218.076 77.3804C217.678 77.5368 217.206 77.6151 216.658 77.6151ZM216.658 77.0186C217.264 77.0186 217.737 76.8948 218.076 76.6471C218.421 76.3994 218.594 76.0637 218.594 75.64C218.594 75.2162 218.421 74.8838 218.076 74.6426C217.737 74.3949 217.264 74.2711 216.658 74.2711C216.052 74.2711 215.579 74.3949 215.24 74.6426C214.901 74.8838 214.732 75.2162 214.732 75.64C214.732 76.0637 214.901 76.3994 215.24 76.6471C215.579 76.8948 216.052 77.0186 216.658 77.0186ZM216.658 74.1831C216.15 74.1831 215.716 74.1146 215.358 73.9777C215.006 73.8408 214.735 73.6453 214.546 73.3911C214.357 73.1303 214.262 72.8207 214.262 72.4622C214.262 72.0841 214.36 71.7614 214.556 71.4942C214.758 71.2204 215.038 71.0118 215.397 70.8684C215.755 70.725 216.176 70.6533 216.658 70.6533C217.14 70.6533 217.561 70.725 217.919 70.8684C218.284 71.0118 218.568 71.2204 218.77 71.4942C218.972 71.7614 219.073 72.0841 219.073 72.4622C219.073 72.8207 218.979 73.1303 218.79 73.3911C218.601 73.6453 218.324 73.8408 217.958 73.9777C217.6 74.1146 217.166 74.1831 216.658 74.1831ZM216.658 73.7137C217.193 73.7137 217.61 73.6029 217.91 73.3813C218.209 73.1597 218.359 72.8631 218.359 72.4915C218.359 72.1004 218.203 71.7973 217.89 71.5822C217.584 71.3605 217.173 71.2497 216.658 71.2497C216.143 71.2497 215.732 71.3605 215.426 71.5822C215.12 71.7973 214.966 72.0971 214.966 72.4817C214.966 72.8598 215.113 73.1597 215.406 73.3813C215.706 73.6029 216.124 73.7137 216.658 73.7137ZM223.099 77.6151C222.492 77.6151 221.981 77.4814 221.564 77.2142C221.146 76.9404 220.83 76.5493 220.615 76.0408C220.4 75.5259 220.292 74.9099 220.292 74.1928C220.292 73.4171 220.423 72.7685 220.684 72.2471C220.951 71.7191 221.319 71.3214 221.788 71.0542C222.258 70.7869 222.802 70.6533 223.421 70.6533C223.728 70.6533 224.021 70.6826 224.301 70.7413C224.582 70.8 224.829 70.8945 225.044 71.0248L224.761 71.592C224.585 71.4746 224.383 71.3931 224.155 71.3475C223.926 71.2954 223.685 71.2693 223.431 71.2693C222.694 71.2693 222.105 71.504 221.661 71.9733C221.225 72.4426 221.006 73.1434 221.006 74.0755C221.006 74.2189 221.013 74.3982 221.026 74.6133C221.045 74.8219 221.084 75.0305 221.143 75.2391L220.899 75.0533C220.97 74.7143 221.11 74.4275 221.319 74.1928C221.528 73.9517 221.788 73.7691 222.101 73.6453C222.414 73.5214 222.756 73.4595 223.128 73.4595C223.584 73.4595 223.985 73.5442 224.331 73.7137C224.676 73.8832 224.947 74.1211 225.142 74.4275C225.338 74.7339 225.436 75.0957 225.436 75.5128C225.436 75.9365 225.334 76.3081 225.132 76.6275C224.93 76.9404 224.65 77.1848 224.292 77.3608C223.94 77.5303 223.542 77.6151 223.099 77.6151ZM223.069 77.0186C223.395 77.0186 223.682 76.96 223.93 76.8426C224.184 76.7188 224.383 76.546 224.526 76.3244C224.67 76.0962 224.741 75.8322 224.741 75.5324C224.741 75.0826 224.585 74.7241 224.272 74.4568C223.966 74.1896 223.548 74.056 223.02 74.056C222.668 74.056 222.362 74.1211 222.101 74.2515C221.841 74.3819 221.635 74.5611 221.485 74.7893C221.335 75.0109 221.26 75.2651 221.26 75.552C221.26 75.7997 221.329 76.0376 221.466 76.2657C221.603 76.4874 221.805 76.6699 222.072 76.8133C222.346 76.9502 222.678 77.0186 223.069 77.0186Z" fill="black"/>
<path d="M11.479 86.1121H35.9234V110.557H18.8123C14.7622 110.557 11.479 107.273 11.479 103.223V86.1121Z" fill="white" stroke="#E3E3E3" stroke-width="0.611111"/>
<rect x="35.9233" y="86.1121" width="24.4444" height="24.4444" fill="white" stroke="#E3E3E3" stroke-width="0.611111"/>
<rect x="60.3677" y="86.1121" width="24.4444" height="24.4444" fill="white" stroke="#E3E3E3" stroke-width="0.611111"/>
<path d="M67.3543 102.001V101.502L70.1996 98.7156C70.4603 98.4614 70.6559 98.2398 70.7863 98.0508C70.9166 97.8552 71.0046 97.6727 71.0503 97.5032C71.0959 97.3337 71.1187 97.174 71.1187 97.0241C71.1187 96.6265 70.9818 96.3136 70.708 96.0854C70.4408 95.8573 70.0431 95.7432 69.5151 95.7432C69.111 95.7432 68.7525 95.8051 68.4396 95.929C68.1332 96.0528 67.8692 96.2451 67.6476 96.5059L67.1489 96.0756C67.4162 95.7628 67.7584 95.5216 68.1756 95.3521C68.5928 95.1826 69.0589 95.0979 69.5738 95.0979C70.0366 95.0979 70.4375 95.1728 70.7765 95.3228C71.1154 95.4662 71.3762 95.678 71.5587 95.9583C71.7477 96.2386 71.8423 96.5678 71.8423 96.9459C71.8423 97.1675 71.8097 97.3859 71.7445 97.601C71.6858 97.8161 71.575 98.0442 71.412 98.2854C71.2556 98.5201 71.0242 98.7873 70.7178 99.0872L68.1071 101.649L67.9116 101.375H72.1552V102.001H67.3543ZM75.7476 102.06C75.2196 102.06 74.7502 101.923 74.3396 101.649C73.9289 101.369 73.6062 100.971 73.3716 100.456C73.1369 99.9346 73.0196 99.3088 73.0196 98.5788C73.0196 97.8487 73.1369 97.2262 73.3716 96.7112C73.6062 96.1897 73.9289 95.7921 74.3396 95.5183C74.7502 95.238 75.2196 95.0979 75.7476 95.0979C76.2756 95.0979 76.7449 95.238 77.1556 95.5183C77.5662 95.7921 77.8889 96.1897 78.1236 96.7112C78.3648 97.2262 78.4853 97.8487 78.4853 98.5788C78.4853 99.3088 78.3648 99.9346 78.1236 100.456C77.8889 100.971 77.5662 101.369 77.1556 101.649C76.7449 101.923 76.2756 102.06 75.7476 102.06ZM75.7476 101.414C76.1517 101.414 76.5037 101.307 76.8036 101.092C77.1034 100.87 77.3381 100.551 77.5076 100.133C77.677 99.7097 77.7618 99.1915 77.7618 98.5788C77.7618 97.966 77.677 97.4511 77.5076 97.0339C77.3381 96.6102 77.1034 96.2908 76.8036 96.0756C76.5037 95.854 76.1517 95.7432 75.7476 95.7432C75.3565 95.7432 75.0077 95.854 74.7013 96.0756C74.395 96.2908 74.157 96.6102 73.9876 97.0339C73.8181 97.4511 73.7333 97.966 73.7333 98.5788C73.7333 99.1915 73.8181 99.7097 73.9876 100.133C74.157 100.551 74.395 100.87 74.7013 101.092C75.0077 101.307 75.3565 101.414 75.7476 101.414Z" fill="black"/>
<rect x="84.8125" y="86.1121" width="24.4444" height="24.4444" fill="white" stroke="#E3E3E3" stroke-width="0.611111"/>
<rect x="109.257" y="86.1121" width="24.4444" height="24.4444" fill="white" stroke="#E3E3E3" stroke-width="0.611111"/>
<path d="M115.767 100.202V99.6934L119.395 95.1565H120.177L116.579 99.6934L116.197 99.5761H121.702V100.202H115.767ZM119.629 102.001V100.202L119.649 99.5761V97.9921H120.333V102.001H119.629ZM124.491 102.06C124.002 102.06 123.536 101.981 123.092 101.825C122.649 101.662 122.297 101.447 122.036 101.18L122.379 100.622C122.594 100.85 122.887 101.039 123.259 101.189C123.637 101.339 124.044 101.414 124.481 101.414C125.061 101.414 125.501 101.287 125.801 101.033C126.107 100.772 126.26 100.433 126.26 100.016C126.26 99.7228 126.189 99.4718 126.045 99.2632C125.908 99.0481 125.674 98.8819 125.341 98.7645C125.009 98.6472 124.552 98.5885 123.972 98.5885H122.515L122.867 95.1565H126.612V95.7823H123.151L123.513 95.4401L123.21 98.3148L122.848 97.9628H124.129C124.82 97.9628 125.374 98.0475 125.791 98.217C126.208 98.3865 126.508 98.6244 126.691 98.9308C126.88 99.2306 126.974 99.5826 126.974 99.9868C126.974 100.371 126.883 100.723 126.7 101.043C126.518 101.356 126.244 101.603 125.879 101.786C125.514 101.968 125.051 102.06 124.491 102.06Z" fill="black"/>
<rect x="133.701" y="86.1121" width="24.4444" height="24.4444" fill="white" stroke="#E3E3E3" stroke-width="0.611111"/>
<path d="M143.779 102.06C143.29 102.06 142.824 101.981 142.381 101.825C141.938 101.662 141.586 101.447 141.325 101.18L141.667 100.622C141.882 100.85 142.176 101.039 142.547 101.189C142.925 101.339 143.333 101.414 143.769 101.414C144.35 101.414 144.79 101.287 145.089 101.033C145.396 100.772 145.549 100.433 145.549 100.016C145.549 99.7228 145.477 99.4718 145.334 99.2632C145.197 99.0481 144.962 98.8819 144.63 98.7645C144.297 98.6472 143.841 98.5885 143.261 98.5885H141.804L142.156 95.1565H145.901V95.7823H142.44L142.801 95.4401L142.498 98.3148L142.137 97.9628H143.417C144.108 97.9628 144.663 98.0475 145.08 98.217C145.497 98.3865 145.797 98.6244 145.979 98.9308C146.168 99.2306 146.263 99.5826 146.263 99.9868C146.263 100.371 146.172 100.723 145.989 101.043C145.807 101.356 145.533 101.603 145.168 101.786C144.803 101.968 144.34 102.06 143.779 102.06ZM148.349 102.001V95.4499L148.662 95.7823H146.736V95.1565H149.053V102.001H148.349Z" fill="black"/>
<rect x="158.146" y="86.1121" width="24.4444" height="24.4444" fill="white" stroke="#E3E3E3" stroke-width="0.611111"/>
<path d="M167.855 102.06C167.249 102.06 166.737 101.926 166.32 101.659C165.903 101.385 165.587 100.994 165.372 100.485C165.157 99.9705 165.049 99.3545 165.049 98.6374C165.049 97.8617 165.18 97.2131 165.44 96.6916C165.708 96.1636 166.076 95.766 166.545 95.4988C167.014 95.2315 167.559 95.0979 168.178 95.0979C168.484 95.0979 168.778 95.1272 169.058 95.1859C169.338 95.2445 169.586 95.3391 169.801 95.4694L169.518 96.0365C169.342 95.9192 169.14 95.8377 168.911 95.7921C168.683 95.7399 168.442 95.7139 168.188 95.7139C167.451 95.7139 166.861 95.9485 166.418 96.4179C165.981 96.8872 165.763 97.5879 165.763 98.5201C165.763 98.6635 165.769 98.8428 165.782 99.0579C165.802 99.2665 165.841 99.4751 165.9 99.6836L165.655 99.4979C165.727 99.1589 165.867 98.8721 166.076 98.6374C166.284 98.3962 166.545 98.2137 166.858 98.0899C167.171 97.966 167.513 97.9041 167.885 97.9041C168.341 97.9041 168.742 97.9888 169.087 98.1583C169.433 98.3278 169.703 98.5657 169.899 98.8721C170.094 99.1785 170.192 99.5402 170.192 99.9574C170.192 100.381 170.091 100.753 169.889 101.072C169.687 101.385 169.407 101.629 169.048 101.805C168.696 101.975 168.299 102.06 167.855 102.06ZM167.826 101.463C168.152 101.463 168.439 101.405 168.686 101.287C168.941 101.163 169.14 100.991 169.283 100.769C169.426 100.541 169.498 100.277 169.498 99.977C169.498 99.5272 169.342 99.1687 169.029 98.9014C168.722 98.6342 168.305 98.5005 167.777 98.5005C167.425 98.5005 167.119 98.5657 166.858 98.6961C166.597 98.8265 166.392 99.0057 166.242 99.2339C166.092 99.4555 166.017 99.7097 166.017 99.9965C166.017 100.244 166.086 100.482 166.222 100.71C166.359 100.932 166.561 101.114 166.829 101.258C167.102 101.395 167.435 101.463 167.826 101.463ZM173.735 102.06C173.207 102.06 172.738 101.923 172.327 101.649C171.917 101.369 171.594 100.971 171.359 100.456C171.125 99.9346 171.007 99.3088 171.007 98.5788C171.007 97.8487 171.125 97.2262 171.359 96.7112C171.594 96.1897 171.917 95.7921 172.327 95.5183C172.738 95.238 173.207 95.0979 173.735 95.0979C174.263 95.0979 174.733 95.238 175.143 95.5183C175.554 95.7921 175.877 96.1897 176.111 96.7112C176.353 97.2262 176.473 97.8487 176.473 98.5788C176.473 99.3088 176.353 99.9346 176.111 100.456C175.877 100.971 175.554 101.369 175.143 101.649C174.733 101.923 174.263 102.06 173.735 102.06ZM173.735 101.414C174.14 101.414 174.492 101.307 174.791 101.092C175.091 100.87 175.326 100.551 175.495 100.133C175.665 99.7097 175.75 99.1915 175.75 98.5788C175.75 97.966 175.665 97.4511 175.495 97.0339C175.326 96.6102 175.091 96.2908 174.791 96.0756C174.492 95.854 174.14 95.7432 173.735 95.7432C173.344 95.7432 172.996 95.854 172.689 96.0756C172.383 96.2908 172.145 96.6102 171.975 97.0339C171.806 97.4511 171.721 97.966 171.721 98.5788C171.721 99.1915 171.806 99.7097 171.975 100.133C172.145 100.551 172.383 100.87 172.689 101.092C172.996 101.307 173.344 101.414 173.735 101.414Z" fill="black"/>
<rect x="182.59" y="86.1121" width="24.4444" height="24.4444" fill="white" stroke="#E3E3E3" stroke-width="0.611111"/>
<path d="M190.466 102.001L193.419 95.4694L193.634 95.7823H189.401L189.762 95.4401V97.0632H189.068V95.1565H194.094V95.6552L191.229 102.001H190.466ZM197.001 102.06C196.512 102.06 196.046 101.981 195.603 101.825C195.159 101.662 194.807 101.447 194.547 101.18L194.889 100.622C195.104 100.85 195.397 101.039 195.769 101.189C196.147 101.339 196.554 101.414 196.991 101.414C197.571 101.414 198.011 101.287 198.311 101.033C198.618 100.772 198.771 100.433 198.771 100.016C198.771 99.7228 198.699 99.4718 198.556 99.2632C198.419 99.0481 198.184 98.8819 197.852 98.7645C197.519 98.6472 197.063 98.5885 196.483 98.5885H195.026L195.378 95.1565H199.123V95.7823H195.661L196.023 95.4401L195.72 98.3148L195.358 97.9628H196.639C197.33 97.9628 197.884 98.0475 198.301 98.217C198.719 98.3865 199.018 98.6244 199.201 98.9308C199.39 99.2306 199.484 99.5826 199.484 99.9868C199.484 100.371 199.393 100.723 199.211 101.043C199.028 101.356 198.754 101.603 198.389 101.786C198.024 101.968 197.562 102.06 197.001 102.06Z" fill="black"/>
<path d="M207.035 86.1121H231.479V103.223C231.479 107.273 228.196 110.557 224.146 110.557H207.035V86.1121Z" fill="white" stroke="#E3E3E3" stroke-width="0.611111"/>
<path d="M11.479 125.223C11.479 121.173 14.7622 117.89 18.8123 117.89H35.9234V142.334H11.479V125.223Z" fill="white" stroke="#E3E3E3" stroke-width="0.611111"/>
<rect x="35.9233" y="117.89" width="24.4444" height="24.4444" fill="white" stroke="#E3E3E3" stroke-width="0.611111"/>
<path d="M44.2125 133.779V127.227L44.5254 127.56H42.5992V126.934H44.9165V133.779H44.2125ZM49.3588 133.837C48.7526 133.837 48.2409 133.704 47.8237 133.436C47.4065 133.163 47.0904 132.771 46.8753 132.263C46.6602 131.748 46.5526 131.132 46.5526 130.415C46.5526 129.639 46.683 128.991 46.9437 128.469C47.211 127.941 47.5793 127.544 48.0486 127.276C48.5179 127.009 49.0622 126.875 49.6815 126.875C49.9879 126.875 50.2812 126.905 50.5615 126.963C50.8418 127.022 51.0895 127.117 51.3046 127.247L51.0211 127.814C50.8451 127.697 50.643 127.615 50.4148 127.57C50.1867 127.518 49.9455 127.491 49.6913 127.491C48.9547 127.491 48.3648 127.726 47.9215 128.195C47.4848 128.665 47.2664 129.366 47.2664 130.298C47.2664 130.441 47.2729 130.62 47.2859 130.835C47.3055 131.044 47.3446 131.253 47.4033 131.461L47.1588 131.275C47.2305 130.936 47.3707 130.65 47.5793 130.415C47.7879 130.174 48.0486 129.991 48.3615 129.867C48.6744 129.744 49.0166 129.682 49.3882 129.682C49.8445 129.682 50.2453 129.766 50.5908 129.936C50.9363 130.105 51.2068 130.343 51.4024 130.65C51.5979 130.956 51.6957 131.318 51.6957 131.735C51.6957 132.159 51.5947 132.53 51.3926 132.85C51.1905 133.163 50.9102 133.407 50.5517 133.583C50.1997 133.752 49.8021 133.837 49.3588 133.837ZM49.3295 133.241C49.6554 133.241 49.9422 133.182 50.1899 133.065C50.4442 132.941 50.643 132.768 50.7864 132.547C50.9298 132.318 51.0015 132.054 51.0015 131.755C51.0015 131.305 50.8451 130.946 50.5322 130.679C50.2258 130.412 49.8086 130.278 49.2806 130.278C48.9286 130.278 48.6222 130.343 48.3615 130.474C48.1008 130.604 47.8954 130.783 47.7455 131.011C47.5956 131.233 47.5206 131.487 47.5206 131.774C47.5206 132.022 47.5891 132.26 47.7259 132.488C47.8628 132.71 48.0649 132.892 48.3322 133.035C48.6059 133.172 48.9384 133.241 49.3295 133.241Z" fill="black"/>
<rect x="60.3677" y="117.89" width="24.4444" height="24.4444" fill="white" stroke="#E3E3E3" stroke-width="0.611111"/>
<rect x="84.8125" y="117.89" width="24.4444" height="24.4444" fill="white" stroke="#E3E3E3" stroke-width="0.611111"/>
<rect x="109.257" y="117.89" width="24.4444" height="24.4444" fill="white" stroke="#E3E3E3" stroke-width="0.611111"/>
<path d="M116.257 131.979V131.471L119.885 126.934H120.667L117.069 131.471L116.688 131.354H122.193V131.979H116.257ZM120.12 133.779V131.979L120.139 131.354V129.77H120.824V133.779H120.12ZM122.693 133.779V133.28L125.538 130.493C125.799 130.239 125.995 130.017 126.125 129.828C126.255 129.633 126.343 129.45 126.389 129.281C126.435 129.111 126.457 128.952 126.457 128.802C126.457 128.404 126.321 128.091 126.047 127.863C125.78 127.635 125.382 127.521 124.854 127.521C124.45 127.521 124.091 127.583 123.778 127.707C123.472 127.83 123.208 128.023 122.986 128.283L122.488 127.853C122.755 127.54 123.097 127.299 123.514 127.13C123.932 126.96 124.398 126.875 124.913 126.875C125.375 126.875 125.776 126.95 126.115 127.1C126.454 127.244 126.715 127.456 126.897 127.736C127.087 128.016 127.181 128.345 127.181 128.723C127.181 128.945 127.148 129.163 127.083 129.379C127.025 129.594 126.914 129.822 126.751 130.063C126.594 130.298 126.363 130.565 126.057 130.865L123.446 133.427L123.25 133.153H127.494V133.779H122.693Z" fill="black"/>
<rect x="133.701" y="117.89" width="24.4444" height="24.4444" fill="white" stroke="#E3E3E3" stroke-width="0.611111"/>
<path d="M142.595 133.837C142.106 133.837 141.64 133.759 141.197 133.603C140.754 133.44 140.402 133.224 140.141 132.957L140.483 132.4C140.698 132.628 140.992 132.817 141.363 132.967C141.741 133.117 142.149 133.192 142.585 133.192C143.165 133.192 143.605 133.065 143.905 132.811C144.212 132.55 144.365 132.211 144.365 131.794C144.365 131.5 144.293 131.249 144.15 131.041C144.013 130.826 143.778 130.659 143.446 130.542C143.113 130.425 142.657 130.366 142.077 130.366H140.62L140.972 126.934H144.717V127.56H141.256L141.617 127.218L141.314 130.092L140.952 129.74H142.233C142.924 129.74 143.478 129.825 143.896 129.995C144.313 130.164 144.613 130.402 144.795 130.708C144.984 131.008 145.079 131.36 145.079 131.764C145.079 132.149 144.987 132.501 144.805 132.82C144.622 133.133 144.349 133.381 143.984 133.563C143.619 133.746 143.156 133.837 142.595 133.837ZM148.573 133.837C148.026 133.837 147.553 133.759 147.156 133.603C146.764 133.446 146.461 133.221 146.246 132.928C146.038 132.628 145.933 132.276 145.933 131.872C145.933 131.481 146.034 131.148 146.236 130.875C146.445 130.594 146.745 130.379 147.136 130.229C147.534 130.079 148.013 130.004 148.573 130.004C149.127 130.004 149.603 130.079 150.001 130.229C150.398 130.379 150.702 130.594 150.91 130.875C151.125 131.148 151.233 131.481 151.233 131.872C151.233 132.276 151.125 132.628 150.91 132.928C150.695 133.221 150.389 133.446 149.991 133.603C149.593 133.759 149.121 133.837 148.573 133.837ZM148.573 133.241C149.18 133.241 149.652 133.117 149.991 132.869C150.337 132.622 150.509 132.286 150.509 131.862C150.509 131.438 150.337 131.106 149.991 130.865C149.652 130.617 149.18 130.493 148.573 130.493C147.967 130.493 147.494 130.617 147.156 130.865C146.817 131.106 146.647 131.438 146.647 131.862C146.647 132.286 146.817 132.622 147.156 132.869C147.494 133.117 147.967 133.241 148.573 133.241ZM148.573 130.405C148.065 130.405 147.631 130.337 147.273 130.2C146.921 130.063 146.65 129.867 146.461 129.613C146.272 129.352 146.178 129.043 146.178 128.684C146.178 128.306 146.276 127.984 146.471 127.716C146.673 127.443 146.953 127.234 147.312 127.091C147.67 126.947 148.091 126.875 148.573 126.875C149.056 126.875 149.476 126.947 149.835 127.091C150.2 127.234 150.483 127.443 150.685 127.716C150.887 127.984 150.988 128.306 150.988 128.684C150.988 129.043 150.894 129.352 150.705 129.613C150.516 129.867 150.239 130.063 149.874 130.2C149.515 130.337 149.082 130.405 148.573 130.405ZM148.573 129.936C149.108 129.936 149.525 129.825 149.825 129.603C150.125 129.382 150.275 129.085 150.275 128.714C150.275 128.323 150.118 128.019 149.805 127.804C149.499 127.583 149.088 127.472 148.573 127.472C148.058 127.472 147.648 127.583 147.341 127.804C147.035 128.019 146.882 128.319 146.882 128.704C146.882 129.082 147.028 129.382 147.322 129.603C147.622 129.825 148.039 129.936 148.573 129.936Z" fill="black"/>
<rect x="158.146" y="117.89" width="24.4444" height="24.4444" fill="white" stroke="#E3E3E3" stroke-width="0.611111"/>
<rect x="182.59" y="117.89" width="24.4444" height="24.4444" fill="white" stroke="#E3E3E3" stroke-width="0.611111"/>
<path d="M190.428 133.779L193.381 127.247L193.596 127.56H189.362L189.724 127.218V128.841H189.03V126.934H194.056V127.433L191.191 133.779H190.428ZM196.941 133.837C196.445 133.837 195.976 133.759 195.533 133.603C195.096 133.44 194.744 133.224 194.477 132.957L194.819 132.4C195.041 132.628 195.337 132.817 195.709 132.967C196.087 133.117 196.498 133.192 196.941 133.192C197.508 133.192 197.941 133.068 198.241 132.82C198.548 132.573 198.701 132.24 198.701 131.823C198.701 131.406 198.551 131.073 198.251 130.826C197.958 130.578 197.492 130.454 196.853 130.454H196.364V129.936L198.476 127.286L198.574 127.56H194.76V126.934H199.16V127.433L197.048 130.083L196.706 129.858H196.97C197.792 129.858 198.404 130.04 198.808 130.405C199.219 130.77 199.424 131.24 199.424 131.813C199.424 132.198 199.333 132.543 199.151 132.85C198.968 133.156 198.691 133.397 198.32 133.573C197.955 133.749 197.495 133.837 196.941 133.837Z" fill="black"/>
<path d="M207.035 117.89H224.146C228.196 117.89 231.479 121.173 231.479 125.223V142.334H207.035V117.89Z" fill="white" stroke="#E3E3E3" stroke-width="0.611111"/>
<path d="M216.368 133.837C215.821 133.837 215.348 133.759 214.95 133.603C214.559 133.446 214.256 133.221 214.041 132.928C213.832 132.628 213.728 132.276 213.728 131.872C213.728 131.481 213.829 131.148 214.031 130.875C214.24 130.594 214.54 130.379 214.931 130.229C215.328 130.079 215.808 130.004 216.368 130.004C216.922 130.004 217.398 130.079 217.796 130.229C218.193 130.379 218.496 130.594 218.705 130.875C218.92 131.148 219.028 131.481 219.028 131.872C219.028 132.276 218.92 132.628 218.705 132.928C218.49 133.221 218.184 133.446 217.786 133.603C217.388 133.759 216.916 133.837 216.368 133.837ZM216.368 133.241C216.974 133.241 217.447 133.117 217.786 132.869C218.131 132.622 218.304 132.286 218.304 131.862C218.304 131.438 218.131 131.106 217.786 130.865C217.447 130.617 216.974 130.493 216.368 130.493C215.762 130.493 215.289 130.617 214.95 130.865C214.611 131.106 214.442 131.438 214.442 131.862C214.442 132.286 214.611 132.622 214.95 132.869C215.289 133.117 215.762 133.241 216.368 133.241ZM216.368 130.405C215.86 130.405 215.426 130.337 215.068 130.2C214.716 130.063 214.445 129.867 214.256 129.613C214.067 129.352 213.973 129.043 213.973 128.684C213.973 128.306 214.07 127.984 214.266 127.716C214.468 127.443 214.748 127.234 215.107 127.091C215.465 126.947 215.886 126.875 216.368 126.875C216.85 126.875 217.271 126.947 217.629 127.091C217.994 127.234 218.278 127.443 218.48 127.716C218.682 127.984 218.783 128.306 218.783 128.684C218.783 129.043 218.689 129.352 218.5 129.613C218.311 129.867 218.034 130.063 217.669 130.2C217.31 130.337 216.877 130.405 216.368 130.405ZM216.368 129.936C216.903 129.936 217.32 129.825 217.62 129.603C217.92 129.382 218.069 129.085 218.069 128.714C218.069 128.323 217.913 128.019 217.6 127.804C217.294 127.583 216.883 127.472 216.368 127.472C215.853 127.472 215.442 127.583 215.136 127.804C214.83 128.019 214.677 128.319 214.677 128.704C214.677 129.082 214.823 129.382 215.117 129.603C215.416 129.825 215.834 129.936 216.368 129.936ZM222.163 133.837C221.674 133.837 221.208 133.759 220.765 133.603C220.322 133.44 219.97 133.224 219.709 132.957L220.051 132.4C220.266 132.628 220.56 132.817 220.931 132.967C221.309 133.117 221.717 133.192 222.154 133.192C222.734 133.192 223.174 133.065 223.474 132.811C223.78 132.55 223.933 132.211 223.933 131.794C223.933 131.5 223.861 131.249 223.718 131.041C223.581 130.826 223.346 130.659 223.014 130.542C222.682 130.425 222.225 130.366 221.645 130.366H220.188L220.54 126.934H224.285V127.56H220.824L221.186 127.218L220.882 130.092L220.521 129.74H221.802C222.493 129.74 223.047 129.825 223.464 129.995C223.881 130.164 224.181 130.402 224.363 130.708C224.552 131.008 224.647 131.36 224.647 131.764C224.647 132.149 224.556 132.501 224.373 132.82C224.191 133.133 223.917 133.381 223.552 133.563C223.187 133.746 222.724 133.837 222.163 133.837Z" fill="black"/>
<rect x="11.479" y="142.334" width="24.4444" height="24.4444" fill="white" stroke="#E3E3E3" stroke-width="0.611111"/>
<path d="M23.3063 151.32C23.9126 151.32 24.4243 151.457 24.8415 151.731C25.2586 151.998 25.5748 152.386 25.7899 152.894C26.005 153.403 26.1126 154.019 26.1126 154.742C26.1126 155.511 25.9789 156.16 25.7117 156.688C25.4509 157.216 25.0859 157.614 24.6166 157.881C24.1472 158.148 23.6029 158.282 22.9837 158.282C22.6773 158.282 22.384 158.252 22.1037 158.194C21.8299 158.135 21.5822 158.041 21.3606 157.91L21.6441 157.343C21.8201 157.46 22.0222 157.545 22.2503 157.597C22.485 157.643 22.7262 157.666 22.9739 157.666C23.7105 157.666 24.2972 157.431 24.7339 156.962C25.1772 156.492 25.3988 155.792 25.3988 154.86C25.3988 154.71 25.389 154.53 25.3695 154.322C25.3564 154.113 25.3206 153.905 25.2619 153.696L25.5063 153.882C25.4412 154.221 25.301 154.511 25.0859 154.752C24.8773 154.987 24.6166 155.166 24.3037 155.29C23.9973 155.414 23.6551 155.476 23.277 155.476C22.8272 155.476 22.4263 155.391 22.0743 155.221C21.7289 155.052 21.4583 154.814 21.2628 154.508C21.0672 154.201 20.9695 153.839 20.9695 153.422C20.9695 152.992 21.0705 152.62 21.2726 152.308C21.4746 151.995 21.7517 151.754 22.1037 151.584C22.4622 151.408 22.8631 151.32 23.3063 151.32ZM23.3357 151.916C23.0097 151.916 22.7197 151.978 22.4655 152.102C22.2177 152.22 22.0222 152.389 21.8788 152.611C21.7354 152.832 21.6637 153.096 21.6637 153.403C21.6637 153.852 21.8169 154.211 22.1232 154.478C22.4361 154.746 22.8566 154.879 23.3846 154.879C23.7366 154.879 24.0429 154.814 24.3037 154.684C24.5709 154.553 24.7763 154.374 24.9197 154.146C25.0696 153.918 25.1446 153.663 25.1446 153.383C25.1446 153.129 25.0761 152.891 24.9392 152.669C24.8023 152.448 24.6003 152.268 24.333 152.132C24.0657 151.988 23.7333 151.916 23.3357 151.916Z" fill="black"/>
<rect x="35.9233" y="142.334" width="24.4444" height="24.4444" fill="white" stroke="#E3E3E3" stroke-width="0.611111"/>
<path d="M45.043 158.223V151.672L45.3559 152.004H43.4296V151.379H45.747V158.223H45.043ZM49.4266 158.282C48.9312 158.282 48.4619 158.204 48.0186 158.047C47.5819 157.884 47.2299 157.669 46.9626 157.402L47.3048 156.844C47.5265 157.073 47.8231 157.262 48.1946 157.412C48.5727 157.562 48.9834 157.636 49.4266 157.636C49.9937 157.636 50.4272 157.513 50.7271 157.265C51.0334 157.017 51.1866 156.685 51.1866 156.268C51.1866 155.85 51.0367 155.518 50.7368 155.27C50.4435 155.023 49.9774 154.899 49.3386 154.899H48.8497V154.38L50.9617 151.731L51.0595 152.004H47.2462V151.379H51.6462V151.877L49.5342 154.527L49.192 154.302H49.456C50.2773 154.302 50.89 154.485 51.2942 154.85C51.7048 155.215 51.9102 155.684 51.9102 156.258C51.9102 156.642 51.8189 156.988 51.6364 157.294C51.4539 157.601 51.1768 157.842 50.8053 158.018C50.4402 158.194 49.9807 158.282 49.4266 158.282Z" fill="black"/>
<rect x="60.3677" y="142.334" width="24.4444" height="24.4444" fill="white" stroke="#E3E3E3" stroke-width="0.611111"/>
<path d="M68.1487 158.223V157.724L70.994 154.938C71.2548 154.684 71.4503 154.462 71.5807 154.273C71.7111 154.077 71.7991 153.895 71.8447 153.725C71.8903 153.556 71.9131 153.396 71.9131 153.246C71.9131 152.849 71.7763 152.536 71.5025 152.308C71.2352 152.079 70.8376 151.965 70.3096 151.965C69.9054 151.965 69.5469 152.027 69.234 152.151C68.9277 152.275 68.6637 152.467 68.442 152.728L67.9434 152.298C68.2106 151.985 68.5528 151.744 68.97 151.574C69.3872 151.405 69.8533 151.32 70.3683 151.32C70.8311 151.32 71.232 151.395 71.5709 151.545C71.9099 151.688 72.1706 151.9 72.3531 152.18C72.5422 152.461 72.6367 152.79 72.6367 153.168C72.6367 153.39 72.6041 153.608 72.5389 153.823C72.4803 154.038 72.3694 154.266 72.2065 154.508C72.05 154.742 71.8186 155.01 71.5123 155.309L68.9016 157.871L68.706 157.597H72.9496V158.223H68.1487ZM75.026 158.223V151.672L75.3389 152.004H73.4127V151.379H75.73V158.223H75.026Z" fill="black"/>
<rect x="84.8125" y="142.334" width="24.4444" height="24.4444" fill="white" stroke="#E3E3E3" stroke-width="0.611111"/>
<rect x="109.257" y="142.334" width="24.4444" height="24.4444" fill="white" stroke="#E3E3E3" stroke-width="0.611111"/>
<path d="M115.861 156.424V155.916L119.489 151.379H120.271L116.673 155.916L116.291 155.798H121.796V156.424H115.861ZM119.723 158.223V156.424L119.743 155.798V154.214H120.427V158.223H119.723ZM125.139 158.282C124.592 158.282 124.119 158.204 123.722 158.047C123.33 157.891 123.027 157.666 122.812 157.372C122.604 157.073 122.499 156.721 122.499 156.316C122.499 155.925 122.6 155.593 122.802 155.319C123.011 155.039 123.311 154.824 123.702 154.674C124.1 154.524 124.579 154.449 125.139 154.449C125.693 154.449 126.169 154.524 126.567 154.674C126.965 154.824 127.268 155.039 127.476 155.319C127.691 155.593 127.799 155.925 127.799 156.316C127.799 156.721 127.691 157.073 127.476 157.372C127.261 157.666 126.955 157.891 126.557 158.047C126.159 158.204 125.687 158.282 125.139 158.282ZM125.139 157.685C125.746 157.685 126.218 157.562 126.557 157.314C126.903 157.066 127.075 156.73 127.075 156.307C127.075 155.883 126.903 155.551 126.557 155.309C126.218 155.062 125.746 154.938 125.139 154.938C124.533 154.938 124.061 155.062 123.722 155.309C123.383 155.551 123.213 155.883 123.213 156.307C123.213 156.73 123.383 157.066 123.722 157.314C124.061 157.562 124.533 157.685 125.139 157.685ZM125.139 154.85C124.631 154.85 124.197 154.781 123.839 154.644C123.487 154.508 123.216 154.312 123.027 154.058C122.838 153.797 122.744 153.487 122.744 153.129C122.744 152.751 122.842 152.428 123.037 152.161C123.239 151.887 123.519 151.679 123.878 151.535C124.237 151.392 124.657 151.32 125.139 151.32C125.622 151.32 126.042 151.392 126.401 151.535C126.766 151.679 127.049 151.887 127.251 152.161C127.453 152.428 127.554 152.751 127.554 153.129C127.554 153.487 127.46 153.797 127.271 154.058C127.082 154.312 126.805 154.508 126.44 154.644C126.081 154.781 125.648 154.85 125.139 154.85ZM125.139 154.38C125.674 154.38 126.091 154.27 126.391 154.048C126.691 153.826 126.841 153.53 126.841 153.158C126.841 152.767 126.684 152.464 126.371 152.249C126.065 152.027 125.654 151.916 125.139 151.916C124.624 151.916 124.214 152.027 123.907 152.249C123.601 152.464 123.448 152.764 123.448 153.148C123.448 153.527 123.594 153.826 123.888 154.048C124.188 154.27 124.605 154.38 125.139 154.38Z" fill="black"/>
<rect x="133.701" y="142.334" width="24.4444" height="24.4444" fill="white" stroke="#E3E3E3" stroke-width="0.611111"/>
<rect x="158.146" y="142.334" width="24.4444" height="24.4444" fill="white" stroke="#E3E3E3" stroke-width="0.611111"/>
<rect x="182.59" y="142.334" width="24.4444" height="24.4444" fill="white" stroke="#E3E3E3" stroke-width="0.611111"/>
<path d="M190.232 158.223L193.185 151.692L193.4 152.004H189.167L189.528 151.662V153.285H188.834V151.379H193.86V151.877L190.995 158.223H190.232ZM194.03 156.424V155.916L197.658 151.379H198.44L194.842 155.916L194.461 155.798H199.966V156.424H194.03ZM197.893 158.223V156.424L197.912 155.798V154.214H198.597V158.223H197.893Z" fill="black"/>
<rect x="207.035" y="142.334" width="24.4444" height="24.4444" fill="white" stroke="#E3E3E3" stroke-width="0.611111"/>
<path d="M11.479 166.779H35.9234V191.223H18.8123C14.7622 191.223 11.479 187.94 11.479 183.89V166.779Z" fill="white" stroke="#E3E3E3" stroke-width="0.611111"/>
<rect x="35.9233" y="166.779" width="24.4444" height="24.4444" fill="white" stroke="#E3E3E3" stroke-width="0.611111"/>
<rect x="60.3677" y="166.779" width="24.4444" height="24.4444" fill="white" stroke="#E3E3E3" stroke-width="0.611111"/>
<path d="M66.9144 182.667V182.169L69.7597 179.382C70.0204 179.128 70.216 178.906 70.3464 178.717C70.4767 178.522 70.5647 178.339 70.6104 178.17C70.656 178 70.6788 177.841 70.6788 177.691C70.6788 177.293 70.5419 176.98 70.2682 176.752C70.0009 176.524 69.6033 176.41 69.0753 176.41C68.6711 176.41 68.3126 176.472 67.9997 176.595C67.6933 176.719 67.4293 176.912 67.2077 177.172L66.709 176.742C66.9763 176.429 67.3185 176.188 67.7357 176.019C68.1529 175.849 68.619 175.764 69.1339 175.764C69.5967 175.764 69.9976 175.839 70.3366 175.989C70.6756 176.133 70.9363 176.345 71.1188 176.625C71.3079 176.905 71.4024 177.234 71.4024 177.612C71.4024 177.834 71.3698 178.052 71.3046 178.267C71.2459 178.483 71.1351 178.711 70.9722 178.952C70.8157 179.187 70.5843 179.454 70.2779 179.754L67.6673 182.315L67.4717 182.042H71.7153V182.667H66.9144ZM72.4717 182.667V182.169L75.317 179.382C75.5777 179.128 75.7733 178.906 75.9037 178.717C76.034 178.522 76.122 178.339 76.1677 178.17C76.2133 178 76.2361 177.841 76.2361 177.691C76.2361 177.293 76.0992 176.98 75.8254 176.752C75.5582 176.524 75.1606 176.41 74.6326 176.41C74.2284 176.41 73.8699 176.472 73.557 176.595C73.2506 176.719 72.9866 176.912 72.765 177.172L72.2663 176.742C72.5336 176.429 72.8758 176.188 73.293 176.019C73.7102 175.849 74.1763 175.764 74.6912 175.764C75.154 175.764 75.5549 175.839 75.8939 175.989C76.2329 176.133 76.4936 176.345 76.6761 176.625C76.8651 176.905 76.9597 177.234 76.9597 177.612C76.9597 177.834 76.9271 178.052 76.8619 178.267C76.8032 178.483 76.6924 178.711 76.5294 178.952C76.373 179.187 76.1416 179.454 75.8352 179.754L73.2246 182.315L73.029 182.042H77.2726V182.667H72.4717Z" fill="black"/>
<rect x="84.8125" y="166.779" width="24.4444" height="24.4444" fill="white" stroke="#E3E3E3" stroke-width="0.611111"/>
<path d="M93.5103 182.726C93.0149 182.726 92.5455 182.648 92.1023 182.491C91.6655 182.329 91.3135 182.113 91.0463 181.846L91.3885 181.289C91.6101 181.517 91.9067 181.706 92.2783 181.856C92.6564 182.006 93.067 182.081 93.5103 182.081C94.0774 182.081 94.5109 181.957 94.8107 181.709C95.1171 181.462 95.2703 181.129 95.2703 180.712C95.2703 180.295 95.1204 179.962 94.8205 179.715C94.5272 179.467 94.0611 179.343 93.4223 179.343H92.9334V178.825L95.0454 176.175L95.1432 176.449H91.3298V175.823H95.7298V176.322L93.6178 178.971L93.2756 178.747H93.5396C94.3609 178.747 94.9737 178.929 95.3778 179.294C95.7885 179.659 95.9938 180.129 95.9938 180.702C95.9938 181.087 95.9026 181.432 95.7201 181.739C95.5375 182.045 95.2605 182.286 94.8889 182.462C94.5239 182.638 94.0644 182.726 93.5103 182.726ZM98.0644 182.667L101.017 176.136L101.232 176.449H96.9986L97.3604 176.107V177.73H96.6661V175.823H101.692V176.322L98.827 182.667H98.0644Z" fill="black"/>
<rect x="109.257" y="166.779" width="24.4444" height="24.4444" fill="white" stroke="#E3E3E3" stroke-width="0.611111"/>
<rect x="133.701" y="166.779" width="24.4444" height="24.4444" fill="white" stroke="#E3E3E3" stroke-width="0.611111"/>
<path d="M142.976 182.726C142.487 182.726 142.021 182.648 141.578 182.491C141.134 182.329 140.782 182.113 140.522 181.846L140.864 181.289C141.079 181.517 141.372 181.706 141.744 181.856C142.122 182.006 142.529 182.081 142.966 182.081C143.546 182.081 143.986 181.954 144.286 181.699C144.592 181.439 144.746 181.1 144.746 180.683C144.746 180.389 144.674 180.138 144.53 179.93C144.394 179.715 144.159 179.548 143.826 179.431C143.494 179.314 143.038 179.255 142.458 179.255H141.001L141.353 175.823H145.098V176.449H141.636L141.998 176.107L141.695 178.981L141.333 178.629H142.614C143.305 178.629 143.859 178.714 144.276 178.883C144.693 179.053 144.993 179.291 145.176 179.597C145.365 179.897 145.459 180.249 145.459 180.653C145.459 181.038 145.368 181.39 145.186 181.709C145.003 182.022 144.729 182.27 144.364 182.452C143.999 182.635 143.536 182.726 142.976 182.726ZM149.081 182.726C148.553 182.726 148.084 182.589 147.673 182.315C147.262 182.035 146.94 181.638 146.705 181.123C146.47 180.601 146.353 179.975 146.353 179.245C146.353 178.515 146.47 177.893 146.705 177.378C146.94 176.856 147.262 176.459 147.673 176.185C148.084 175.905 148.553 175.764 149.081 175.764C149.609 175.764 150.078 175.905 150.489 176.185C150.9 176.459 151.222 176.856 151.457 177.378C151.698 177.893 151.819 178.515 151.819 179.245C151.819 179.975 151.698 180.601 151.457 181.123C151.222 181.638 150.9 182.035 150.489 182.315C150.078 182.589 149.609 182.726 149.081 182.726ZM149.081 182.081C149.485 182.081 149.837 181.973 150.137 181.758C150.437 181.537 150.672 181.217 150.841 180.8C151.011 180.376 151.095 179.858 151.095 179.245C151.095 178.633 151.011 178.118 150.841 177.7C150.672 177.277 150.437 176.957 150.137 176.742C149.837 176.521 149.485 176.41 149.081 176.41C148.69 176.41 148.341 176.521 148.035 176.742C147.728 176.957 147.491 177.277 147.321 177.7C147.152 178.118 147.067 178.633 147.067 179.245C147.067 179.858 147.152 180.376 147.321 180.8C147.491 181.217 147.728 181.537 148.035 181.758C148.341 181.973 148.69 182.081 149.081 182.081Z" fill="black"/>
<rect x="158.146" y="166.779" width="24.4444" height="24.4444" fill="white" stroke="#E3E3E3" stroke-width="0.611111"/>
<path d="M167.975 182.726C167.368 182.726 166.857 182.593 166.44 182.325C166.022 182.051 165.706 181.66 165.491 181.152C165.276 180.637 165.168 180.021 165.168 179.304C165.168 178.528 165.299 177.88 165.56 177.358C165.827 176.83 166.195 176.433 166.664 176.165C167.134 175.898 167.678 175.764 168.297 175.764C168.604 175.764 168.897 175.794 169.177 175.852C169.458 175.911 169.705 176.006 169.92 176.136L169.637 176.703C169.461 176.586 169.259 176.504 169.031 176.459C168.803 176.406 168.561 176.38 168.307 176.38C167.571 176.38 166.981 176.615 166.537 177.084C166.101 177.554 165.882 178.254 165.882 179.187C165.882 179.33 165.889 179.509 165.902 179.724C165.921 179.933 165.96 180.142 166.019 180.35L165.775 180.164C165.846 179.825 165.987 179.539 166.195 179.304C166.404 179.063 166.664 178.88 166.977 178.756C167.29 178.633 167.632 178.571 168.004 178.571C168.46 178.571 168.861 178.655 169.207 178.825C169.552 178.994 169.823 179.232 170.018 179.539C170.214 179.845 170.312 180.207 170.312 180.624C170.312 181.048 170.211 181.419 170.008 181.739C169.806 182.051 169.526 182.296 169.168 182.472C168.816 182.641 168.418 182.726 167.975 182.726ZM167.945 182.13C168.271 182.13 168.558 182.071 168.806 181.954C169.06 181.83 169.259 181.657 169.402 181.435C169.546 181.207 169.617 180.943 169.617 180.643C169.617 180.194 169.461 179.835 169.148 179.568C168.842 179.301 168.424 179.167 167.896 179.167C167.544 179.167 167.238 179.232 166.977 179.363C166.717 179.493 166.511 179.672 166.361 179.9C166.211 180.122 166.136 180.376 166.136 180.663C166.136 180.911 166.205 181.149 166.342 181.377C166.479 181.598 166.681 181.781 166.948 181.924C167.222 182.061 167.554 182.13 167.945 182.13ZM173.728 182.726C173.18 182.726 172.708 182.648 172.31 182.491C171.919 182.335 171.616 182.11 171.401 181.817C171.192 181.517 171.088 181.165 171.088 180.761C171.088 180.37 171.189 180.037 171.391 179.763C171.599 179.483 171.899 179.268 172.29 179.118C172.688 178.968 173.167 178.893 173.728 178.893C174.282 178.893 174.758 178.968 175.155 179.118C175.553 179.268 175.856 179.483 176.065 179.763C176.28 180.037 176.387 180.37 176.387 180.761C176.387 181.165 176.28 181.517 176.065 181.817C175.849 182.11 175.543 182.335 175.145 182.491C174.748 182.648 174.275 182.726 173.728 182.726ZM173.728 182.13C174.334 182.13 174.807 182.006 175.145 181.758C175.491 181.51 175.664 181.175 175.664 180.751C175.664 180.327 175.491 179.995 175.145 179.754C174.807 179.506 174.334 179.382 173.728 179.382C173.121 179.382 172.649 179.506 172.31 179.754C171.971 179.995 171.801 180.327 171.801 180.751C171.801 181.175 171.971 181.51 172.31 181.758C172.649 182.006 173.121 182.13 173.728 182.13ZM173.728 179.294C173.219 179.294 172.786 179.226 172.427 179.089C172.075 178.952 171.805 178.756 171.616 178.502C171.427 178.241 171.332 177.932 171.332 177.573C171.332 177.195 171.43 176.873 171.625 176.605C171.828 176.331 172.108 176.123 172.466 175.979C172.825 175.836 173.245 175.764 173.728 175.764C174.21 175.764 174.631 175.836 174.989 175.979C175.354 176.123 175.638 176.331 175.84 176.605C176.042 176.873 176.143 177.195 176.143 177.573C176.143 177.932 176.048 178.241 175.859 178.502C175.67 178.756 175.393 178.952 175.028 179.089C174.67 179.226 174.236 179.294 173.728 179.294ZM173.728 178.825C174.262 178.825 174.679 178.714 174.979 178.492C175.279 178.271 175.429 177.974 175.429 177.603C175.429 177.211 175.273 176.908 174.96 176.693C174.653 176.472 174.243 176.361 173.728 176.361C173.213 176.361 172.802 176.472 172.496 176.693C172.189 176.908 172.036 177.208 172.036 177.593C172.036 177.971 172.183 178.271 172.476 178.492C172.776 178.714 173.193 178.825 173.728 178.825Z" fill="black"/>
<rect x="182.59" y="166.779" width="24.4444" height="24.4444" fill="white" stroke="#E3E3E3" stroke-width="0.611111"/>
<path d="M207.035 166.779H231.479V183.89C231.479 187.94 228.196 191.223 224.146 191.223H207.035V166.779Z" fill="white" stroke="#E3E3E3" stroke-width="0.611111"/>
<path d="M216.593 182.726C216.045 182.726 215.573 182.648 215.175 182.491C214.784 182.335 214.481 182.11 214.266 181.817C214.057 181.517 213.953 181.165 213.953 180.761C213.953 180.37 214.054 180.037 214.256 179.763C214.465 179.483 214.764 179.268 215.156 179.118C215.553 178.968 216.032 178.893 216.593 178.893C217.147 178.893 217.623 178.968 218.02 179.118C218.418 179.268 218.721 179.483 218.93 179.763C219.145 180.037 219.252 180.37 219.252 180.761C219.252 181.165 219.145 181.517 218.93 181.817C218.715 182.11 218.408 182.335 218.011 182.491C217.613 182.648 217.14 182.726 216.593 182.726ZM216.593 182.13C217.199 182.13 217.672 182.006 218.011 181.758C218.356 181.51 218.529 181.175 218.529 180.751C218.529 180.327 218.356 179.995 218.011 179.754C217.672 179.506 217.199 179.382 216.593 179.382C215.987 179.382 215.514 179.506 215.175 179.754C214.836 179.995 214.667 180.327 214.667 180.751C214.667 181.175 214.836 181.51 215.175 181.758C215.514 182.006 215.987 182.13 216.593 182.13ZM216.593 179.294C216.084 179.294 215.651 179.226 215.292 179.089C214.94 178.952 214.67 178.756 214.481 178.502C214.292 178.241 214.197 177.932 214.197 177.573C214.197 177.195 214.295 176.873 214.491 176.605C214.693 176.331 214.973 176.123 215.332 175.979C215.69 175.836 216.111 175.764 216.593 175.764C217.075 175.764 217.496 175.836 217.854 175.979C218.219 176.123 218.503 176.331 218.705 176.605C218.907 176.873 219.008 177.195 219.008 177.573C219.008 177.932 218.913 178.241 218.724 178.502C218.535 178.756 218.258 178.952 217.893 179.089C217.535 179.226 217.101 179.294 216.593 179.294ZM216.593 178.825C217.127 178.825 217.545 178.714 217.844 178.492C218.144 178.271 218.294 177.974 218.294 177.603C218.294 177.211 218.138 176.908 217.825 176.693C217.519 176.472 217.108 176.361 216.593 176.361C216.078 176.361 215.667 176.472 215.361 176.693C215.055 176.908 214.901 177.208 214.901 177.593C214.901 177.971 215.048 178.271 215.341 178.492C215.641 178.714 216.058 178.825 216.593 178.825ZM221.42 182.667V176.116L221.733 176.449H219.807V175.823H222.124V182.667H221.42Z" fill="black"/>
</svg>
