<svg width="242" height="200" viewBox="0 0 242 200" fill="none" xmlns="http://www.w3.org/2000/svg">
<rect x="1" y="1.0011" width="240" height="198" rx="11.2222" fill="white" stroke="#E6E6E6" stroke-width="2"/>
<path d="M11.968 22.0001V15.1557H17.2969V16.2019H13.2196V17.8837H15.2436C16.0649 17.8837 16.6874 18.0564 17.1111 18.4019C17.5413 18.7409 17.7564 19.2363 17.7564 19.8881C17.7564 20.5595 17.5185 21.081 17.0427 21.4526C16.5733 21.8176 15.9084 22.0001 15.048 22.0001H11.968ZM13.2196 21.0223H14.9796C15.4684 21.0223 15.84 20.9278 16.0942 20.7388C16.3484 20.5498 16.4756 20.276 16.4756 19.9175C16.4756 19.2135 15.9769 18.8615 14.9796 18.8615H13.2196V21.0223ZM19.0114 22.0001V16.7788H20.2337V20.2206L23.1181 16.7788H24.2328V22.0001H23.0105V18.5583L20.1359 22.0001H19.0114ZM25.1142 21.9903L25.1729 20.9637C25.2185 20.9702 25.2609 20.9767 25.3 20.9832C25.3391 20.9898 25.375 20.993 25.4076 20.993C25.6096 20.993 25.7661 20.9311 25.8769 20.8072C25.9877 20.6834 26.0692 20.5172 26.1213 20.3086C26.18 20.0935 26.2191 19.8555 26.2387 19.5948C26.2647 19.3275 26.2843 19.0603 26.2973 18.793L26.3853 16.7788H30.6093V22.0001H29.3871V17.4828L29.6707 17.8152H27.1871L27.4511 17.473L27.3827 18.8517C27.3631 19.3145 27.324 19.7447 27.2653 20.1423C27.2132 20.5335 27.1284 20.8757 27.0111 21.169C26.9003 21.4623 26.7439 21.6905 26.5418 21.8535C26.3462 22.0164 26.0953 22.0979 25.7889 22.0979C25.6911 22.0979 25.5836 22.0881 25.4662 22.0686C25.3554 22.049 25.2381 22.0229 25.1142 21.9903ZM34.69 22.0686C34.1099 22.0686 33.6014 21.9545 33.1647 21.7263C32.7345 21.4917 32.3988 21.1723 32.1576 20.7681C31.9229 20.364 31.8056 19.9044 31.8056 19.3895C31.8056 18.868 31.9197 18.4084 32.1478 18.0108C32.3825 17.6066 32.7019 17.2905 33.106 17.0623C33.5167 16.8342 33.9828 16.7201 34.5043 16.7201C35.0127 16.7201 35.4657 16.8309 35.8634 17.0526C36.261 17.2742 36.5739 17.5871 36.802 17.9912C37.0302 18.3954 37.1443 18.8712 37.1443 19.4188C37.1443 19.4709 37.141 19.5296 37.1345 19.5948C37.1345 19.66 37.1312 19.7219 37.1247 19.7806H32.7736V18.969H36.4794L36.0003 19.2232C36.0068 18.9234 35.9448 18.6594 35.8145 18.4312C35.6841 18.2031 35.5048 18.0238 35.2767 17.8935C35.0551 17.7631 34.7976 17.6979 34.5043 17.6979C34.2044 17.6979 33.9404 17.7631 33.7123 17.8935C33.4906 18.0238 33.3146 18.2063 33.1843 18.441C33.0604 18.6692 32.9985 18.9397 32.9985 19.2526V19.4481C32.9985 19.761 33.0702 20.038 33.2136 20.2792C33.357 20.5204 33.5591 20.7062 33.8198 20.8366C34.0805 20.9669 34.3804 21.0321 34.7194 21.0321C35.0127 21.0321 35.2767 20.9865 35.5114 20.8952C35.746 20.804 35.9546 20.6606 36.1371 20.465L36.7923 21.2179C36.5576 21.4917 36.261 21.7035 35.9025 21.8535C35.5505 21.9969 35.1463 22.0686 34.69 22.0686ZM39.3659 22.0001V17.5219L39.6494 17.8152H37.5276V16.7788H42.4165V17.8152H40.3045L40.5881 17.5219V22.0001H39.3659ZM46.1031 22.0001V15.1557H47.1494L51.4418 20.4259H50.9236V15.1557H52.1849V22.0001H51.1387L46.8463 16.7299H47.3645V22.0001H46.1031ZM53.1823 19.7708V18.9886H56.3796V19.7708H53.1823ZM54.776 18.2748C54.4305 18.2748 54.1242 18.2063 53.8569 18.0695C53.5897 17.9326 53.3778 17.7435 53.2214 17.5023C53.0649 17.2612 52.9867 16.9841 52.9867 16.6712C52.9867 16.3649 53.0649 16.0943 53.2214 15.8597C53.3778 15.6185 53.5897 15.4295 53.8569 15.2926C54.1242 15.1557 54.4305 15.0872 54.776 15.0872C55.128 15.0872 55.4377 15.1557 55.7049 15.2926C55.9722 15.4295 56.1808 15.6185 56.3307 15.8597C56.4871 16.0943 56.5654 16.3681 56.5654 16.681C56.5654 16.9874 56.4871 17.2612 56.3307 17.5023C56.1808 17.7435 55.9722 17.9326 55.7049 18.0695C55.4377 18.2063 55.128 18.2748 54.776 18.2748ZM54.776 17.5806C55.0628 17.5806 55.291 17.4991 55.4605 17.3361C55.6365 17.1666 55.7245 16.9483 55.7245 16.681C55.7245 16.4007 55.6365 16.1791 55.4605 16.0161C55.291 15.8532 55.0628 15.7717 54.776 15.7717C54.4957 15.7717 54.2676 15.8564 54.0916 16.0259C53.9156 16.1889 53.8276 16.4072 53.8276 16.681C53.8276 16.9483 53.9156 17.1666 54.0916 17.3361C54.2676 17.4991 54.4957 17.5806 54.776 17.5806ZM60.039 15.0579C60.6648 15.0579 61.196 15.1915 61.6328 15.4588C62.076 15.7195 62.415 16.1009 62.6497 16.6028C62.8843 17.1047 63.0017 17.724 63.0017 18.4606C63.0017 19.2428 62.8583 19.9044 62.5714 20.4455C62.2911 20.9865 61.9 21.3972 61.3981 21.6775C60.8962 21.9578 60.3128 22.0979 59.6479 22.0979C59.3024 22.0979 58.9732 22.062 58.6603 21.9903C58.3474 21.9186 58.0769 21.8078 57.8488 21.6579L58.3181 20.6997C58.5071 20.8235 58.7125 20.9115 58.9341 20.9637C59.1557 21.0093 59.3839 21.0321 59.6185 21.0321C60.2639 21.0321 60.7756 20.8333 61.1537 20.4357C61.5317 20.038 61.7208 19.4514 61.7208 18.6757C61.7208 18.5518 61.7175 18.4084 61.711 18.2455C61.7045 18.076 61.6817 17.9065 61.6425 17.737L62.0337 18.1672C61.9228 18.4345 61.7631 18.6594 61.5545 18.8419C61.346 19.0179 61.1015 19.1515 60.8212 19.2428C60.5409 19.334 60.2313 19.3797 59.8923 19.3797C59.4491 19.3797 59.0482 19.2949 58.6897 19.1255C58.3377 18.9495 58.0574 18.705 57.8488 18.3921C57.6402 18.0727 57.5359 17.7012 57.5359 17.2775C57.5359 16.8212 57.6467 16.43 57.8683 16.1041C58.09 15.7717 58.3898 15.5142 58.7679 15.3317C59.1525 15.1492 59.5762 15.0579 60.039 15.0579ZM60.1074 16.0552C59.8467 16.0552 59.6153 16.1041 59.4132 16.2019C59.2111 16.2932 59.0514 16.4268 58.9341 16.6028C58.8233 16.7723 58.7679 16.9776 58.7679 17.2188C58.7679 17.5773 58.8917 17.8609 59.1394 18.0695C59.3871 18.278 59.7196 18.3823 60.1368 18.3823C60.4105 18.3823 60.6517 18.3335 60.8603 18.2357C61.0689 18.1314 61.2319 17.9912 61.3492 17.8152C61.4665 17.6327 61.5252 17.4306 61.5252 17.209C61.5252 16.9939 61.4698 16.8016 61.359 16.6321C61.2482 16.4561 61.0885 16.316 60.8799 16.2117C60.6713 16.1074 60.4138 16.0552 60.1074 16.0552ZM66.1692 15.0579C66.795 15.0579 67.3262 15.1915 67.763 15.4588C68.2062 15.7195 68.5452 16.1009 68.7799 16.6028C69.0145 17.1047 69.1319 17.724 69.1319 18.4606C69.1319 19.2428 68.9885 19.9044 68.7016 20.4455C68.4213 20.9865 68.0302 21.3972 67.5283 21.6775C67.0264 21.9578 66.443 22.0979 65.7781 22.0979C65.4326 22.0979 65.1034 22.062 64.7905 21.9903C64.4776 21.9186 64.2071 21.8078 63.979 21.6579L64.4483 20.6997C64.6373 20.8235 64.8427 20.9115 65.0643 20.9637C65.2859 21.0093 65.5141 21.0321 65.7488 21.0321C66.3941 21.0321 66.9058 20.8333 67.2839 20.4357C67.6619 20.038 67.851 19.4514 67.851 18.6757C67.851 18.5518 67.8477 18.4084 67.8412 18.2455C67.8347 18.076 67.8119 17.9065 67.7728 17.737L68.1639 18.1672C68.0531 18.4345 67.8933 18.6594 67.6848 18.8419C67.4762 19.0179 67.2317 19.1515 66.9514 19.2428C66.6711 19.334 66.3615 19.3797 66.0225 19.3797C65.5793 19.3797 65.1784 19.2949 64.8199 19.1255C64.4679 18.9495 64.1876 18.705 63.979 18.3921C63.7704 18.0727 63.6661 17.7012 63.6661 17.2775C63.6661 16.8212 63.7769 16.43 63.9985 16.1041C64.2202 15.7717 64.52 15.5142 64.8981 15.3317C65.2827 15.1492 65.7064 15.0579 66.1692 15.0579ZM66.2376 16.0552C65.9769 16.0552 65.7455 16.1041 65.5434 16.2019C65.3413 16.2932 65.1816 16.4268 65.0643 16.6028C64.9535 16.7723 64.8981 16.9776 64.8981 17.2188C64.8981 17.5773 65.0219 17.8609 65.2696 18.0695C65.5173 18.278 65.8498 18.3823 66.267 18.3823C66.5408 18.3823 66.7819 18.3335 66.9905 18.2357C67.1991 18.1314 67.3621 17.9912 67.4794 17.8152C67.5968 17.6327 67.6554 17.4306 67.6554 17.209C67.6554 16.9939 67.6 16.8016 67.4892 16.6321C67.3784 16.4561 67.2187 16.316 67.0101 16.2117C66.8015 16.1074 66.544 16.0552 66.2376 16.0552ZM72.2994 15.0579C72.9252 15.0579 73.4564 15.1915 73.8932 15.4588C74.3364 15.7195 74.6754 16.1009 74.9101 16.6028C75.1447 17.1047 75.2621 17.724 75.2621 18.4606C75.2621 19.2428 75.1187 19.9044 74.8319 20.4455C74.5516 20.9865 74.1604 21.3972 73.6585 21.6775C73.1566 21.9578 72.5732 22.0979 71.9083 22.0979C71.5628 22.0979 71.2336 22.062 70.9207 21.9903C70.6079 21.9186 70.3373 21.8078 70.1092 21.6579L70.5785 20.6997C70.7676 20.8235 70.9729 20.9115 71.1945 20.9637C71.4161 21.0093 71.6443 21.0321 71.879 21.0321C72.5243 21.0321 73.036 20.8333 73.4141 20.4357C73.7921 20.038 73.9812 19.4514 73.9812 18.6757C73.9812 18.5518 73.9779 18.4084 73.9714 18.2455C73.9649 18.076 73.9421 17.9065 73.903 17.737L74.2941 18.1672C74.1833 18.4345 74.0236 18.6594 73.815 18.8419C73.6064 19.0179 73.3619 19.1515 73.0816 19.2428C72.8013 19.334 72.4917 19.3797 72.1527 19.3797C71.7095 19.3797 71.3086 19.2949 70.9501 19.1255C70.5981 18.9495 70.3178 18.705 70.1092 18.3921C69.9006 18.0727 69.7963 17.7012 69.7963 17.2775C69.7963 16.8212 69.9071 16.43 70.1287 16.1041C70.3504 15.7717 70.6502 15.5142 71.0283 15.3317C71.4129 15.1492 71.8366 15.0579 72.2994 15.0579ZM72.3679 16.0552C72.1071 16.0552 71.8757 16.1041 71.6736 16.2019C71.4716 16.2932 71.3119 16.4268 71.1945 16.6028C71.0837 16.7723 71.0283 16.9776 71.0283 17.2188C71.0283 17.5773 71.1521 17.8609 71.3999 18.0695C71.6476 18.278 71.98 18.3823 72.3972 18.3823C72.671 18.3823 72.9121 18.3335 73.1207 18.2357C73.3293 18.1314 73.4923 17.9912 73.6096 17.8152C73.727 17.6327 73.7856 17.4306 73.7856 17.209C73.7856 16.9939 73.7302 16.8016 73.6194 16.6321C73.5086 16.4561 73.3489 16.316 73.1403 16.2117C72.9317 16.1074 72.6742 16.0552 72.3679 16.0552ZM78.1777 22.0979C77.6953 22.0979 77.2227 22.0295 76.7599 21.8926C76.3036 21.7492 75.919 21.5536 75.6061 21.3059L76.1537 20.3183C76.4014 20.5204 76.7012 20.6834 77.0532 20.8072C77.4052 20.9311 77.7735 20.993 78.1581 20.993C78.6144 20.993 78.9697 20.9018 79.2239 20.7192C79.4781 20.5302 79.6052 20.276 79.6052 19.9566C79.6052 19.6437 79.4879 19.396 79.2532 19.2135C79.0186 19.0309 78.6405 18.9397 78.119 18.9397H77.4932V18.0695L79.4488 15.7423L79.615 16.2215H75.9386V15.1557H80.6026V16.0063L78.647 18.3335L77.9821 17.9423H78.3635C79.2044 17.9423 79.8334 18.1314 80.2506 18.5095C80.6743 18.881 80.8861 19.3601 80.8861 19.9468C80.8861 20.3314 80.7884 20.6866 80.5928 21.0126C80.3972 21.3385 80.0974 21.6025 79.6932 21.8046C79.2956 22.0001 78.7904 22.0979 78.1777 22.0979ZM83.8209 22.0979C83.3385 22.0979 82.866 22.0295 82.4031 21.8926C81.9468 21.7492 81.5623 21.5536 81.2494 21.3059L81.7969 20.3183C82.0446 20.5204 82.3445 20.6834 82.6965 20.8072C83.0485 20.9311 83.4168 20.993 83.8014 20.993C84.2577 20.993 84.6129 20.9018 84.8671 20.7192C85.1214 20.5302 85.2485 20.276 85.2485 19.9566C85.2485 19.6437 85.1311 19.396 84.8965 19.2135C84.6618 19.0309 84.2837 18.9397 83.7623 18.9397H83.1365V18.0695L85.092 15.7423L85.2583 16.2215H81.5818V15.1557H86.2458V16.0063L84.2903 18.3335L83.6254 17.9423H84.0067C84.8476 17.9423 85.4766 18.1314 85.8938 18.5095C86.3175 18.881 86.5294 19.3601 86.5294 19.9468C86.5294 20.3314 86.4316 20.6866 86.236 21.0126C86.0405 21.3385 85.7406 21.6025 85.3365 21.8046C84.9388 22.0001 84.4337 22.0979 83.8209 22.0979ZM88.4093 22.0001L91.2351 15.6641L91.5675 16.2312H87.6857L88.292 15.6152V17.3948H87.1088V15.1557H92.428V16.0063L89.7684 22.0001H88.4093ZM95.9858 22.0979C95.3665 22.0979 94.8353 21.9675 94.392 21.7068C93.9487 21.4395 93.6098 21.0549 93.3751 20.553C93.1404 20.0511 93.0231 19.4318 93.0231 18.6952C93.0231 17.913 93.1633 17.2514 93.4435 16.7103C93.7304 16.1693 94.1247 15.7586 94.6267 15.4783C95.1351 15.198 95.7185 15.0579 96.3769 15.0579C96.7224 15.0579 97.0515 15.0938 97.3644 15.1655C97.6838 15.2372 97.9544 15.348 98.176 15.4979L97.7067 16.4561C97.5176 16.3323 97.3123 16.2475 97.0907 16.2019C96.8755 16.1498 96.6474 16.1237 96.4062 16.1237C95.7609 16.1237 95.2492 16.3225 94.8711 16.7201C94.493 17.1178 94.304 17.7044 94.304 18.4801C94.304 18.604 94.3073 18.7506 94.3138 18.9201C94.3203 19.0831 94.3431 19.2493 94.3822 19.4188L93.9911 18.9886C94.1084 18.7213 94.2681 18.4997 94.4702 18.3237C94.6788 18.1412 94.9233 18.0043 95.2035 17.913C95.4904 17.8218 95.8 17.7761 96.1324 17.7761C96.5822 17.7761 96.9831 17.8641 97.3351 18.0401C97.6871 18.2096 97.9674 18.454 98.176 18.7735C98.3846 19.0863 98.4889 19.4546 98.4889 19.8783C98.4889 20.3281 98.3781 20.7192 98.1564 21.0517C97.9348 21.3841 97.635 21.6416 97.2569 21.8241C96.8788 22.0066 96.4551 22.0979 95.9858 22.0979ZM95.9173 21.1006C96.1781 21.1006 96.4095 21.0549 96.6115 20.9637C96.8136 20.8659 96.9701 20.729 97.0809 20.553C97.1982 20.377 97.2569 20.1717 97.2569 19.937C97.2569 19.5785 97.133 19.2949 96.8853 19.0863C96.6376 18.8778 96.3052 18.7735 95.888 18.7735C95.6142 18.7735 95.373 18.8256 95.1644 18.9299C94.9624 19.0277 94.7994 19.1646 94.6755 19.3406C94.5582 19.5166 94.4995 19.7186 94.4995 19.9468C94.4995 20.1554 94.555 20.3477 94.6658 20.5237C94.7766 20.6997 94.9363 20.8398 95.1449 20.9441C95.36 21.0484 95.6175 21.1006 95.9173 21.1006ZM100.248 22.0001V15.6446L100.806 16.2215H98.8013V15.1557H101.52V22.0001H100.248ZM105.732 22.0979C105.191 22.0979 104.702 21.961 104.266 21.6872C103.835 21.4135 103.497 21.0158 103.249 20.4943C103.001 19.9663 102.877 19.3275 102.877 18.5779C102.877 17.8283 103.001 17.1927 103.249 16.6712C103.497 16.1432 103.835 15.7423 104.266 15.4686C104.702 15.1948 105.191 15.0579 105.732 15.0579C106.28 15.0579 106.769 15.1948 107.199 15.4686C107.629 15.7423 107.968 16.1432 108.216 16.6712C108.47 17.1927 108.597 17.8283 108.597 18.5779C108.597 19.3275 108.47 19.9663 108.216 20.4943C107.968 21.0158 107.629 21.4135 107.199 21.6872C106.769 21.961 106.28 22.0979 105.732 22.0979ZM105.732 20.993C106.052 20.993 106.329 20.9083 106.563 20.7388C106.798 20.5628 106.981 20.2955 107.111 19.937C107.248 19.5785 107.316 19.1255 107.316 18.5779C107.316 18.0238 107.248 17.5708 107.111 17.2188C106.981 16.8603 106.798 16.5963 106.563 16.4268C106.329 16.2508 106.052 16.1628 105.732 16.1628C105.426 16.1628 105.152 16.2508 104.911 16.4268C104.676 16.5963 104.491 16.8603 104.354 17.2188C104.223 17.5708 104.158 18.0238 104.158 18.5779C104.158 19.1255 104.223 19.5785 104.354 19.937C104.491 20.2955 104.676 20.5628 104.911 20.7388C105.152 20.9083 105.426 20.993 105.732 20.993ZM112.311 22.0979C111.77 22.0979 111.281 21.961 110.845 21.6872C110.414 21.4135 110.076 21.0158 109.828 20.4943C109.58 19.9663 109.456 19.3275 109.456 18.5779C109.456 17.8283 109.58 17.1927 109.828 16.6712C110.076 16.1432 110.414 15.7423 110.845 15.4686C111.281 15.1948 111.77 15.0579 112.311 15.0579C112.859 15.0579 113.348 15.1948 113.778 15.4686C114.208 15.7423 114.547 16.1432 114.795 16.6712C115.049 17.1927 115.176 17.8283 115.176 18.5779C115.176 19.3275 115.049 19.9663 114.795 20.4943C114.547 21.0158 114.208 21.4135 113.778 21.6872C113.348 21.961 112.859 22.0979 112.311 22.0979ZM112.311 20.993C112.631 20.993 112.908 20.9083 113.142 20.7388C113.377 20.5628 113.56 20.2955 113.69 19.937C113.827 19.5785 113.895 19.1255 113.895 18.5779C113.895 18.0238 113.827 17.5708 113.69 17.2188C113.56 16.8603 113.377 16.5963 113.142 16.4268C112.908 16.2508 112.631 16.1628 112.311 16.1628C112.005 16.1628 111.731 16.2508 111.49 16.4268C111.255 16.5963 111.07 16.8603 110.933 17.2188C110.802 17.5708 110.737 18.0238 110.737 18.5779C110.737 19.1255 110.802 19.5785 110.933 19.937C111.07 20.2955 111.255 20.5628 111.49 20.7388C111.731 20.9083 112.005 20.993 112.311 20.993ZM115.938 22.0001V21.1495L118.656 18.5681C118.884 18.353 119.054 18.164 119.164 18.001C119.275 17.838 119.347 17.6881 119.379 17.5512C119.419 17.4078 119.438 17.2742 119.438 17.1503C119.438 16.8375 119.331 16.5963 119.115 16.4268C118.9 16.2508 118.584 16.1628 118.167 16.1628C117.835 16.1628 117.531 16.2215 117.258 16.3388C116.99 16.4561 116.759 16.6354 116.563 16.8766L115.674 16.1921C115.941 15.8336 116.299 15.5566 116.749 15.361C117.206 15.1589 117.714 15.0579 118.275 15.0579C118.77 15.0579 119.2 15.1394 119.565 15.3023C119.937 15.4588 120.22 15.6837 120.416 15.977C120.618 16.2703 120.719 16.6191 120.719 17.0232C120.719 17.2449 120.69 17.4665 120.631 17.6881C120.572 17.9032 120.462 18.1314 120.299 18.3726C120.136 18.6138 119.898 18.8843 119.585 19.1841L117.248 21.4037L116.984 20.9246H120.983V22.0001H115.938ZM124.024 15.0579C124.65 15.0579 125.181 15.1915 125.618 15.4588C126.061 15.7195 126.4 16.1009 126.635 16.6028C126.87 17.1047 126.987 17.724 126.987 18.4606C126.987 19.2428 126.843 19.9044 126.557 20.4455C126.276 20.9865 125.885 21.3972 125.383 21.6775C124.881 21.9578 124.298 22.0979 123.633 22.0979C123.288 22.0979 122.958 22.062 122.646 21.9903C122.333 21.9186 122.062 21.8078 121.834 21.6579L122.303 20.6997C122.492 20.8235 122.698 20.9115 122.919 20.9637C123.141 21.0093 123.369 21.0321 123.604 21.0321C124.249 21.0321 124.761 20.8333 125.139 20.4357C125.517 20.038 125.706 19.4514 125.706 18.6757C125.706 18.5518 125.703 18.4084 125.696 18.2455C125.69 18.076 125.667 17.9065 125.628 17.737L126.019 18.1672C125.908 18.4345 125.748 18.6594 125.54 18.8419C125.331 19.0179 125.087 19.1515 124.806 19.2428C124.526 19.334 124.217 19.3797 123.878 19.3797C123.434 19.3797 123.033 19.2949 122.675 19.1255C122.323 18.9495 122.043 18.705 121.834 18.3921C121.625 18.0727 121.521 17.7012 121.521 17.2775C121.521 16.8212 121.632 16.43 121.854 16.1041C122.075 15.7717 122.375 15.5142 122.753 15.3317C123.138 15.1492 123.561 15.0579 124.024 15.0579ZM124.093 16.0552C123.832 16.0552 123.601 16.1041 123.398 16.2019C123.196 16.2932 123.037 16.4268 122.919 16.6028C122.809 16.7723 122.753 16.9776 122.753 17.2188C122.753 17.5773 122.877 17.8609 123.125 18.0695C123.372 18.278 123.705 18.3823 124.122 18.3823C124.396 18.3823 124.637 18.3335 124.846 18.2357C125.054 18.1314 125.217 17.9912 125.334 17.8152C125.452 17.6327 125.51 17.4306 125.51 17.209C125.51 16.9939 125.455 16.8016 125.344 16.6321C125.233 16.4561 125.074 16.316 124.865 16.2117C124.657 16.1074 124.399 16.0552 124.093 16.0552Z" fill="black"/>
<path d="M9.50391 45.5567C9.50391 41.5066 12.7872 38.2233 16.8372 38.2233H33.9484V62.6678H9.50391V45.5567Z" fill="white" stroke="#E3E3E3" stroke-width="0.611111"/>
<path d="M18.334 43.5806C18.9316 44.8505 20.0421 45.9233 20.5339 47.2694C21.0036 48.5548 21.9219 49.7264 22.7339 50.8249C23.1385 51.3723 23.8026 52.3805 23.9783 53.0248C24.1094 53.5056 24.1784 53.9152 24.5338 54.2915C25.068 54.857 24.8347 55.621 25.5338 56.1803" stroke="#FF6534" stroke-width="6" stroke-linecap="round"/>
<path d="M14.3337 54.1804C15.5421 53.2137 17.122 52.4586 18.4225 51.5915C20.3248 50.3233 22.4187 49.4741 24.4446 48.425C25.9592 47.6406 27.7455 46.9099 29.3334 46.3806" stroke="#FF6534" stroke-width="6" stroke-linecap="round"/>
<path d="M20.8274 54.1122V47.5611L21.1403 47.8936H19.2141V47.2678H21.5314V54.1122H20.8274Z" fill="black"/>
<rect x="33.9473" y="38.2233" width="24.4444" height="24.4444" fill="white" stroke="#E3E3E3" stroke-width="0.611111"/>
<rect x="58.3926" y="38.2233" width="24.4444" height="24.4444" fill="white" stroke="#E3E3E3" stroke-width="0.611111"/>
<rect x="82.8364" y="38.2233" width="24.4444" height="24.4444" fill="white" stroke="#E3E3E3" stroke-width="0.611111"/>
<path d="M91.3335 43.5806C91.9311 44.8505 93.0416 45.9233 93.5334 47.2694C94.0031 48.5548 94.9214 49.7264 95.7334 50.8249C96.138 51.3723 96.8021 52.3805 96.9778 53.0248C97.1089 53.5056 97.1779 53.9152 97.5333 54.2915C98.0675 54.857 97.8342 55.621 98.5333 56.1803" stroke="#FF6534" stroke-width="6" stroke-linecap="round"/>
<path d="M87.3332 54.1804C88.5416 53.2137 90.1215 52.4586 91.422 51.5915C93.3244 50.3233 95.4182 49.4741 97.4441 48.425C98.9587 47.6406 100.745 46.9099 102.333 46.3806" stroke="#FF6534" stroke-width="6" stroke-linecap="round"/>
<path d="M92.1302 54.1709C91.6348 54.1709 91.1654 54.0927 90.7222 53.9362C90.2854 53.7733 89.9334 53.5582 89.6662 53.2909L90.0084 52.7336C90.23 52.9617 90.5266 53.1508 90.8982 53.3007C91.2763 53.4506 91.6869 53.5256 92.1302 53.5256C92.6973 53.5256 93.1308 53.4017 93.4306 53.154C93.737 52.9063 93.8902 52.5739 93.8902 52.1567C93.8902 51.7395 93.7403 51.4071 93.4404 51.1594C93.1471 50.9117 92.681 50.7878 92.0422 50.7878H91.5533V50.2696L93.6653 47.6198L93.7631 47.8936H89.9497V47.2678H94.3497V47.7665L92.2377 50.4162L91.8955 50.1914H92.1595C92.9808 50.1914 93.5936 50.3739 93.9977 50.7389C94.4084 51.1039 94.6137 51.5733 94.6137 52.1469C94.6137 52.5315 94.5225 52.877 94.34 53.1834C94.1574 53.4897 93.8804 53.7309 93.5088 53.9069C93.1438 54.0829 92.6843 54.1709 92.1302 54.1709ZM97.6711 54.1709C97.1822 54.1709 96.7162 54.0927 96.2729 53.9362C95.8296 53.7733 95.4776 53.5582 95.2169 53.2909L95.5591 52.7336C95.7742 52.9617 96.0676 53.1508 96.4391 53.3007C96.8172 53.4506 97.2246 53.5256 97.6613 53.5256C98.2415 53.5256 98.6815 53.3985 98.9813 53.1442C99.2877 52.8835 99.4409 52.5445 99.4409 52.1274C99.4409 51.834 99.3692 51.5831 99.2258 51.3745C99.0889 51.1594 98.8542 50.9931 98.5218 50.8758C98.1893 50.7585 97.733 50.6998 97.1529 50.6998H95.696L96.048 47.2678H99.7929V47.8936H96.3316L96.6933 47.5514L96.3902 50.426L96.0285 50.074H97.3093C98.0003 50.074 98.5544 50.1588 98.9716 50.3282C99.3888 50.4977 99.6886 50.7357 99.8711 51.042C100.06 51.3419 100.155 51.6939 100.155 52.098C100.155 52.4826 100.063 52.8346 99.8809 53.154C99.6984 53.4669 99.4246 53.7146 99.0596 53.8971C98.6945 54.0797 98.2317 54.1709 97.6711 54.1709Z" fill="black"/>
<rect x="107.282" y="38.2233" width="24.4444" height="24.4444" fill="white" stroke="#E3E3E3" stroke-width="0.611111"/>
<path d="M116.333 43.5806C116.931 44.8505 118.042 45.9233 118.533 47.2694C119.003 48.5548 119.921 49.7264 120.733 50.8249C121.138 51.3723 121.802 52.3805 121.978 53.0248C122.109 53.5056 122.178 53.9152 122.533 54.2915C123.067 54.857 122.834 55.621 123.533 56.1803" stroke="#FF6534" stroke-width="6" stroke-linecap="round"/>
<path d="M112.333 54.1804C113.542 53.2137 115.121 52.4586 116.422 51.5915C118.324 50.3233 120.418 49.4741 122.444 48.425C123.959 47.6406 125.745 46.9099 127.333 46.3806" stroke="#FF6534" stroke-width="6" stroke-linecap="round"/>
<path d="M114.11 52.3131V51.8047L117.738 47.2678H118.52L114.922 51.8047L114.54 51.6874H120.045V52.3131H114.11ZM117.972 54.1122V52.3131L117.992 51.6874V50.1034H118.676V54.1122H117.972ZM122.747 47.2091C123.353 47.2091 123.865 47.346 124.282 47.6198C124.699 47.8871 125.015 48.2749 125.23 48.7834C125.446 49.2918 125.553 49.9078 125.553 50.6314C125.553 51.4005 125.42 52.0491 125.152 52.5771C124.892 53.1051 124.526 53.5028 124.057 53.77C123.588 54.0373 123.044 54.1709 122.424 54.1709C122.118 54.1709 121.825 54.1416 121.544 54.0829C121.27 54.0242 121.023 53.9297 120.801 53.7994L121.085 53.2322C121.261 53.3496 121.463 53.4343 121.691 53.4865C121.926 53.5321 122.167 53.5549 122.414 53.5549C123.151 53.5549 123.738 53.3202 124.174 52.8509C124.618 52.3816 124.839 51.6808 124.839 50.7487C124.839 50.5988 124.83 50.4195 124.81 50.2109C124.797 50.0023 124.761 49.7937 124.702 49.5851L124.947 49.7709C124.882 50.1099 124.742 50.3999 124.526 50.6411C124.318 50.8758 124.057 51.0551 123.744 51.1789C123.438 51.3028 123.096 51.3647 122.718 51.3647C122.268 51.3647 121.867 51.2799 121.515 51.1105C121.169 50.941 120.899 50.7031 120.703 50.3967C120.508 50.0903 120.41 49.7285 120.41 49.3114C120.41 48.8811 120.511 48.5096 120.713 48.1967C120.915 47.8838 121.192 47.6426 121.544 47.4731C121.903 47.2971 122.304 47.2091 122.747 47.2091ZM122.776 47.8056C122.45 47.8056 122.16 47.8675 121.906 47.9914C121.658 48.1087 121.463 48.2782 121.319 48.4998C121.176 48.7214 121.104 48.9854 121.104 49.2918C121.104 49.7416 121.257 50.1001 121.564 50.3674C121.877 50.6346 122.297 50.7682 122.825 50.7682C123.177 50.7682 123.484 50.7031 123.744 50.5727C124.012 50.4423 124.217 50.2631 124.36 50.0349C124.51 49.8068 124.585 49.5525 124.585 49.2722C124.585 49.018 124.517 48.7801 124.38 48.5585C124.243 48.3368 124.041 48.1576 123.774 48.0207C123.506 47.8773 123.174 47.8056 122.776 47.8056Z" fill="black"/>
<rect x="131.726" y="38.2233" width="24.4444" height="24.4444" fill="white" stroke="#E3E3E3" stroke-width="0.611111"/>
<rect x="156.169" y="38.2233" width="24.4444" height="24.4444" fill="white" stroke="#E3E3E3" stroke-width="0.611111"/>
<path d="M164.333 43.5806C164.931 44.8505 166.042 45.9233 166.533 47.2694C167.003 48.5548 167.921 49.7264 168.733 50.8249C169.138 51.3723 169.802 52.3805 169.978 53.0248C170.109 53.5056 170.178 53.9152 170.533 54.2915C171.067 54.857 170.834 55.621 171.533 56.1803" stroke="#FF6534" stroke-width="6" stroke-linecap="round"/>
<path d="M160.333 54.1804C161.542 53.2137 163.121 52.4586 164.422 51.5915C166.324 50.3233 168.418 49.4741 170.444 48.425C171.959 47.6406 173.745 46.9099 175.333 46.3806" stroke="#FF6534" stroke-width="6" stroke-linecap="round"/>
<path d="M165.458 54.1709C164.852 54.1709 164.341 54.0373 163.923 53.77C163.506 53.4962 163.19 53.1051 162.975 52.5967C162.76 52.0817 162.652 51.4657 162.652 50.7487C162.652 49.973 162.783 49.3244 163.043 48.8029C163.311 48.2749 163.679 47.8773 164.148 47.61C164.618 47.3428 165.162 47.2091 165.781 47.2091C166.088 47.2091 166.381 47.2385 166.661 47.2971C166.941 47.3558 167.189 47.4503 167.404 47.5807L167.121 48.1478C166.945 48.0305 166.743 47.949 166.514 47.9034C166.286 47.8512 166.045 47.8251 165.791 47.8251C165.054 47.8251 164.464 48.0598 164.021 48.5291C163.584 48.9985 163.366 49.6992 163.366 50.6314C163.366 50.7748 163.373 50.954 163.386 51.1691C163.405 51.3777 163.444 51.5863 163.503 51.7949L163.258 51.6091C163.33 51.2702 163.47 50.9834 163.679 50.7487C163.888 50.5075 164.148 50.325 164.461 50.2011C164.774 50.0773 165.116 50.0154 165.488 50.0154C165.944 50.0154 166.345 50.1001 166.69 50.2696C167.036 50.4391 167.306 50.677 167.502 50.9834C167.698 51.2897 167.795 51.6515 167.795 52.0687C167.795 52.4924 167.694 52.8639 167.492 53.1834C167.29 53.4962 167.01 53.7407 166.651 53.9167C166.299 54.0862 165.902 54.1709 165.458 54.1709ZM165.429 53.5745C165.755 53.5745 166.042 53.5158 166.29 53.3985C166.544 53.2746 166.743 53.1019 166.886 52.8802C167.029 52.6521 167.101 52.3881 167.101 52.0882C167.101 51.6385 166.945 51.2799 166.632 51.0127C166.325 50.7454 165.908 50.6118 165.38 50.6118C165.028 50.6118 164.722 50.677 164.461 50.8074C164.2 50.9377 163.995 51.117 163.845 51.3451C163.695 51.5668 163.62 51.821 163.62 52.1078C163.62 52.3555 163.689 52.5934 163.826 52.8216C163.962 53.0432 164.165 53.2257 164.432 53.3691C164.706 53.506 165.038 53.5745 165.429 53.5745ZM170.771 54.1709C170.283 54.1709 169.817 54.0927 169.373 53.9362C168.93 53.7733 168.578 53.5582 168.317 53.2909L168.659 52.7336C168.875 52.9617 169.168 53.1508 169.539 53.3007C169.918 53.4506 170.325 53.5256 170.762 53.5256C171.342 53.5256 171.782 53.3985 172.082 53.1442C172.388 52.8835 172.541 52.5445 172.541 52.1274C172.541 51.834 172.47 51.5831 172.326 51.3745C172.189 51.1594 171.955 50.9931 171.622 50.8758C171.29 50.7585 170.833 50.6998 170.253 50.6998H168.796L169.148 47.2678H172.893V47.8936H169.432L169.794 47.5514L169.491 50.426L169.129 50.074H170.41C171.101 50.074 171.655 50.1588 172.072 50.3282C172.489 50.4977 172.789 50.7357 172.971 51.042C173.161 51.3419 173.255 51.6939 173.255 52.098C173.255 52.4826 173.164 52.8346 172.981 53.154C172.799 53.4669 172.525 53.7146 172.16 53.8971C171.795 54.0797 171.332 54.1709 170.771 54.1709Z" fill="black"/>
<rect x="180.615" y="38.2233" width="24.4444" height="24.4444" fill="white" stroke="#E3E3E3" stroke-width="0.611111"/>
<path d="M205.059 38.2233H222.17C226.22 38.2233 229.503 41.5066 229.503 45.5567V62.6678H205.059V38.2233Z" fill="white" stroke="#E3E3E3" stroke-width="0.611111"/>
<path d="M213.334 43.5806C213.932 44.8505 215.042 45.9233 215.534 47.2694C216.004 48.5548 216.922 49.7264 217.734 50.8249C218.138 51.3723 218.803 52.3805 218.978 53.0248C219.109 53.5056 219.178 53.9152 219.534 54.2915C220.068 54.857 219.835 55.621 220.534 56.1803" stroke="#FF6534" stroke-width="6" stroke-linecap="round"/>
<path d="M209.334 54.1804C210.542 53.2137 212.122 52.4586 213.423 51.5915C215.325 50.3233 217.419 49.4741 219.445 48.425C220.959 47.6406 222.745 46.9099 224.333 46.3806" stroke="#FF6534" stroke-width="6" stroke-linecap="round"/>
<path d="M214.402 54.1709C213.855 54.1709 213.382 54.0927 212.984 53.9362C212.593 53.7798 212.29 53.5549 212.075 53.2616C211.866 52.9617 211.762 52.6097 211.762 52.2056C211.762 51.8145 211.863 51.482 212.065 51.2082C212.274 50.9279 212.574 50.7128 212.965 50.5629C213.362 50.413 213.841 50.338 214.402 50.338C214.956 50.338 215.432 50.413 215.83 50.5629C216.227 50.7128 216.53 50.9279 216.739 51.2082C216.954 51.482 217.062 51.8145 217.062 52.2056C217.062 52.6097 216.954 52.9617 216.739 53.2616C216.524 53.5549 216.217 53.7798 215.82 53.9362C215.422 54.0927 214.95 54.1709 214.402 54.1709ZM214.402 53.5745C215.008 53.5745 215.481 53.4506 215.82 53.2029C216.165 52.9552 216.338 52.6195 216.338 52.1958C216.338 51.7721 216.165 51.4397 215.82 51.1985C215.481 50.9508 215.008 50.8269 214.402 50.8269C213.796 50.8269 213.323 50.9508 212.984 51.1985C212.645 51.4397 212.476 51.7721 212.476 52.1958C212.476 52.6195 212.645 52.9552 212.984 53.2029C213.323 53.4506 213.796 53.5745 214.402 53.5745ZM214.402 50.7389C213.894 50.7389 213.46 50.6705 213.102 50.5336C212.75 50.3967 212.479 50.2011 212.29 49.9469C212.101 49.6862 212.007 49.3765 212.007 49.018C212.007 48.6399 212.104 48.3173 212.3 48.05C212.502 47.7762 212.782 47.5677 213.141 47.4242C213.499 47.2808 213.92 47.2091 214.402 47.2091C214.884 47.2091 215.305 47.2808 215.663 47.4242C216.028 47.5677 216.312 47.7762 216.514 48.05C216.716 48.3173 216.817 48.6399 216.817 49.018C216.817 49.3765 216.723 49.6862 216.534 49.9469C216.345 50.2011 216.068 50.3967 215.703 50.5336C215.344 50.6705 214.911 50.7389 214.402 50.7389ZM214.402 50.2696C214.937 50.2696 215.354 50.1588 215.654 49.9371C215.953 49.7155 216.103 49.4189 216.103 49.0474C216.103 48.6562 215.947 48.3531 215.634 48.138C215.328 47.9164 214.917 47.8056 214.402 47.8056C213.887 47.8056 213.476 47.9164 213.17 48.138C212.864 48.3531 212.711 48.653 212.711 49.0376C212.711 49.4157 212.857 49.7155 213.151 49.9371C213.45 50.1588 213.868 50.2696 214.402 50.2696ZM220.08 54.1709C219.585 54.1709 219.115 54.0927 218.672 53.9362C218.235 53.7733 217.883 53.5582 217.616 53.2909L217.958 52.7336C218.18 52.9617 218.476 53.1508 218.848 53.3007C219.226 53.4506 219.637 53.5256 220.08 53.5256C220.647 53.5256 221.081 53.4017 221.38 53.154C221.687 52.9063 221.84 52.5739 221.84 52.1567C221.84 51.7395 221.69 51.4071 221.39 51.1594C221.097 50.9117 220.631 50.7878 219.992 50.7878H219.503V50.2696L221.615 47.6198L221.713 47.8936H217.9V47.2678H222.3V47.7665L220.188 50.4162L219.845 50.1914H220.109C220.931 50.1914 221.543 50.3739 221.948 50.7389C222.358 51.1039 222.564 51.5733 222.564 52.1469C222.564 52.5315 222.472 52.877 222.29 53.1834C222.107 53.4897 221.83 53.7309 221.459 53.9069C221.094 54.0829 220.634 54.1709 220.08 54.1709Z" fill="black"/>
<rect x="9.50391" y="62.6677" width="24.4444" height="24.4444" fill="white" stroke="#E3E3E3" stroke-width="0.611111"/>
<path d="M18.334 67.5807C18.9316 68.8505 20.0421 69.9233 20.5339 71.2695C21.0036 72.5549 21.9219 73.7264 22.7339 74.825C23.1385 75.3724 23.8026 76.3806 23.9783 77.0249C24.1094 77.5057 24.1784 77.9152 24.5338 78.2915C25.068 78.8571 24.8347 79.6211 25.5338 80.1804" stroke="#FF6534" stroke-width="6" stroke-linecap="round"/>
<path d="M14.3337 78.1804C15.5421 77.2137 17.122 76.4586 18.4225 75.5916C20.3248 74.3234 22.4187 73.4742 24.4446 72.425C25.9592 71.6406 27.7455 70.9099 29.3334 70.3806" stroke="#FF6534" stroke-width="6" stroke-linecap="round"/>
<path d="M20.5021 78.5566L23.455 72.0251L23.6701 72.338H19.4363L19.7981 71.9958V73.6189H19.1039V71.7122H24.1297V72.2109L21.2648 78.5566H20.5021Z" fill="black"/>
<rect x="33.9473" y="62.6677" width="24.4444" height="24.4444" fill="white" stroke="#E3E3E3" stroke-width="0.611111"/>
<path d="M42.334 67.5807C42.9316 68.8505 44.0421 69.9233 44.5339 71.2695C45.0036 72.5549 45.9219 73.7264 46.7339 74.825C47.1385 75.3724 47.8026 76.3806 47.9783 77.0249C48.1094 77.5057 48.1784 77.9152 48.5338 78.2915C49.068 78.8571 48.8347 79.6211 49.5338 80.1804" stroke="#FF6534" stroke-width="6" stroke-linecap="round"/>
<path d="M38.3337 78.1804C39.5421 77.2137 41.122 76.4586 42.4225 75.5916C44.3248 74.3234 46.4187 73.4742 48.4446 72.425C49.9592 71.6406 51.7455 70.9099 53.3334 70.3806" stroke="#FF6534" stroke-width="6" stroke-linecap="round"/>
<path d="M43.0583 78.5566V72.0055L43.3712 72.338H41.445V71.7122H43.7623V78.5566H43.0583ZM47.5593 78.6153C47.0704 78.6153 46.6043 78.5371 46.1611 78.3806C45.7178 78.2177 45.3658 78.0026 45.1051 77.7353L45.4473 77.178C45.6624 77.4061 45.9558 77.5952 46.3273 77.7451C46.7054 77.895 47.1128 77.97 47.5495 77.97C48.1297 77.97 48.5697 77.8429 48.8695 77.5886C49.1759 77.3279 49.3291 76.9889 49.3291 76.5718C49.3291 76.2784 49.2574 76.0275 49.114 75.8189C48.9771 75.6038 48.7424 75.4375 48.41 75.3202C48.0775 75.2029 47.6212 75.1442 47.0411 75.1442H45.5842L45.9362 71.7122H49.6811V72.338H46.2198L46.5815 71.9958L46.2784 74.8704L45.9166 74.5184H47.1975C47.8885 74.5184 48.4426 74.6032 48.8598 74.7726C49.2769 74.9421 49.5768 75.18 49.7593 75.4864C49.9483 75.7863 50.0429 76.1383 50.0429 76.5424C50.0429 76.927 49.9516 77.279 49.7691 77.5984C49.5866 77.9113 49.3128 78.159 48.9478 78.3415C48.5827 78.524 48.1199 78.6153 47.5593 78.6153Z" fill="black"/>
<rect x="58.3926" y="62.6677" width="24.4444" height="24.4444" fill="white" stroke="#E3E3E3" stroke-width="0.611111"/>
<rect x="82.8364" y="62.6677" width="24.4444" height="24.4444" fill="white" stroke="#E3E3E3" stroke-width="0.611111"/>
<path d="M91.3335 67.5807C91.9311 68.8505 93.0416 69.9233 93.5334 71.2695C94.0031 72.5549 94.9214 73.7264 95.7334 74.825C96.138 75.3724 96.8021 76.3806 96.9778 77.0249C97.1089 77.5057 97.1779 77.9152 97.5333 78.2915C98.0675 78.8571 97.8342 79.6211 98.5333 80.1804" stroke="#FF6534" stroke-width="6" stroke-linecap="round"/>
<path d="M87.3332 78.1804C88.5416 77.2137 90.1215 76.4586 91.422 75.5916C93.3244 74.3234 95.4182 73.4742 97.4441 72.425C98.9587 71.6406 100.745 70.9099 102.333 70.3806" stroke="#FF6534" stroke-width="6" stroke-linecap="round"/>
<path d="M92.8077 78.6153C92.3123 78.6153 91.843 78.5371 91.3997 78.3806C90.963 78.2177 90.611 78.0026 90.3437 77.7353L90.6859 77.178C90.9075 77.4061 91.2041 77.5952 91.5757 77.7451C91.9538 77.895 92.3644 77.97 92.8077 77.97C93.3748 77.97 93.8083 77.8461 94.1081 77.5984C94.4145 77.3507 94.5677 77.0183 94.5677 76.6011C94.5677 76.1839 94.4178 75.8515 94.1179 75.6038C93.8246 75.356 93.3585 75.2322 92.7197 75.2322H92.2308V74.714L94.3428 72.0642L94.4406 72.338H90.6273V71.7122H95.0273V72.2109L92.9153 74.8606L92.573 74.6358H92.837C93.6584 74.6358 94.2711 74.8183 94.6753 75.1833C95.0859 75.5483 95.2913 76.0177 95.2913 76.5913C95.2913 76.9759 95.2 77.3214 95.0175 77.6278C94.835 77.9341 94.5579 78.1753 94.1864 78.3513C93.8213 78.5273 93.3618 78.6153 92.8077 78.6153ZM97.4761 78.5566V72.0055L97.789 72.338H95.8628V71.7122H98.1801V78.5566H97.4761Z" fill="black"/>
<rect x="107.282" y="62.6677" width="24.4444" height="24.4444" fill="white" stroke="#E3E3E3" stroke-width="0.611111"/>
<rect x="131.726" y="62.6677" width="24.4444" height="24.4444" fill="white" stroke="#E3E3E3" stroke-width="0.611111"/>
<rect x="156.169" y="62.6677" width="24.4444" height="24.4444" fill="white" stroke="#E3E3E3" stroke-width="0.611111"/>
<rect x="180.615" y="62.6677" width="24.4444" height="24.4444" fill="white" stroke="#E3E3E3" stroke-width="0.611111"/>
<path d="M189.334 67.5807C189.932 68.8505 191.042 69.9233 191.534 71.2695C192.004 72.5549 192.922 73.7264 193.734 74.825C194.138 75.3724 194.803 76.3806 194.978 77.0249C195.109 77.5057 195.178 77.9152 195.534 78.2915C196.068 78.8571 195.835 79.6211 196.534 80.1804" stroke="#FF6534" stroke-width="6" stroke-linecap="round"/>
<path d="M185.334 78.1804C186.542 77.2137 188.122 76.4586 189.423 75.5916C191.325 74.3234 193.419 73.4742 195.445 72.425C196.959 71.6406 198.745 70.9099 200.333 70.3806" stroke="#FF6534" stroke-width="6" stroke-linecap="round"/>
<path d="M188.285 78.5566L191.238 72.0251L191.453 72.338H187.22L187.581 71.9958V73.6189H186.887V71.7122H191.913V72.2109L189.048 78.5566H188.285ZM195.456 78.6153C194.85 78.6153 194.338 78.4817 193.921 78.2144C193.504 77.9406 193.187 77.5495 192.972 77.0411C192.757 76.5261 192.65 75.9101 192.65 75.1931C192.65 74.4174 192.78 73.7688 193.041 73.2473C193.308 72.7193 193.676 72.3217 194.146 72.0544C194.615 71.7872 195.159 71.6535 195.779 71.6535C196.085 71.6535 196.378 71.6829 196.659 71.7415C196.939 71.8002 197.187 71.8947 197.402 72.0251L197.118 72.5922C196.942 72.4749 196.74 72.3934 196.512 72.3478C196.284 72.2956 196.043 72.2695 195.788 72.2695C195.052 72.2695 194.462 72.5042 194.019 72.9735C193.582 73.4429 193.363 74.1436 193.363 75.0758C193.363 75.2192 193.37 75.3984 193.383 75.6135C193.403 75.8221 193.442 76.0307 193.5 76.2393L193.256 76.0535C193.328 75.7146 193.468 75.4278 193.676 75.1931C193.885 74.9519 194.146 74.7694 194.459 74.6455C194.771 74.5217 195.114 74.4598 195.485 74.4598C195.941 74.4598 196.342 74.5445 196.688 74.714C197.033 74.8835 197.304 75.1214 197.499 75.4278C197.695 75.7341 197.793 76.0959 197.793 76.5131C197.793 76.9368 197.692 77.3083 197.49 77.6278C197.288 77.9406 197.007 78.1851 196.649 78.3611C196.297 78.5306 195.899 78.6153 195.456 78.6153ZM195.427 78.0189C195.752 78.0189 196.039 77.9602 196.287 77.8429C196.541 77.719 196.74 77.5463 196.883 77.3246C197.027 77.0965 197.099 76.8325 197.099 76.5326C197.099 76.0829 196.942 75.7243 196.629 75.4571C196.323 75.1898 195.906 75.0562 195.378 75.0562C195.026 75.0562 194.719 75.1214 194.459 75.2518C194.198 75.3821 193.992 75.5614 193.843 75.7895C193.693 76.0112 193.618 76.2654 193.618 76.5522C193.618 76.7999 193.686 77.0378 193.823 77.266C193.96 77.4876 194.162 77.6701 194.429 77.8135C194.703 77.9504 195.035 78.0189 195.427 78.0189Z" fill="black"/>
<rect x="205.059" y="62.6677" width="24.4444" height="24.4444" fill="white" stroke="#E3E3E3" stroke-width="0.611111"/>
<path d="M214.334 67.5807C214.932 68.8505 216.042 69.9233 216.534 71.2695C217.004 72.5549 217.922 73.7264 218.734 74.825C219.138 75.3724 219.803 76.3806 219.978 77.0249C220.109 77.5057 220.178 77.9152 220.534 78.2915C221.068 78.8571 220.835 79.6211 221.534 80.1804" stroke="#FF6534" stroke-width="6" stroke-linecap="round"/>
<path d="M210.334 78.1804C211.542 77.2137 213.122 76.4586 214.423 75.5916C216.325 74.3234 218.419 73.4742 220.445 72.425C221.959 71.6406 223.745 70.9099 225.333 70.3806" stroke="#FF6534" stroke-width="6" stroke-linecap="round"/>
<path d="M214.682 78.6153C214.135 78.6153 213.662 78.5371 213.265 78.3806C212.874 78.2242 212.57 77.9993 212.355 77.706C212.147 77.4061 212.042 77.0541 212.042 76.65C212.042 76.2589 212.144 75.9264 212.346 75.6526C212.554 75.3723 212.854 75.1572 213.245 75.0073C213.643 74.8574 214.122 74.7824 214.682 74.7824C215.237 74.7824 215.712 74.8574 216.11 75.0073C216.508 75.1572 216.811 75.3723 217.019 75.6526C217.234 75.9264 217.342 76.2589 217.342 76.65C217.342 77.0541 217.234 77.4061 217.019 77.706C216.804 77.9993 216.498 78.2242 216.1 78.3806C215.703 78.5371 215.23 78.6153 214.682 78.6153ZM214.682 78.0189C215.289 78.0189 215.761 77.895 216.1 77.6473C216.446 77.3996 216.618 77.0639 216.618 76.6402C216.618 76.2165 216.446 75.884 216.1 75.6429C215.761 75.3952 215.289 75.2713 214.682 75.2713C214.076 75.2713 213.604 75.3952 213.265 75.6429C212.926 75.884 212.756 76.2165 212.756 76.6402C212.756 77.0639 212.926 77.3996 213.265 77.6473C213.604 77.895 214.076 78.0189 214.682 78.0189ZM214.682 75.1833C214.174 75.1833 213.741 75.1149 213.382 74.978C213.03 74.8411 212.76 74.6455 212.57 74.3913C212.381 74.1306 212.287 73.8209 212.287 73.4624C212.287 73.0843 212.385 72.7617 212.58 72.4944C212.782 72.2206 213.063 72.012 213.421 71.8686C213.78 71.7252 214.2 71.6535 214.682 71.6535C215.165 71.6535 215.585 71.7252 215.944 71.8686C216.309 72.012 216.592 72.2206 216.794 72.4944C216.997 72.7617 217.098 73.0843 217.098 73.4624C217.098 73.8209 217.003 74.1306 216.814 74.3913C216.625 74.6455 216.348 74.8411 215.983 74.978C215.624 75.1149 215.191 75.1833 214.682 75.1833ZM214.682 74.714C215.217 74.714 215.634 74.6032 215.934 74.3815C216.234 74.1599 216.384 73.8633 216.384 73.4918C216.384 73.1006 216.227 72.7975 215.914 72.5824C215.608 72.3608 215.197 72.25 214.682 72.25C214.168 72.25 213.757 72.3608 213.45 72.5824C213.144 72.7975 212.991 73.0974 212.991 73.482C212.991 73.86 213.138 74.1599 213.431 74.3815C213.731 74.6032 214.148 74.714 214.682 74.714ZM221.123 78.6153C220.517 78.6153 220.005 78.4817 219.588 78.2144C219.171 77.9406 218.855 77.5495 218.639 77.0411C218.424 76.5261 218.317 75.9101 218.317 75.1931C218.317 74.4174 218.447 73.7688 218.708 73.2473C218.975 72.7193 219.343 72.3217 219.813 72.0544C220.282 71.7872 220.826 71.6535 221.446 71.6535C221.752 71.6535 222.045 71.6829 222.326 71.7415C222.606 71.8002 222.854 71.8947 223.069 72.0251L222.785 72.5922C222.609 72.4749 222.407 72.3934 222.179 72.3478C221.951 72.2956 221.71 72.2695 221.455 72.2695C220.719 72.2695 220.129 72.5042 219.686 72.9735C219.249 73.4429 219.031 74.1436 219.031 75.0758C219.031 75.2192 219.037 75.3984 219.05 75.6135C219.07 75.8221 219.109 76.0307 219.167 76.2393L218.923 76.0535C218.995 75.7146 219.135 75.4278 219.343 75.1931C219.552 74.9519 219.813 74.7694 220.126 74.6455C220.439 74.5217 220.781 74.4598 221.152 74.4598C221.609 74.4598 222.01 74.5445 222.355 74.714C222.701 74.8835 222.971 75.1214 223.167 75.4278C223.362 75.7341 223.46 76.0959 223.46 76.5131C223.46 76.9368 223.359 77.3083 223.157 77.6278C222.955 77.9406 222.674 78.1851 222.316 78.3611C221.964 78.5306 221.566 78.6153 221.123 78.6153ZM221.094 78.0189C221.42 78.0189 221.706 77.9602 221.954 77.8429C222.208 77.719 222.407 77.5463 222.551 77.3246C222.694 77.0965 222.766 76.8325 222.766 76.5326C222.766 76.0829 222.609 75.7243 222.296 75.4571C221.99 75.1898 221.573 75.0562 221.045 75.0562C220.693 75.0562 220.386 75.1214 220.126 75.2518C219.865 75.3821 219.66 75.5614 219.51 75.7895C219.36 76.0112 219.285 76.2654 219.285 76.5522C219.285 76.7999 219.353 77.0378 219.49 77.266C219.627 77.4876 219.829 77.6701 220.096 77.8135C220.37 77.9504 220.703 78.0189 221.094 78.0189Z" fill="black"/>
<path d="M9.50391 87.1122H33.9484V111.557H16.8372C12.7871 111.557 9.50391 108.273 9.50391 104.223V87.1122Z" fill="white" stroke="#E3E3E3" stroke-width="0.611111"/>
<rect x="33.9473" y="87.1122" width="24.4444" height="24.4444" fill="white" stroke="#E3E3E3" stroke-width="0.611111"/>
<rect x="58.3926" y="87.1122" width="24.4444" height="24.4444" fill="white" stroke="#E3E3E3" stroke-width="0.611111"/>
<path d="M67.334 92.5806C67.9316 93.8504 69.0421 94.9232 69.5339 96.2694C70.0036 97.5548 70.9219 98.7263 71.7339 99.8248C72.1385 100.372 72.8026 101.38 72.9783 102.025C73.1094 102.506 73.1784 102.915 73.5338 103.291C74.068 103.857 73.8347 104.621 74.5338 105.18" stroke="#FF6534" stroke-width="6" stroke-linecap="round"/>
<path d="M63.3337 103.18C64.5421 102.214 66.122 101.459 67.4225 100.591C69.3248 99.3233 71.4187 98.474 73.4446 97.4249C74.9592 96.6405 76.7455 95.9098 78.3334 95.3805" stroke="#FF6534" stroke-width="6" stroke-linecap="round"/>
<path d="M65.3792 103.001V102.502L68.2245 99.7158C68.4852 99.4615 68.6808 99.2399 68.8112 99.0509C68.9415 98.8553 69.0295 98.6728 69.0752 98.5033C69.1208 98.3338 69.1436 98.1741 69.1436 98.0242C69.1436 97.6266 69.0067 97.3137 68.7329 97.0855C68.4657 96.8574 68.0681 96.7433 67.5401 96.7433C67.1359 96.7433 66.7774 96.8052 66.4645 96.9291C66.1581 97.053 65.8941 97.2452 65.6725 97.506L65.1738 97.0758C65.4411 96.7629 65.7833 96.5217 66.2005 96.3522C66.6177 96.1827 67.0838 96.098 67.5987 96.098C68.0615 96.098 68.4624 96.173 68.8014 96.3229C69.1403 96.4663 69.4011 96.6781 69.5836 96.9584C69.7726 97.2387 69.8672 97.5679 69.8672 97.946C69.8672 98.1676 69.8346 98.386 69.7694 98.6011C69.7107 98.8162 69.5999 99.0444 69.4369 99.2855C69.2805 99.5202 69.0491 99.7875 68.7427 100.087L66.1321 102.649L65.9365 102.375H70.1801V103.001H65.3792ZM73.7725 103.06C73.2445 103.06 72.7751 102.923 72.3645 102.649C71.9538 102.369 71.6311 101.971 71.3965 101.456C71.1618 100.935 71.0445 100.309 71.0445 99.5789C71.0445 98.8488 71.1618 98.2263 71.3965 97.7113C71.6311 97.1898 71.9538 96.7922 72.3645 96.5184C72.7751 96.2381 73.2445 96.098 73.7725 96.098C74.3005 96.098 74.7698 96.2381 75.1805 96.5184C75.5911 96.7922 75.9138 97.1898 76.1485 97.7113C76.3897 98.2263 76.5102 98.8488 76.5102 99.5789C76.5102 100.309 76.3897 100.935 76.1485 101.456C75.9138 101.971 75.5911 102.369 75.1805 102.649C74.7698 102.923 74.3005 103.06 73.7725 103.06ZM73.7725 102.414C74.1766 102.414 74.5286 102.307 74.8285 102.092C75.1283 101.87 75.363 101.551 75.5325 101.134C75.702 100.71 75.7867 100.192 75.7867 99.5789C75.7867 98.9661 75.702 98.4512 75.5325 98.034C75.363 97.6103 75.1283 97.2909 74.8285 97.0758C74.5286 96.8541 74.1766 96.7433 73.7725 96.7433C73.3814 96.7433 73.0326 96.8541 72.7262 97.0758C72.4199 97.2909 72.182 97.6103 72.0125 98.034C71.843 98.4512 71.7582 98.9661 71.7582 99.5789C71.7582 100.192 71.843 100.71 72.0125 101.134C72.182 101.551 72.4199 101.87 72.7262 102.092C73.0326 102.307 73.3814 102.414 73.7725 102.414Z" fill="black"/>
<rect x="82.8364" y="87.1122" width="24.4444" height="24.4444" fill="white" stroke="#E3E3E3" stroke-width="0.611111"/>
<rect x="107.282" y="87.1122" width="24.4444" height="24.4444" fill="white" stroke="#E3E3E3" stroke-width="0.611111"/>
<path d="M116.333 92.5806C116.931 93.8504 118.042 94.9232 118.533 96.2694C119.003 97.5548 119.921 98.7263 120.733 99.8248C121.138 100.372 121.802 101.38 121.978 102.025C122.109 102.506 122.178 102.915 122.533 103.291C123.067 103.857 122.834 104.621 123.533 105.18" stroke="#FF6534" stroke-width="6" stroke-linecap="round"/>
<path d="M112.333 103.18C113.542 102.214 115.121 101.459 116.422 100.591C118.324 99.3233 120.418 98.474 122.444 97.4249C123.959 96.6405 125.745 95.9098 127.333 95.3805" stroke="#FF6534" stroke-width="6" stroke-linecap="round"/>
<path d="M113.791 101.202V100.694L117.419 96.1567H118.201L114.603 100.694L114.222 100.576H119.727V101.202H113.791ZM117.654 103.001V101.202L117.673 100.576V98.9922H118.358V103.001H117.654ZM122.515 103.06C122.026 103.06 121.56 102.982 121.117 102.825C120.674 102.662 120.322 102.447 120.061 102.18L120.403 101.622C120.618 101.851 120.911 102.04 121.283 102.19C121.661 102.339 122.068 102.414 122.505 102.414C123.085 102.414 123.525 102.287 123.825 102.033C124.132 101.772 124.285 101.433 124.285 101.016C124.285 100.723 124.213 100.472 124.07 100.263C123.933 100.048 123.698 99.882 123.366 99.7647C123.033 99.6473 122.577 99.5887 121.997 99.5887H120.54L120.892 96.1567H124.637V96.7824H121.175L121.537 96.4402L121.234 99.3149L120.872 98.9629H122.153C122.844 98.9629 123.398 99.0476 123.815 99.2171C124.233 99.3866 124.532 99.6245 124.715 99.9309C124.904 100.231 124.999 100.583 124.999 100.987C124.999 101.371 124.907 101.723 124.725 102.043C124.542 102.356 124.268 102.603 123.903 102.786C123.538 102.969 123.076 103.06 122.515 103.06Z" fill="black"/>
<rect x="131.726" y="87.1122" width="24.4444" height="24.4444" fill="white" stroke="#E3E3E3" stroke-width="0.611111"/>
<path d="M140.333 92.5806C140.931 93.8504 142.042 94.9232 142.533 96.2694C143.003 97.5548 143.921 98.7263 144.733 99.8248C145.138 100.372 145.802 101.38 145.978 102.025C146.109 102.506 146.178 102.915 146.533 103.291C147.067 103.857 146.834 104.621 147.533 105.18" stroke="#FF6534" stroke-width="6" stroke-linecap="round"/>
<path d="M136.333 103.18C137.542 102.214 139.121 101.459 140.422 100.591C142.324 99.3233 144.418 98.474 146.444 97.4249C147.959 96.6405 149.745 95.9098 151.333 95.3805" stroke="#FF6534" stroke-width="6" stroke-linecap="round"/>
<path d="M141.803 103.06C141.314 103.06 140.848 102.982 140.405 102.825C139.962 102.662 139.61 102.447 139.349 102.18L139.691 101.622C139.906 101.851 140.2 102.04 140.571 102.19C140.949 102.339 141.357 102.414 141.793 102.414C142.374 102.414 142.814 102.287 143.113 102.033C143.42 101.772 143.573 101.433 143.573 101.016C143.573 100.723 143.501 100.472 143.358 100.263C143.221 100.048 142.986 99.882 142.654 99.7647C142.321 99.6473 141.865 99.5887 141.285 99.5887H139.828L140.18 96.1567H143.925V96.7824H140.464L140.825 96.4402L140.522 99.3149L140.161 98.9629H141.441C142.132 98.9629 142.686 99.0476 143.104 99.2171C143.521 99.3866 143.821 99.6245 144.003 99.9309C144.192 100.231 144.287 100.583 144.287 100.987C144.287 101.371 144.195 101.723 144.013 102.043C143.83 102.356 143.557 102.603 143.192 102.786C142.827 102.969 142.364 103.06 141.803 103.06ZM146.373 103.001V96.45L146.686 96.7824H144.76V96.1567H147.077V103.001H146.373Z" fill="black"/>
<rect x="156.169" y="87.1122" width="24.4444" height="24.4444" fill="white" stroke="#E3E3E3" stroke-width="0.611111"/>
<path d="M165.333 92.5806C165.931 93.8504 167.042 94.9232 167.533 96.2694C168.003 97.5548 168.921 98.7263 169.733 99.8248C170.138 100.372 170.802 101.38 170.978 102.025C171.109 102.506 171.178 102.915 171.533 103.291C172.067 103.857 171.834 104.621 172.533 105.18" stroke="#FF6534" stroke-width="6" stroke-linecap="round"/>
<path d="M161.333 103.18C162.542 102.214 164.121 101.459 165.422 100.591C167.324 99.3233 169.418 98.474 171.444 97.4249C172.959 96.6405 174.745 95.9098 176.333 95.3805" stroke="#FF6534" stroke-width="6" stroke-linecap="round"/>
<path d="M165.879 103.06C165.273 103.06 164.761 102.926 164.344 102.659C163.927 102.385 163.611 101.994 163.396 101.486C163.181 100.971 163.073 100.355 163.073 99.6375C163.073 98.8618 163.203 98.2132 163.464 97.6918C163.731 97.1638 164.1 96.7661 164.569 96.4989C165.038 96.2316 165.583 96.098 166.202 96.098C166.508 96.098 166.802 96.1273 167.082 96.186C167.362 96.2447 167.61 96.3392 167.825 96.4695L167.542 97.0367C167.366 96.9193 167.163 96.8378 166.935 96.7922C166.707 96.7401 166.466 96.714 166.212 96.714C165.475 96.714 164.885 96.9487 164.442 97.418C164.005 97.8873 163.787 98.5881 163.787 99.5202C163.787 99.6636 163.793 99.8429 163.806 100.058C163.826 100.267 163.865 100.475 163.924 100.684L163.679 100.498C163.751 100.159 163.891 99.8722 164.1 99.6375C164.308 99.3964 164.569 99.2138 164.882 99.09C165.195 98.9661 165.537 98.9042 165.909 98.9042C166.365 98.9042 166.766 98.989 167.111 99.1584C167.457 99.3279 167.727 99.5658 167.923 99.8722C168.118 100.179 168.216 100.54 168.216 100.958C168.216 101.381 168.115 101.753 167.913 102.072C167.711 102.385 167.431 102.63 167.072 102.806C166.72 102.975 166.323 103.06 165.879 103.06ZM165.85 102.463C166.176 102.463 166.463 102.405 166.71 102.287C166.965 102.163 167.163 101.991 167.307 101.769C167.45 101.541 167.522 101.277 167.522 100.977C167.522 100.527 167.366 100.169 167.053 99.9015C166.746 99.6343 166.329 99.5007 165.801 99.5007C165.449 99.5007 165.143 99.5658 164.882 99.6962C164.621 99.8266 164.416 100.006 164.266 100.234C164.116 100.456 164.041 100.71 164.041 100.997C164.041 101.244 164.11 101.482 164.246 101.71C164.383 101.932 164.585 102.115 164.853 102.258C165.126 102.395 165.459 102.463 165.85 102.463ZM171.759 103.06C171.231 103.06 170.762 102.923 170.351 102.649C169.941 102.369 169.618 101.971 169.383 101.456C169.149 100.935 169.031 100.309 169.031 99.5789C169.031 98.8488 169.149 98.2263 169.383 97.7113C169.618 97.1898 169.941 96.7922 170.351 96.5184C170.762 96.2381 171.231 96.098 171.759 96.098C172.287 96.098 172.757 96.2381 173.167 96.5184C173.578 96.7922 173.901 97.1898 174.135 97.7113C174.377 98.2263 174.497 98.8488 174.497 99.5789C174.497 100.309 174.377 100.935 174.135 101.456C173.901 101.971 173.578 102.369 173.167 102.649C172.757 102.923 172.287 103.06 171.759 103.06ZM171.759 102.414C172.164 102.414 172.516 102.307 172.815 102.092C173.115 101.87 173.35 101.551 173.519 101.134C173.689 100.71 173.774 100.192 173.774 99.5789C173.774 98.9661 173.689 98.4512 173.519 98.034C173.35 97.6103 173.115 97.2909 172.815 97.0758C172.516 96.8541 172.164 96.7433 171.759 96.7433C171.368 96.7433 171.02 96.8541 170.713 97.0758C170.407 97.2909 170.169 97.6103 169.999 98.034C169.83 98.4512 169.745 98.9661 169.745 99.5789C169.745 100.192 169.83 100.71 169.999 101.134C170.169 101.551 170.407 101.87 170.713 102.092C171.02 102.307 171.368 102.414 171.759 102.414Z" fill="black"/>
<rect x="180.615" y="87.1122" width="24.4444" height="24.4444" fill="white" stroke="#E3E3E3" stroke-width="0.611111"/>
<path d="M189.334 92.5806C189.932 93.8504 191.042 94.9232 191.534 96.2694C192.004 97.5548 192.922 98.7263 193.734 99.8248C194.138 100.372 194.803 101.38 194.978 102.025C195.109 102.506 195.178 102.915 195.534 103.291C196.068 103.857 195.835 104.621 196.534 105.18" stroke="#FF6534" stroke-width="6" stroke-linecap="round"/>
<path d="M185.334 103.18C186.542 102.214 188.122 101.459 189.423 100.591C191.325 99.3233 193.419 98.474 195.445 97.4249C196.959 96.6405 198.745 95.9098 200.333 95.3805" stroke="#FF6534" stroke-width="6" stroke-linecap="round"/>
<path d="M188.491 103.001L191.444 96.4695L191.659 96.7824H187.425L187.787 96.4402V98.0633H187.093V96.1567H192.118V96.6553L189.253 103.001H188.491ZM195.025 103.06C194.536 103.06 194.07 102.982 193.627 102.825C193.184 102.662 192.832 102.447 192.571 102.18L192.913 101.622C193.128 101.851 193.422 102.04 193.793 102.19C194.171 102.339 194.579 102.414 195.016 102.414C195.596 102.414 196.036 102.287 196.336 102.033C196.642 101.772 196.795 101.433 196.795 101.016C196.795 100.723 196.723 100.472 196.58 100.263C196.443 100.048 196.208 99.882 195.876 99.7647C195.544 99.6473 195.087 99.5887 194.507 99.5887H193.05L193.402 96.1567H197.147V96.7824H193.686L194.048 96.4402L193.744 99.3149L193.383 98.9629H194.664C195.355 98.9629 195.909 99.0476 196.326 99.2171C196.743 99.3866 197.043 99.6245 197.225 99.9309C197.414 100.231 197.509 100.583 197.509 100.987C197.509 101.371 197.418 101.723 197.235 102.043C197.053 102.356 196.779 102.603 196.414 102.786C196.049 102.969 195.586 103.06 195.025 103.06Z" fill="black"/>
<path d="M205.059 87.1122H229.503V104.223C229.503 108.273 226.22 111.557 222.17 111.557H205.059V87.1122Z" fill="white" stroke="#E3E3E3" stroke-width="0.611111"/>
<path d="M9.50391 126.223C9.50391 122.173 12.7872 118.89 16.8372 118.89H33.9484V143.334H9.50391V126.223Z" fill="white" stroke="#E3E3E3" stroke-width="0.611111"/>
<rect x="33.9473" y="118.89" width="24.4444" height="24.4444" fill="white" stroke="#E3E3E3" stroke-width="0.611111"/>
<path d="M43.334 124.581C43.9316 125.85 45.0421 126.923 45.5339 128.269C46.0036 129.555 46.9219 130.726 47.7339 131.825C48.1385 132.372 48.8026 133.381 48.9783 134.025C49.1094 134.506 49.1784 134.915 49.5338 135.291C50.068 135.857 49.8347 136.621 50.5338 137.18" stroke="#FF6534" stroke-width="6" stroke-linecap="round"/>
<path d="M39.3337 135.18C40.5421 134.214 42.122 133.459 43.4225 132.592C45.3248 131.323 47.4187 130.474 49.4446 129.425C50.9592 128.641 52.7455 127.91 54.3334 127.381" stroke="#FF6534" stroke-width="6" stroke-linecap="round"/>
<path d="M42.2369 134.779V128.227L42.5498 128.56H40.6236V127.934H42.9409V134.779H42.2369ZM47.3832 134.837C46.777 134.837 46.2653 134.704 45.8481 134.436C45.4309 134.163 45.1148 133.771 44.8997 133.263C44.6846 132.748 44.577 132.132 44.577 131.415C44.577 130.639 44.7074 129.991 44.9681 129.469C45.2354 128.941 45.6037 128.544 46.073 128.276C46.5424 128.009 47.0867 127.875 47.7059 127.875C48.0123 127.875 48.3056 127.905 48.5859 127.963C48.8662 128.022 49.1139 128.117 49.329 128.247L49.0455 128.814C48.8695 128.697 48.6674 128.615 48.4392 128.57C48.2111 128.517 47.9699 128.491 47.7157 128.491C46.9791 128.491 46.3892 128.726 45.9459 129.195C45.5092 129.665 45.2908 130.365 45.2908 131.298C45.2908 131.441 45.2973 131.62 45.3104 131.835C45.3299 132.044 45.369 132.253 45.4277 132.461L45.1832 132.275C45.2549 131.936 45.3951 131.65 45.6037 131.415C45.8123 131.174 46.073 130.991 46.3859 130.867C46.6988 130.744 47.041 130.682 47.4126 130.682C47.8689 130.682 48.2698 130.766 48.6152 130.936C48.9607 131.105 49.2312 131.343 49.4268 131.65C49.6224 131.956 49.7201 132.318 49.7201 132.735C49.7201 133.159 49.6191 133.53 49.417 133.85C49.2149 134.163 48.9347 134.407 48.5761 134.583C48.2241 134.752 47.8265 134.837 47.3832 134.837ZM47.3539 134.241C47.6798 134.241 47.9667 134.182 48.2144 134.065C48.4686 133.941 48.6674 133.768 48.8108 133.547C48.9542 133.318 49.0259 133.054 49.0259 132.755C49.0259 132.305 48.8695 131.946 48.5566 131.679C48.2502 131.412 47.833 131.278 47.305 131.278C46.953 131.278 46.6467 131.343 46.3859 131.474C46.1252 131.604 45.9198 131.783 45.7699 132.011C45.62 132.233 45.545 132.487 45.545 132.774C45.545 133.022 45.6135 133.26 45.7504 133.488C45.8872 133.709 46.0893 133.892 46.3566 134.035C46.6304 134.172 46.9628 134.241 47.3539 134.241Z" fill="black"/>
<rect x="58.3926" y="118.89" width="24.4444" height="24.4444" fill="white" stroke="#E3E3E3" stroke-width="0.611111"/>
<rect x="82.8364" y="118.89" width="24.4444" height="24.4444" fill="white" stroke="#E3E3E3" stroke-width="0.611111"/>
<rect x="107.282" y="118.89" width="24.4444" height="24.4444" fill="white" stroke="#E3E3E3" stroke-width="0.611111"/>
<path d="M116.333 124.581C116.931 125.85 118.042 126.923 118.533 128.269C119.003 129.555 119.921 130.726 120.733 131.825C121.138 132.372 121.802 133.381 121.978 134.025C122.109 134.506 122.178 134.915 122.533 135.291C123.067 135.857 122.834 136.621 123.533 137.18" stroke="#FF6534" stroke-width="6" stroke-linecap="round"/>
<path d="M112.333 135.18C113.542 134.214 115.121 133.459 116.422 132.592C118.324 131.323 120.418 130.474 122.444 129.425C123.959 128.641 125.745 127.91 127.333 127.381" stroke="#FF6534" stroke-width="6" stroke-linecap="round"/>
<path d="M114.282 132.979V132.471L117.909 127.934H118.692L115.093 132.471L114.712 132.354H120.217V132.979H114.282ZM118.144 134.779V132.979L118.164 132.354V130.77H118.848V134.779H118.144ZM120.717 134.779V134.28L123.563 131.493C123.824 131.239 124.019 131.017 124.149 130.828C124.28 130.633 124.368 130.45 124.413 130.281C124.459 130.111 124.482 129.952 124.482 129.802C124.482 129.404 124.345 129.091 124.071 128.863C123.804 128.635 123.406 128.521 122.878 128.521C122.474 128.521 122.116 128.583 121.803 128.707C121.496 128.83 121.232 129.023 121.011 129.283L120.512 128.853C120.779 128.54 121.122 128.299 121.539 128.13C121.956 127.96 122.422 127.875 122.937 127.875C123.4 127.875 123.801 127.95 124.14 128.1C124.479 128.244 124.739 128.456 124.922 128.736C125.111 129.016 125.205 129.345 125.205 129.723C125.205 129.945 125.173 130.163 125.108 130.379C125.049 130.594 124.938 130.822 124.775 131.063C124.619 131.298 124.387 131.565 124.081 131.865L121.47 134.427L121.275 134.153H125.518V134.779H120.717Z" fill="black"/>
<rect x="131.726" y="118.89" width="24.4444" height="24.4444" fill="white" stroke="#E3E3E3" stroke-width="0.611111"/>
<path d="M140.333 124.581C140.931 125.85 142.042 126.923 142.533 128.269C143.003 129.555 143.921 130.726 144.733 131.825C145.138 132.372 145.802 133.381 145.978 134.025C146.109 134.506 146.178 134.915 146.533 135.291C147.067 135.857 146.834 136.621 147.533 137.18" stroke="#FF6534" stroke-width="6" stroke-linecap="round"/>
<path d="M136.333 135.18C137.542 134.214 139.121 133.459 140.422 132.592C142.324 131.323 144.418 130.474 146.444 129.425C147.959 128.641 149.745 127.91 151.333 127.381" stroke="#FF6534" stroke-width="6" stroke-linecap="round"/>
<path d="M140.62 134.837C140.131 134.837 139.665 134.759 139.222 134.603C138.779 134.44 138.427 134.224 138.166 133.957L138.508 133.4C138.723 133.628 139.016 133.817 139.388 133.967C139.766 134.117 140.173 134.192 140.61 134.192C141.19 134.192 141.63 134.065 141.93 133.811C142.237 133.55 142.39 133.211 142.39 132.794C142.39 132.5 142.318 132.249 142.175 132.041C142.038 131.826 141.803 131.659 141.471 131.542C141.138 131.425 140.682 131.366 140.102 131.366H138.645L138.997 127.934H142.742V128.56H139.28L139.642 128.218L139.339 131.092L138.977 130.74H140.258C140.949 130.74 141.503 130.825 141.92 130.995C142.338 131.164 142.637 131.402 142.82 131.708C143.009 132.008 143.104 132.36 143.104 132.764C143.104 133.149 143.012 133.501 142.83 133.82C142.647 134.133 142.373 134.381 142.008 134.563C141.643 134.746 141.181 134.837 140.62 134.837ZM146.598 134.837C146.051 134.837 145.578 134.759 145.18 134.603C144.789 134.446 144.486 134.221 144.271 133.928C144.063 133.628 143.958 133.276 143.958 132.872C143.958 132.481 144.059 132.148 144.261 131.875C144.47 131.594 144.77 131.379 145.161 131.229C145.559 131.079 146.038 131.004 146.598 131.004C147.152 131.004 147.628 131.079 148.026 131.229C148.423 131.379 148.727 131.594 148.935 131.875C149.15 132.148 149.258 132.481 149.258 132.872C149.258 133.276 149.15 133.628 148.935 133.928C148.72 134.221 148.414 134.446 148.016 134.603C147.618 134.759 147.146 134.837 146.598 134.837ZM146.598 134.241C147.204 134.241 147.677 134.117 148.016 133.869C148.361 133.621 148.534 133.286 148.534 132.862C148.534 132.438 148.361 132.106 148.016 131.865C147.677 131.617 147.204 131.493 146.598 131.493C145.992 131.493 145.519 131.617 145.18 131.865C144.841 132.106 144.672 132.438 144.672 132.862C144.672 133.286 144.841 133.621 145.18 133.869C145.519 134.117 145.992 134.241 146.598 134.241ZM146.598 131.405C146.09 131.405 145.656 131.337 145.298 131.2C144.946 131.063 144.675 130.867 144.486 130.613C144.297 130.352 144.203 130.043 144.203 129.684C144.203 129.306 144.3 128.984 144.496 128.716C144.698 128.443 144.978 128.234 145.337 128.091C145.695 127.947 146.116 127.875 146.598 127.875C147.081 127.875 147.501 127.947 147.86 128.091C148.225 128.234 148.508 128.443 148.71 128.716C148.912 128.984 149.013 129.306 149.013 129.684C149.013 130.043 148.919 130.352 148.73 130.613C148.541 130.867 148.264 131.063 147.899 131.2C147.54 131.337 147.107 131.405 146.598 131.405ZM146.598 130.936C147.133 130.936 147.55 130.825 147.85 130.603C148.15 130.382 148.3 130.085 148.3 129.714C148.3 129.323 148.143 129.019 147.83 128.804C147.524 128.583 147.113 128.472 146.598 128.472C146.083 128.472 145.673 128.583 145.366 128.804C145.06 129.019 144.907 129.319 144.907 129.704C144.907 130.082 145.053 130.382 145.347 130.603C145.647 130.825 146.064 130.936 146.598 130.936Z" fill="black"/>
<rect x="156.169" y="118.89" width="24.4444" height="24.4444" fill="white" stroke="#E3E3E3" stroke-width="0.611111"/>
<rect x="180.615" y="118.89" width="24.4444" height="24.4444" fill="white" stroke="#E3E3E3" stroke-width="0.611111"/>
<path d="M189.334 124.581C189.932 125.85 191.042 126.923 191.534 128.269C192.004 129.555 192.922 130.726 193.734 131.825C194.138 132.372 194.803 133.381 194.978 134.025C195.109 134.506 195.178 134.915 195.534 135.291C196.068 135.857 195.835 136.621 196.534 137.18" stroke="#FF6534" stroke-width="6" stroke-linecap="round"/>
<path d="M185.334 135.18C186.542 134.214 188.122 133.459 189.423 132.592C191.325 131.323 193.419 130.474 195.445 129.425C196.959 128.641 198.745 127.91 200.333 127.381" stroke="#FF6534" stroke-width="6" stroke-linecap="round"/>
<path d="M188.453 134.779L191.405 128.247L191.621 128.56H187.387L187.749 128.218V129.841H187.054V127.934H192.08V128.433L189.215 134.779H188.453ZM194.965 134.837C194.47 134.837 194.001 134.759 193.557 134.603C193.121 134.44 192.769 134.224 192.501 133.957L192.844 133.4C193.065 133.628 193.362 133.817 193.733 133.967C194.111 134.117 194.522 134.192 194.965 134.192C195.532 134.192 195.966 134.068 196.266 133.82C196.572 133.573 196.725 133.24 196.725 132.823C196.725 132.406 196.575 132.073 196.276 131.826C195.982 131.578 195.516 131.454 194.877 131.454H194.388V130.936L196.5 128.286L196.598 128.56H192.785V127.934H197.185V128.433L195.073 131.083L194.731 130.858H194.995C195.816 130.858 196.429 131.04 196.833 131.405C197.244 131.77 197.449 132.24 197.449 132.813C197.449 133.198 197.358 133.543 197.175 133.85C196.993 134.156 196.716 134.397 196.344 134.573C195.979 134.749 195.519 134.837 194.965 134.837Z" fill="black"/>
<path d="M205.059 118.89H222.17C226.22 118.89 229.503 122.173 229.503 126.223V143.334H205.059V118.89Z" fill="white" stroke="#E3E3E3" stroke-width="0.611111"/>
<path d="M214.334 124.581C214.932 125.85 216.042 126.923 216.534 128.269C217.004 129.555 217.922 130.726 218.734 131.825C219.138 132.372 219.803 133.381 219.978 134.025C220.109 134.506 220.178 134.915 220.534 135.291C221.068 135.857 220.835 136.621 221.534 137.18" stroke="#FF6534" stroke-width="6" stroke-linecap="round"/>
<path d="M210.334 135.18C211.542 134.214 213.122 133.459 214.423 132.592C216.325 131.323 218.419 130.474 220.445 129.425C221.959 128.641 223.745 127.91 225.333 127.381" stroke="#FF6534" stroke-width="6" stroke-linecap="round"/>
<path d="M214.393 134.837C213.845 134.837 213.372 134.759 212.975 134.603C212.584 134.446 212.281 134.221 212.065 133.928C211.857 133.628 211.753 133.276 211.753 132.872C211.753 132.481 211.854 132.148 212.056 131.875C212.264 131.594 212.564 131.379 212.955 131.229C213.353 131.079 213.832 131.004 214.393 131.004C214.947 131.004 215.422 131.079 215.82 131.229C216.218 131.379 216.521 131.594 216.729 131.875C216.945 132.148 217.052 132.481 217.052 132.872C217.052 133.276 216.945 133.628 216.729 133.928C216.514 134.221 216.208 134.446 215.81 134.603C215.413 134.759 214.94 134.837 214.393 134.837ZM214.393 134.241C214.999 134.241 215.471 134.117 215.81 133.869C216.156 133.621 216.329 133.286 216.329 132.862C216.329 132.438 216.156 132.106 215.81 131.865C215.471 131.617 214.999 131.493 214.393 131.493C213.786 131.493 213.314 131.617 212.975 131.865C212.636 132.106 212.466 132.438 212.466 132.862C212.466 133.286 212.636 133.621 212.975 133.869C213.314 134.117 213.786 134.241 214.393 134.241ZM214.393 131.405C213.884 131.405 213.451 131.337 213.092 131.2C212.74 131.063 212.47 130.867 212.281 130.613C212.091 130.352 211.997 130.043 211.997 129.684C211.997 129.306 212.095 128.984 212.29 128.716C212.492 128.443 212.773 128.234 213.131 128.091C213.49 127.947 213.91 127.875 214.393 127.875C214.875 127.875 215.295 127.947 215.654 128.091C216.019 128.234 216.302 128.443 216.505 128.716C216.707 128.984 216.808 129.306 216.808 129.684C216.808 130.043 216.713 130.352 216.524 130.613C216.335 130.867 216.058 131.063 215.693 131.2C215.334 131.337 214.901 131.405 214.393 131.405ZM214.393 130.936C214.927 130.936 215.344 130.825 215.644 130.603C215.944 130.382 216.094 130.085 216.094 129.714C216.094 129.323 215.937 129.019 215.625 128.804C215.318 128.583 214.907 128.472 214.393 128.472C213.878 128.472 213.467 128.583 213.161 128.804C212.854 129.019 212.701 129.319 212.701 129.704C212.701 130.082 212.848 130.382 213.141 130.603C213.441 130.825 213.858 130.936 214.393 130.936ZM220.188 134.837C219.699 134.837 219.233 134.759 218.79 134.603C218.346 134.44 217.994 134.224 217.734 133.957L218.076 133.4C218.291 133.628 218.584 133.817 218.956 133.967C219.334 134.117 219.741 134.192 220.178 134.192C220.758 134.192 221.198 134.065 221.498 133.811C221.804 133.55 221.958 133.211 221.958 132.794C221.958 132.5 221.886 132.249 221.742 132.041C221.606 131.826 221.371 131.659 221.038 131.542C220.706 131.425 220.25 131.366 219.67 131.366H218.213L218.565 127.934H222.31V128.56H218.848L219.21 128.218L218.907 131.092L218.545 130.74H219.826C220.517 130.74 221.071 130.825 221.488 130.995C221.905 131.164 222.205 131.402 222.388 131.708C222.577 132.008 222.671 132.36 222.671 132.764C222.671 133.149 222.58 133.501 222.398 133.82C222.215 134.133 221.941 134.381 221.576 134.563C221.211 134.746 220.748 134.837 220.188 134.837Z" fill="black"/>
<rect x="9.50391" y="143.334" width="24.4444" height="24.4444" fill="white" stroke="#E3E3E3" stroke-width="0.611111"/>
<path d="M18.334 148.581C18.9316 149.85 20.0421 150.923 20.5339 152.269C21.0036 153.555 21.9219 154.726 22.7339 155.825C23.1385 156.372 23.8026 157.381 23.9783 158.025C24.1094 158.506 24.1784 158.915 24.5338 159.291C25.068 159.857 24.8347 160.621 25.5338 161.18" stroke="#FF6534" stroke-width="6" stroke-linecap="round"/>
<path d="M14.3337 159.18C15.5421 158.214 17.122 157.459 18.4225 156.592C20.3248 155.323 22.4187 154.474 24.4446 153.425C25.9592 152.641 27.7455 151.91 29.3334 151.381" stroke="#FF6534" stroke-width="6" stroke-linecap="round"/>
<path d="M21.3308 152.32C21.937 152.32 22.4487 152.457 22.8659 152.731C23.2831 152.998 23.5992 153.386 23.8143 153.894C24.0294 154.403 24.137 155.019 24.137 155.742C24.137 156.512 24.0033 157.16 23.7361 157.688C23.4753 158.216 23.1103 158.614 22.641 158.881C22.1716 159.148 21.6273 159.282 21.0081 159.282C20.7017 159.282 20.4084 159.253 20.1281 159.194C19.8543 159.135 19.6066 159.041 19.385 158.91L19.6685 158.343C19.8445 158.461 20.0466 158.545 20.2748 158.597C20.5094 158.643 20.7506 158.666 20.9983 158.666C21.7349 158.666 22.3216 158.431 22.7583 157.962C23.2016 157.493 23.4232 156.792 23.4232 155.86C23.4232 155.71 23.4134 155.53 23.3939 155.322C23.3808 155.113 23.345 154.905 23.2863 154.696L23.5308 154.882C23.4656 155.221 23.3254 155.511 23.1103 155.752C22.9017 155.987 22.641 156.166 22.3281 156.29C22.0217 156.414 21.6795 156.476 21.3014 156.476C20.8516 156.476 20.4508 156.391 20.0988 156.221C19.7533 156.052 19.4828 155.814 19.2872 155.508C19.0916 155.201 18.9939 154.84 18.9939 154.422C18.9939 153.992 19.0949 153.621 19.297 153.308C19.4991 152.995 19.7761 152.754 20.1281 152.584C20.4866 152.408 20.8875 152.32 21.3308 152.32ZM21.3601 152.917C21.0342 152.917 20.7441 152.978 20.4899 153.102C20.2422 153.22 20.0466 153.389 19.9032 153.611C19.7598 153.832 19.6881 154.096 19.6881 154.403C19.6881 154.853 19.8413 155.211 20.1476 155.478C20.4605 155.746 20.881 155.879 21.409 155.879C21.761 155.879 22.0673 155.814 22.3281 155.684C22.5953 155.553 22.8007 155.374 22.9441 155.146C23.094 154.918 23.169 154.664 23.169 154.383C23.169 154.129 23.1005 153.891 22.9636 153.669C22.8268 153.448 22.6247 153.269 22.3574 153.132C22.0902 152.988 21.7577 152.917 21.3601 152.917Z" fill="black"/>
<rect x="33.9473" y="143.334" width="24.4444" height="24.4444" fill="white" stroke="#E3E3E3" stroke-width="0.611111"/>
<path d="M43.334 148.581C43.9316 149.85 45.0421 150.923 45.5339 152.269C46.0036 153.555 46.9219 154.726 47.7339 155.825C48.1385 156.372 48.8026 157.381 48.9783 158.025C49.1094 158.506 49.1784 158.915 49.5338 159.291C50.068 159.857 49.8347 160.621 50.5338 161.18" stroke="#FF6534" stroke-width="6" stroke-linecap="round"/>
<path d="M39.3337 159.18C40.5421 158.214 42.122 157.459 43.4225 156.592C45.3248 155.323 47.4187 154.474 49.4446 153.425C50.9592 152.641 52.7455 151.91 54.3334 151.381" stroke="#FF6534" stroke-width="6" stroke-linecap="round"/>
<path d="M43.0679 159.223V152.672L43.3808 153.005H41.4545V152.379H43.7719V159.223H43.0679ZM47.4515 159.282C46.9561 159.282 46.4868 159.204 46.0435 159.047C45.6068 158.884 45.2548 158.669 44.9875 158.402L45.3297 157.845C45.5514 158.073 45.848 158.262 46.2195 158.412C46.5976 158.562 47.0083 158.637 47.4515 158.637C48.0186 158.637 48.4521 158.513 48.752 158.265C49.0583 158.017 49.2115 157.685 49.2115 157.268C49.2115 156.85 49.0616 156.518 48.7617 156.27C48.4684 156.023 48.0023 155.899 47.3635 155.899H46.8746V155.381L48.9866 152.731L49.0844 153.005H45.2711V152.379H49.6711V152.877L47.5591 155.527L47.2169 155.302H47.4809C48.3022 155.302 48.9149 155.485 49.3191 155.85C49.7297 156.215 49.9351 156.684 49.9351 157.258C49.9351 157.642 49.8438 157.988 49.6613 158.294C49.4788 158.601 49.2017 158.842 48.8302 159.018C48.4652 159.194 48.0056 159.282 47.4515 159.282Z" fill="black"/>
<rect x="58.3926" y="143.334" width="24.4444" height="24.4444" fill="white" stroke="#E3E3E3" stroke-width="0.611111"/>
<path d="M67.334 148.581C67.9316 149.85 69.0421 150.923 69.5339 152.269C70.0036 153.555 70.9219 154.726 71.7339 155.825C72.1385 156.372 72.8026 157.381 72.9783 158.025C73.1094 158.506 73.1784 158.915 73.5338 159.291C74.068 159.857 73.8347 160.621 74.5338 161.18" stroke="#FF6534" stroke-width="6" stroke-linecap="round"/>
<path d="M63.3337 159.18C64.5421 158.214 66.122 157.459 67.4225 156.592C69.3248 155.323 71.4187 154.474 73.4446 153.425C74.9592 152.641 76.7455 151.91 78.3334 151.381" stroke="#FF6534" stroke-width="6" stroke-linecap="round"/>
<path d="M66.1731 159.223V158.725L69.0184 155.938C69.2792 155.684 69.4747 155.462 69.6051 155.273C69.7355 155.077 69.8235 154.895 69.8691 154.725C69.9147 154.556 69.9376 154.396 69.9376 154.246C69.9376 153.849 69.8007 153.536 69.5269 153.308C69.2596 153.08 68.862 152.965 68.334 152.965C67.9298 152.965 67.5713 153.027 67.2584 153.151C66.9521 153.275 66.6881 153.467 66.4664 153.728L65.9678 153.298C66.235 152.985 66.5773 152.744 66.9944 152.574C67.4116 152.405 67.8777 152.32 68.3927 152.32C68.8555 152.32 69.2564 152.395 69.5953 152.545C69.9343 152.688 70.195 152.9 70.3776 153.181C70.5666 153.461 70.6611 153.79 70.6611 154.168C70.6611 154.39 70.6285 154.608 70.5633 154.823C70.5047 155.038 70.3938 155.266 70.2309 155.508C70.0744 155.742 69.843 156.01 69.5367 156.309L66.926 158.871L66.7304 158.597H70.974V159.223H66.1731ZM73.0504 159.223V152.672L73.3633 153.005H71.4371V152.379H73.7544V159.223H73.0504Z" fill="black"/>
<rect x="82.8364" y="143.334" width="24.4444" height="24.4444" fill="white" stroke="#E3E3E3" stroke-width="0.611111"/>
<rect x="107.282" y="143.334" width="24.4444" height="24.4444" fill="white" stroke="#E3E3E3" stroke-width="0.611111"/>
<path d="M116.333 148.581C116.931 149.85 118.042 150.923 118.533 152.269C119.003 153.555 119.921 154.726 120.733 155.825C121.138 156.372 121.802 157.381 121.978 158.025C122.109 158.506 122.178 158.915 122.533 159.291C123.067 159.857 122.834 160.621 123.533 161.18" stroke="#FF6534" stroke-width="6" stroke-linecap="round"/>
<path d="M112.333 159.18C113.542 158.214 115.121 157.459 116.422 156.592C118.324 155.323 120.418 154.474 122.444 153.425C123.959 152.641 125.745 151.91 127.333 151.381" stroke="#FF6534" stroke-width="6" stroke-linecap="round"/>
<path d="M113.886 157.424V156.916L117.513 152.379H118.295L114.697 156.916L114.316 156.798H119.821V157.424H113.886ZM117.748 159.223V157.424L117.767 156.798V155.214H118.452V159.223H117.748ZM123.164 159.282C122.616 159.282 122.144 159.204 121.746 159.047C121.355 158.891 121.052 158.666 120.837 158.373C120.628 158.073 120.524 157.721 120.524 157.317C120.524 156.925 120.625 156.593 120.827 156.319C121.035 156.039 121.335 155.824 121.726 155.674C122.124 155.524 122.603 155.449 123.164 155.449C123.718 155.449 124.194 155.524 124.591 155.674C124.989 155.824 125.292 156.039 125.501 156.319C125.716 156.593 125.823 156.925 125.823 157.317C125.823 157.721 125.716 158.073 125.501 158.373C125.286 158.666 124.979 158.891 124.582 159.047C124.184 159.204 123.711 159.282 123.164 159.282ZM123.164 158.685C123.77 158.685 124.243 158.562 124.582 158.314C124.927 158.066 125.1 157.73 125.1 157.307C125.1 156.883 124.927 156.551 124.582 156.309C124.243 156.062 123.77 155.938 123.164 155.938C122.558 155.938 122.085 156.062 121.746 156.309C121.407 156.551 121.238 156.883 121.238 157.307C121.238 157.73 121.407 158.066 121.746 158.314C122.085 158.562 122.558 158.685 123.164 158.685ZM123.164 155.85C122.655 155.85 122.222 155.781 121.863 155.645C121.511 155.508 121.241 155.312 121.052 155.058C120.863 154.797 120.768 154.488 120.768 154.129C120.768 153.751 120.866 153.428 121.062 153.161C121.264 152.887 121.544 152.679 121.902 152.535C122.261 152.392 122.681 152.32 123.164 152.32C123.646 152.32 124.067 152.392 124.425 152.535C124.79 152.679 125.074 152.887 125.276 153.161C125.478 153.428 125.579 153.751 125.579 154.129C125.579 154.488 125.484 154.797 125.295 155.058C125.106 155.312 124.829 155.508 124.464 155.645C124.106 155.781 123.672 155.85 123.164 155.85ZM123.164 155.381C123.698 155.381 124.115 155.27 124.415 155.048C124.715 154.826 124.865 154.53 124.865 154.158C124.865 153.767 124.709 153.464 124.396 153.249C124.089 153.027 123.679 152.917 123.164 152.917C122.649 152.917 122.238 153.027 121.932 153.249C121.625 153.464 121.472 153.764 121.472 154.149C121.472 154.527 121.619 154.826 121.912 155.048C122.212 155.27 122.629 155.381 123.164 155.381Z" fill="black"/>
<rect x="131.726" y="143.334" width="24.4444" height="24.4444" fill="white" stroke="#E3E3E3" stroke-width="0.611111"/>
<rect x="156.169" y="143.334" width="24.4444" height="24.4444" fill="white" stroke="#E3E3E3" stroke-width="0.611111"/>
<rect x="180.615" y="143.334" width="24.4444" height="24.4444" fill="white" stroke="#E3E3E3" stroke-width="0.611111"/>
<path d="M189.334 148.581C189.932 149.85 191.042 150.923 191.534 152.269C192.004 153.555 192.922 154.726 193.734 155.825C194.138 156.372 194.803 157.381 194.978 158.025C195.109 158.506 195.178 158.915 195.534 159.291C196.068 159.857 195.835 160.621 196.534 161.18" stroke="#FF6534" stroke-width="6" stroke-linecap="round"/>
<path d="M185.334 159.18C186.542 158.214 188.122 157.459 189.423 156.592C191.325 155.323 193.419 154.474 195.445 153.425C196.959 152.641 198.745 151.91 200.333 151.381" stroke="#FF6534" stroke-width="6" stroke-linecap="round"/>
<path d="M188.257 159.223L191.21 152.692L191.425 153.005H187.191L187.553 152.662V154.285H186.859V152.379H191.884V152.877L189.019 159.223H188.257ZM192.055 157.424V156.916L195.682 152.379H196.465L192.866 156.916L192.485 156.798H197.99V157.424H192.055ZM195.917 159.223V157.424L195.937 156.798V155.214H196.621V159.223H195.917Z" fill="black"/>
<rect x="205.059" y="143.334" width="24.4444" height="24.4444" fill="white" stroke="#E3E3E3" stroke-width="0.611111"/>
<path d="M9.50391 167.779H33.9484V192.223H16.8372C12.7871 192.223 9.50391 188.94 9.50391 184.89V167.779Z" fill="white" stroke="#E3E3E3" stroke-width="0.611111"/>
<rect x="33.9473" y="167.779" width="24.4444" height="24.4444" fill="white" stroke="#E3E3E3" stroke-width="0.611111"/>
<rect x="58.3926" y="167.779" width="24.4444" height="24.4444" fill="white" stroke="#E3E3E3" stroke-width="0.611111"/>
<path d="M67.334 173.581C67.9316 174.85 69.0421 175.923 69.5339 177.269C70.0036 178.555 70.9219 179.726 71.7339 180.825C72.1385 181.372 72.8026 182.381 72.9783 183.025C73.1094 183.506 73.1784 183.915 73.5338 184.291C74.068 184.857 73.8347 185.621 74.5338 186.18" stroke="#FF6534" stroke-width="6" stroke-linecap="round"/>
<path d="M63.3337 184.18C64.5421 183.214 66.122 182.459 67.4225 181.592C69.3248 180.323 71.4187 179.474 73.4446 178.425C74.9592 177.641 76.7455 176.91 78.3334 176.381" stroke="#FF6534" stroke-width="6" stroke-linecap="round"/>
<path d="M64.9393 183.668V183.169L67.7846 180.382C68.0454 180.128 68.2409 179.906 68.3713 179.717C68.5016 179.522 68.5896 179.339 68.6353 179.17C68.6809 179 68.7037 178.841 68.7037 178.691C68.7037 178.293 68.5668 177.98 68.2931 177.752C68.0258 177.524 67.6282 177.41 67.1002 177.41C66.696 177.41 66.3375 177.472 66.0246 177.596C65.7182 177.72 65.4542 177.912 65.2326 178.173L64.7339 177.742C65.0012 177.429 65.3434 177.188 65.7606 177.019C66.1778 176.849 66.6439 176.765 67.1588 176.765C67.6216 176.765 68.0225 176.84 68.3615 176.989C68.7005 177.133 68.9612 177.345 69.1437 177.625C69.3328 177.905 69.4273 178.234 69.4273 178.613C69.4273 178.834 69.3947 179.053 69.3295 179.268C69.2708 179.483 69.16 179.711 68.9971 179.952C68.8406 180.187 68.6092 180.454 68.3028 180.754L65.6922 183.316L65.4966 183.042H69.7402V183.668H64.9393ZM70.4966 183.668V183.169L73.3419 180.382C73.6026 180.128 73.7982 179.906 73.9286 179.717C74.0589 179.522 74.1469 179.339 74.1926 179.17C74.2382 179 74.261 178.841 74.261 178.691C74.261 178.293 74.1241 177.98 73.8503 177.752C73.5831 177.524 73.1855 177.41 72.6575 177.41C72.2533 177.41 71.8948 177.472 71.5819 177.596C71.2755 177.72 71.0115 177.912 70.7899 178.173L70.2912 177.742C70.5585 177.429 70.9007 177.188 71.3179 177.019C71.7351 176.849 72.2012 176.765 72.7161 176.765C73.1789 176.765 73.5798 176.84 73.9188 176.989C74.2578 177.133 74.5185 177.345 74.701 177.625C74.89 177.905 74.9846 178.234 74.9846 178.613C74.9846 178.834 74.952 179.053 74.8868 179.268C74.8281 179.483 74.7173 179.711 74.5543 179.952C74.3979 180.187 74.1665 180.454 73.8601 180.754L71.2495 183.316L71.0539 183.042H75.2975V183.668H70.4966Z" fill="black"/>
<rect x="82.8364" y="167.779" width="24.4444" height="24.4444" fill="white" stroke="#E3E3E3" stroke-width="0.611111"/>
<path d="M91.3335 173.581C91.9311 174.85 93.0416 175.923 93.5334 177.269C94.0031 178.555 94.9214 179.726 95.7334 180.825C96.138 181.372 96.8021 182.381 96.9778 183.025C97.1089 183.506 97.1779 183.915 97.5333 184.291C98.0675 184.857 97.8342 185.621 98.5333 186.18" stroke="#FF6534" stroke-width="6" stroke-linecap="round"/>
<path d="M87.3332 184.18C88.5416 183.214 90.1215 182.459 91.422 181.592C93.3244 180.323 95.4182 179.474 97.4441 178.425C98.9587 177.641 100.745 176.91 102.333 176.381" stroke="#FF6534" stroke-width="6" stroke-linecap="round"/>
<path d="M91.5347 183.726C91.0393 183.726 90.57 183.648 90.1267 183.492C89.69 183.329 89.338 183.114 89.0707 182.846L89.4129 182.289C89.6345 182.517 89.9311 182.706 90.3027 182.856C90.6808 183.006 91.0914 183.081 91.5347 183.081C92.1018 183.081 92.5353 182.957 92.8351 182.709C93.1415 182.462 93.2947 182.129 93.2947 181.712C93.2947 181.295 93.1448 180.962 92.8449 180.715C92.5516 180.467 92.0855 180.343 91.4467 180.343H90.9578V179.825L93.0698 177.175L93.1676 177.449H89.3542V176.823H93.7542V177.322L91.6422 179.972L91.3 179.747H91.564C92.3854 179.747 92.9981 179.929 93.4022 180.294C93.8129 180.659 94.0182 181.129 94.0182 181.702C94.0182 182.087 93.927 182.432 93.7445 182.739C93.562 183.045 93.2849 183.286 92.9134 183.462C92.5483 183.638 92.0888 183.726 91.5347 183.726ZM96.0888 183.668L99.0417 177.136L99.2568 177.449H95.023L95.3848 177.107V178.73H94.6905V176.823H99.7163V177.322L96.8514 183.668H96.0888Z" fill="black"/>
<rect x="107.282" y="167.779" width="24.4444" height="24.4444" fill="white" stroke="#E3E3E3" stroke-width="0.611111"/>
<rect x="131.726" y="167.779" width="24.4444" height="24.4444" fill="white" stroke="#E3E3E3" stroke-width="0.611111"/>
<path d="M140.333 173.581C140.931 174.85 142.042 175.923 142.533 177.269C143.003 178.555 143.921 179.726 144.733 180.825C145.138 181.372 145.802 182.381 145.978 183.025C146.109 183.506 146.178 183.915 146.533 184.291C147.067 184.857 146.834 185.621 147.533 186.18" stroke="#FF6534" stroke-width="6" stroke-linecap="round"/>
<path d="M136.333 184.18C137.542 183.214 139.121 182.459 140.422 181.592C142.324 180.323 144.418 179.474 146.444 178.425C147.959 177.641 149.745 176.91 151.333 176.381" stroke="#FF6534" stroke-width="6" stroke-linecap="round"/>
<path d="M141.001 183.726C140.512 183.726 140.046 183.648 139.602 183.492C139.159 183.329 138.807 183.114 138.546 182.846L138.889 182.289C139.104 182.517 139.397 182.706 139.769 182.856C140.147 183.006 140.554 183.081 140.991 183.081C141.571 183.081 142.011 182.954 142.311 182.7C142.617 182.439 142.77 182.1 142.77 181.683C142.77 181.389 142.699 181.138 142.555 180.93C142.418 180.715 142.184 180.549 141.851 180.431C141.519 180.314 141.063 180.255 140.482 180.255H139.026L139.378 176.823H143.122V177.449H139.661L140.023 177.107L139.72 179.981L139.358 179.629H140.639C141.33 179.629 141.884 179.714 142.301 179.884C142.718 180.053 143.018 180.291 143.201 180.597C143.39 180.897 143.484 181.249 143.484 181.653C143.484 182.038 143.393 182.39 143.21 182.709C143.028 183.022 142.754 183.27 142.389 183.453C142.024 183.635 141.561 183.726 141.001 183.726ZM147.106 183.726C146.578 183.726 146.109 183.589 145.698 183.316C145.287 183.035 144.965 182.638 144.73 182.123C144.495 181.601 144.378 180.976 144.378 180.245C144.378 179.515 144.495 178.893 144.73 178.378C144.965 177.856 145.287 177.459 145.698 177.185C146.109 176.905 146.578 176.765 147.106 176.765C147.634 176.765 148.103 176.905 148.514 177.185C148.925 177.459 149.247 177.856 149.482 178.378C149.723 178.893 149.844 179.515 149.844 180.245C149.844 180.976 149.723 181.601 149.482 182.123C149.247 182.638 148.925 183.035 148.514 183.316C148.103 183.589 147.634 183.726 147.106 183.726ZM147.106 183.081C147.51 183.081 147.862 182.973 148.162 182.758C148.462 182.537 148.696 182.217 148.866 181.8C149.035 181.376 149.12 180.858 149.12 180.245C149.12 179.633 149.035 179.118 148.866 178.701C148.696 178.277 148.462 177.957 148.162 177.742C147.862 177.521 147.51 177.41 147.106 177.41C146.715 177.41 146.366 177.521 146.06 177.742C145.753 177.957 145.515 178.277 145.346 178.701C145.176 179.118 145.092 179.633 145.092 180.245C145.092 180.858 145.176 181.376 145.346 181.8C145.515 182.217 145.753 182.537 146.06 182.758C146.366 182.973 146.715 183.081 147.106 183.081Z" fill="black"/>
<rect x="156.169" y="167.779" width="24.4444" height="24.4444" fill="white" stroke="#E3E3E3" stroke-width="0.611111"/>
<path d="M165.333 173.581C165.931 174.85 167.042 175.923 167.533 177.269C168.003 178.555 168.921 179.726 169.733 180.825C170.138 181.372 170.802 182.381 170.978 183.025C171.109 183.506 171.178 183.915 171.533 184.291C172.067 184.857 171.834 185.621 172.533 186.18" stroke="#FF6534" stroke-width="6" stroke-linecap="round"/>
<path d="M161.333 184.18C162.542 183.214 164.121 182.459 165.422 181.592C167.324 180.323 169.418 179.474 171.444 178.425C172.959 177.641 174.745 176.91 176.333 176.381" stroke="#FF6534" stroke-width="6" stroke-linecap="round"/>
<path d="M165.999 183.726C165.392 183.726 164.881 183.593 164.464 183.325C164.046 183.052 163.73 182.661 163.515 182.152C163.3 181.637 163.192 181.021 163.192 180.304C163.192 179.528 163.323 178.88 163.584 178.358C163.851 177.83 164.219 177.433 164.688 177.165C165.158 176.898 165.702 176.765 166.321 176.765C166.628 176.765 166.921 176.794 167.201 176.853C167.482 176.911 167.729 177.006 167.944 177.136L167.661 177.703C167.485 177.586 167.283 177.504 167.055 177.459C166.826 177.407 166.585 177.381 166.331 177.381C165.594 177.381 165.005 177.615 164.561 178.085C164.125 178.554 163.906 179.255 163.906 180.187C163.906 180.33 163.913 180.509 163.926 180.725C163.945 180.933 163.984 181.142 164.043 181.35L163.799 181.165C163.87 180.826 164.01 180.539 164.219 180.304C164.428 180.063 164.688 179.88 165.001 179.757C165.314 179.633 165.656 179.571 166.028 179.571C166.484 179.571 166.885 179.656 167.231 179.825C167.576 179.994 167.847 180.232 168.042 180.539C168.238 180.845 168.336 181.207 168.336 181.624C168.336 182.048 168.234 182.419 168.032 182.739C167.83 183.052 167.55 183.296 167.192 183.472C166.84 183.642 166.442 183.726 165.999 183.726ZM165.969 183.13C166.295 183.13 166.582 183.071 166.83 182.954C167.084 182.83 167.283 182.657 167.426 182.436C167.57 182.208 167.641 181.944 167.641 181.644C167.641 181.194 167.485 180.835 167.172 180.568C166.866 180.301 166.448 180.167 165.92 180.167C165.568 180.167 165.262 180.232 165.001 180.363C164.741 180.493 164.535 180.672 164.385 180.901C164.235 181.122 164.16 181.376 164.16 181.663C164.16 181.911 164.229 182.149 164.366 182.377C164.503 182.599 164.705 182.781 164.972 182.925C165.246 183.061 165.578 183.13 165.969 183.13ZM171.752 183.726C171.204 183.726 170.731 183.648 170.334 183.492C169.943 183.335 169.64 183.11 169.425 182.817C169.216 182.517 169.112 182.165 169.112 181.761C169.112 181.37 169.213 181.037 169.415 180.764C169.623 180.483 169.923 180.268 170.314 180.118C170.712 179.968 171.191 179.893 171.752 179.893C172.306 179.893 172.782 179.968 173.179 180.118C173.577 180.268 173.88 180.483 174.089 180.764C174.304 181.037 174.411 181.37 174.411 181.761C174.411 182.165 174.304 182.517 174.089 182.817C173.873 183.11 173.567 183.335 173.169 183.492C172.772 183.648 172.299 183.726 171.752 183.726ZM171.752 183.13C172.358 183.13 172.83 183.006 173.169 182.758C173.515 182.511 173.688 182.175 173.688 181.751C173.688 181.328 173.515 180.995 173.169 180.754C172.83 180.506 172.358 180.382 171.752 180.382C171.145 180.382 170.673 180.506 170.334 180.754C169.995 180.995 169.825 181.328 169.825 181.751C169.825 182.175 169.995 182.511 170.334 182.758C170.673 183.006 171.145 183.13 171.752 183.13ZM171.752 180.294C171.243 180.294 170.81 180.226 170.451 180.089C170.099 179.952 169.829 179.757 169.64 179.502C169.451 179.242 169.356 178.932 169.356 178.573C169.356 178.195 169.454 177.873 169.649 177.605C169.851 177.332 170.132 177.123 170.49 176.98C170.849 176.836 171.269 176.765 171.752 176.765C172.234 176.765 172.654 176.836 173.013 176.98C173.378 177.123 173.662 177.332 173.864 177.605C174.066 177.873 174.167 178.195 174.167 178.573C174.167 178.932 174.072 179.242 173.883 179.502C173.694 179.757 173.417 179.952 173.052 180.089C172.694 180.226 172.26 180.294 171.752 180.294ZM171.752 179.825C172.286 179.825 172.703 179.714 173.003 179.493C173.303 179.271 173.453 178.974 173.453 178.603C173.453 178.212 173.297 177.909 172.984 177.693C172.677 177.472 172.267 177.361 171.752 177.361C171.237 177.361 170.826 177.472 170.52 177.693C170.213 177.909 170.06 178.208 170.06 178.593C170.06 178.971 170.207 179.271 170.5 179.493C170.8 179.714 171.217 179.825 171.752 179.825Z" fill="black"/>
<rect x="180.615" y="167.779" width="24.4444" height="24.4444" fill="white" stroke="#E3E3E3" stroke-width="0.611111"/>
<path d="M205.059 167.779H229.503V184.89C229.503 188.94 226.22 192.223 222.17 192.223H205.059V167.779Z" fill="white" stroke="#E3E3E3" stroke-width="0.611111"/>
<path d="M214.334 173.581C214.932 174.85 216.042 175.923 216.534 177.269C217.004 178.555 217.922 179.726 218.734 180.825C219.138 181.372 219.803 182.381 219.978 183.025C220.109 183.506 220.178 183.915 220.534 184.291C221.068 184.857 220.835 185.621 221.534 186.18" stroke="#FF6534" stroke-width="6" stroke-linecap="round"/>
<path d="M210.334 184.18C211.542 183.214 213.122 182.459 214.423 181.592C216.325 180.323 218.419 179.474 220.445 178.425C221.959 177.641 223.745 176.91 225.333 176.381" stroke="#FF6534" stroke-width="6" stroke-linecap="round"/>
<path d="M214.618 183.726C214.07 183.726 213.598 183.648 213.2 183.492C212.809 183.335 212.506 183.11 212.291 182.817C212.082 182.517 211.978 182.165 211.978 181.761C211.978 181.37 212.079 181.037 212.281 180.764C212.49 180.483 212.789 180.268 213.18 180.118C213.578 179.968 214.057 179.893 214.618 179.893C215.172 179.893 215.648 179.968 216.045 180.118C216.443 180.268 216.746 180.483 216.955 180.764C217.17 181.037 217.277 181.37 217.277 181.761C217.277 182.165 217.17 182.517 216.955 182.817C216.74 183.11 216.433 183.335 216.036 183.492C215.638 183.648 215.165 183.726 214.618 183.726ZM214.618 183.13C215.224 183.13 215.697 183.006 216.036 182.758C216.381 182.511 216.554 182.175 216.554 181.751C216.554 181.328 216.381 180.995 216.036 180.754C215.697 180.506 215.224 180.382 214.618 180.382C214.012 180.382 213.539 180.506 213.2 180.754C212.861 180.995 212.692 181.328 212.692 181.751C212.692 182.175 212.861 182.511 213.2 182.758C213.539 183.006 214.012 183.13 214.618 183.13ZM214.618 180.294C214.109 180.294 213.676 180.226 213.317 180.089C212.965 179.952 212.695 179.757 212.506 179.502C212.317 179.242 212.222 178.932 212.222 178.573C212.222 178.195 212.32 177.873 212.516 177.605C212.718 177.332 212.998 177.123 213.356 176.98C213.715 176.836 214.135 176.765 214.618 176.765C215.1 176.765 215.521 176.836 215.879 176.98C216.244 177.123 216.528 177.332 216.73 177.605C216.932 177.873 217.033 178.195 217.033 178.573C217.033 178.932 216.938 179.242 216.749 179.502C216.56 179.757 216.283 179.952 215.918 180.089C215.56 180.226 215.126 180.294 214.618 180.294ZM214.618 179.825C215.152 179.825 215.57 179.714 215.869 179.493C216.169 179.271 216.319 178.974 216.319 178.603C216.319 178.212 216.163 177.909 215.85 177.693C215.543 177.472 215.133 177.361 214.618 177.361C214.103 177.361 213.692 177.472 213.386 177.693C213.079 177.909 212.926 178.208 212.926 178.593C212.926 178.971 213.073 179.271 213.366 179.493C213.666 179.714 214.083 179.825 214.618 179.825ZM219.445 183.668V177.117L219.758 177.449H217.832V176.823H220.149V183.668H219.445Z" fill="black"/>
</svg>
